<?xml version="1.0" encoding="UTF-8"?>
<svg xmlns="http://www.w3.org/2000/svg" id="muscle-back" width="530" height="1052">
	 <path id="b-aa"      class="muscle-outline" muscle="aa"    d="m 240.92138,124.03199 -15.15229,-26.263963 3.03046,-29.294424 10.10153,-15.152288 16.16244,-12.121831 31.31473,-5.555839 25.75889,7.576144 17.17259,15.152288 5.05076,14.142136 1.01016,16.667517 -6.06092,17.17259 -7.07107,18.18275 -23.73858,-6.06092 -35.86042,1.01016 z" />
	 <path id="b-1-3-l"   class="muscle-outline" muscle="1-3"   d="m 240.92138,126.55737 -2.52538,38.3858 12.12183,-10.10152 8.08122,-31.31473 z" />
	 <path id="b-1-3-r"   class="muscle-outline" muscle="1-3"   d="m 307.59145,123.52692 13.13198,2.52538 0.50508,39.39595 -8.5863,-13.13199 z" />
	 <path id="b-3-1-1-l" class="muscle-outline" muscle="3-1-1" d="m 263.64981,122.01169 18.18275,-0.50508 -1.01015,26.76904 -17.1726,31.31473 -5.55583,2.52538 -39.39595,7.07107 -30.80966,11.61676 -19.69797,13.13198 -4.54569,-4.54569 16.16244,-14.14213 57.5787,-27.27412 17.17259,-10.6066 9.59645,-32.82996 z" />
	 <path id="b-3-1-1-r" class="muscle-outline" muscle="3-1-1" d="m 284.86302,123.02184 -1.01015,27.27412 11.11167,33.84011 2.02031,1.51523 57.07362,4.04061 31.31473,20.70813 5.05076,-1.51523 -21.2132,-20.70813 -37.88072,-15.65736 -12.62691,-4.54569 -9.09137,-15.15229 -11.11168,-29.7995 z" />
	 <path id="b-3-1-2-l" class="muscle-outline" muscle="3-1-2" d="m 264.65997,184.64115 0,0 -27.7792,3.53553 -16.16244,3.53553 -13.63706,5.05077 -18.68782,8.08122 -18.18275,11.11167 4.04061,5.05077 24.24367,-2.02031 13.63705,10.6066 2.52539,23.73859 21.2132,38.3858 24.24366,53.53808 6.56599,8.5863 9.59645,-13.63706 4.04061,-127.7843 -3.03046,-12.62691 z" />
	 <path id="b-3-1-2-r" class="muscle-outline" muscle="3-1-2" d="m 297.995,189.69191 55.05331,3.03046 33.33504,20.20305 -2.52538,5.55584 -30.80966,4.04061 -9.09137,9.59645 3.53554,24.24366 -9.59645,24.74873 -13.13199,15.15229 -7.07106,18.18275 -25.75889,39.90102 -12.12183,-14.14213 3.53553,-124.24877 9.59645,-25.75889 z" />
	 <path id="b-3-2-l"   class="muscle-outline" muscle="3-2"   d="m 171.72593,247.2706 22.72844,-11.11167 16.66751,16.66751 -3.03046,22.72843 -10.6066,17.1726 -5.05076,-1.51523 -20.70813,-34.85026 z" />
	 <path id="b-3-2-r"   class="muscle-outline" muscle="3-2"   d="m 358.09908,242.72492 -6.06092,10.10152 8.5863,47.98225 21.2132,-23.23351 4.54569,-20.20305 z" />
	 <path id="b-3-3-l"   class="muscle-outline" muscle="3-3"   d="m 214.65742,257.37213 9.59645,24.24366 -5.05077,5.55584 -15.65736,5.55584 4.04061,-8.08122 z" />
	 <path id="b-3-3-r"   class="muscle-outline" muscle="3-3"   d="m 335.37065,289.19193 21.71827,12.12183 -7.07106,-39.90102 -7.57615,17.67767 z" />
	 <path id="b-3-4-l"   class="muscle-outline" muscle="3-4"   d="m 141.92643,261.91782 3.03046,37.37564 1.51523,8.5863 14.14213,-1.51523 25.25382,-8.08122 -22.72843,-28.78935 z" />
	 <path id="b-3-4-r"   class="muscle-outline" muscle="3-4"   d="m 417.193,271.00919 -25.25381,12.12183 -20.70813,21.2132 24.74874,11.61676 16.16244,0 8.5863,-5.55584 0,-29.7995 z" />
	 <path id="b-3-5-l"   class="muscle-outline" muscle="3-5"   d="m 144.95689,259.39243 -1.01015,-5.55583 22.72843,-6.06092 1.51523,9.59645 21.2132,34.34519 -3.53553,2.52538 -21.71828,-27.27412 z" />
	 <path id="b-3-5-r"   class="muscle-outline" muscle="3-5"   d="m 389.41381,257.87721 27.77919,1.01015 -5.05076,11.61675 -23.23351,11.61676 -21.71828,21.71828 -3.53553,-3.03046 20.70812,-20.70813 z" />
	 <path id="b-3-6-l"   class="muscle-outline" muscle="3-6"   d="m 146.47212,310.91021 4.54569,25.75889 11.61675,27.27412 43.43656,33.84011 19.1929,26.76905 7.07107,-8.08123 -2.02031,-22.22335 34.85026,-28.78935 0,-9.59645 -37.37564,-71.72083 -6.56599,5.55584 -59.599,19.1929 z" />
	 <path id="b-3-6-r"   class="muscle-outline" muscle="3-6"   d="m 333.35034,291.21224 28.28427,13.63706 34.85026,13.63706 17.67767,1.01015 6.06092,-5.05076 1.51523,15.65736 -15.15229,24.24366 -37.88072,32.32488 -19.69798,15.65737 -9.09137,19.1929 -4.04061,3.53553 -4.54568,0.50508 -8.08123,-27.7792 -19.69797,-21.2132 -9.59645,-20.70813 27.27412,-42.93148 5.05076,-12.62691 z" />
	 <path id="b-4-2-l"   class="muscle-outline" muscle="4-2"   d="m 160.10918,211.91526 5.05076,5.55584 -27.27412,4.54569 -19.1929,14.64721 -7.57614,25.25382 -1.01015,6.56599 -12.121833,18.68782 -7.071068,-8.5863 0,-20.70812 15.657361,-27.7792 22.22336,-18.68782 17.67767,-3.03046 z" />
	 <path id="b-4-2-r"   class="muscle-outline" muscle="4-2"   d="m 399.51533,208.37973 6.06092,7.07107 1.01015,2.0203 25.25381,15.65737 12.12183,28.78935 15.15229,16.16244 4.04061,-16.16244 -0.50507,-21.21321 -20.20305,-28.78935 -35.86042,-4.04061 z" />
	 <path id="b-4-3-l"   class="muscle-outline" muscle="4-3"   d="m 114.65231,262.92797 -0.50507,-2.52538 5.55584,-21.21321 18.68782,-15.65736 29.7995,-3.53554 26.26397,11.11168 -24.74874,12.62691 -26.26397,7.57614 -5.05076,4.04061 z" />
	 <path id="b-4-3-r"   class="muscle-outline" muscle="4-3"   d="m 376.7869,222.01679 -18.18275,16.16244 29.29443,17.17259 50.00255,2.52539 -8.5863,-23.23351 -26.76904,-16.66752 -17.67767,2.0203 z" />
	 <path id="b-5-2-l"   class="muscle-outline" muscle="5-2"   d="m 145.96704,338.68941 -7.07106,14.64721 -21.21321,26.26397 -8.5863,8.58629 -0.50507,9.59645 30.30458,-20.70812 12.6269,-29.7995 z" />
	 <path id="b-5-2-r"   class="muscle-outline" muscle="5-2"   d="m 405.57625,359.39754 5.55584,17.17259 14.14213,10.10152 11.11168,8.08123 5.55584,8.08122 4.54569,-7.07107 -9.09138,-8.5863 -10.6066,-11.61675 -7.57614,-11.11168 -5.55584,-13.63706 z" />
	 <path id="b-5-5-1-l" class="muscle-outline" muscle="5-5-1" d="m 63.63961,362.93307 4.545687,-47.47717 11.111678,-17.17259 15.152288,-8.5863 -2.525381,21.2132 -4.040611,8.5863 -13.637059,24.74874 -2.020305,10.10152 -5.555839,12.12183 z" />
	 <path id="b-5-5-1-r" class="muscle-outline" muscle="5-5-1" d="m 459.61941,282.12087 7.07107,14.14213 4.04061,35.35534 -0.50508,4.04061 13.63706,32.32488 5.55584,-5.05076 -6.56599,-23.73858 0,-30.30458 -9.59645,-17.67767 z" />
	 <path id="b-5-5-2-l" class="muscle-outline" muscle="5-5-2" d="m 116.16754,266.96858 -17.172591,23.23351 -5.050762,24.24366 -4.04061,48.48732 25.758893,-3.03046 23.73858,-15.15229 5.05076,-15.15228 -7.07106,-68.1853 z" />
	 <path id="b-5-5-2-r" class="muscle-outline" muscle="5-5-2" d="m 421.73869,262.92797 1.51523,15.65736 1.01015,51.51778 -7.07107,14.64721 10.6066,12.62691 21.71828,7.07107 14.64721,-0.50508 -1.51522,-29.7995 5.05076,-4.54568 -2.52538,-30.80966 -8.08122,-16.16244 -17.1726,-19.1929 z" />
	 <path id="b-5-5-3-l" class="muscle-outline" muscle="5-5-3" d="m 68.185297,395.25795 1.515229,-6.56599 22.728432,-23.23351 26.263962,-3.03046 19.1929,-12.12183 -17.67767,24.24366 -12.6269,12.62691 -25.758894,10.10153 z" />
	 <path id="b-5-5-3-r" class="muscle-outline" muscle="5-5-3" d="m 466.1854,367.47876 13.63706,31.8198 -15.65737,1.01015 -14.64721,-6.56599 -15.15229,-13.13198 -13.63705,-17.67767 -5.55584,-14.14214 5.55584,1.01016 12.12183,12.6269 15.65736,4.04061 z" />
	 <path id="b-6-1-l"   class="muscle-outline" muscle="6-1"   d="m 105.56094,392.73257 3.03046,19.1929 0.50507,18.68782 -2.52538,12.62691 -1.01015,7.57614 -18.182745,25.75889 -17.172593,40.4061 -6.565992,-1.51523 10.101526,-34.34518 2.525381,-19.1929 13.63706,-46.97209 -2.525382,-12.12183 z" />
	 <path id="b-6-1-r"   class="muscle-outline" muscle="6-1"   d="m 449.01281,399.29856 14.64721,10.6066 0.50507,42.93149 13.13199,32.82995 3.03046,23.23351 -1.51523,18.68783 -6.06092,-4.04062 -4.54568,-29.29442 -25.75889,-37.88072 -5.05077,-29.29442 3.03046,-20.20305 z" />
	 <path id="b-6-4-l"   class="muscle-outline" muscle="6-4"   d="m 67.175144,399.80364 -2.525381,1.51523 -8.08122,9.59645 -4.545687,12.6269 -6.060915,21.21321 -1.010153,15.15228 -2.525381,62.62946 1.515229,12.62691 9.091373,-10.6066 7.576144,-32.82996 17.677669,-38.89087 10.101526,-39.90103 -5.050763,-13.63706 z" />
	 <path id="b-6-4-r"   class="muscle-outline" muscle="6-1"   d="m 491.94429,409.40009 0,0 -20.70813,-0.50508 -3.53553,3.03046 0,39.39595 12.62691,32.82996 1.01015,10.6066 11.11168,42.4264 7.07106,-6.06091 1.51523,-71.72083 -4.54568,-36.36549 z" />
	 <path id="b-6-5-l"   class="muscle-outline" muscle="6-5"   d="m 51.012704,396.2681 2.020305,14.14214 -5.555839,16.16244 -4.545687,23.73859 -1.010152,38.89087 -7.071068,12.12183 0.505076,-38.3858 -4.545686,-16.66751 6.565991,-23.23351 z" />
	 <path id="b-6-5-r"   class="muscle-outline" muscle="6-1"   d="m 493.45952,409.40009 7.07107,18.68782 3.53553,29.29442 -0.50508,35.86042 5.55584,15.65736 0.50508,-34.85026 3.53553,-28.28427 -4.04061,-24.24366 -8.58629,-14.64721 z" />
	 <path id="b-7-5-l"   class="muscle-outline" muscle="7-5"   d="m 197.9899,395.76303 -4.04061,18.18274 -5.05076,17.1726 4.54568,13.13198 5.55584,-13.13198 16.16244,-3.03046 1.01015,-9.59645 z" />
	 <path id="b-7-5-r"   class="muscle-outline" muscle="7-5"   d="m 358.60415,397.78333 8.5863,31.31473 1.01015,12.62691 -10.10152,-7.07107 -12.62691,-3.53553 -2.0203,-11.11168 7.07106,-15.15229 z" />
	 <path id="b-8-1-r"   class="muscle-outline" muscle="8-1"   d="m 268.70058,353.33662 -3.03046,13.63706 -32.82996,30.80965 4.54569,17.67767 18.68782,16.16244 8.5863,27.27412 2.0203,11.61676 12.12183,11.11167 8.08122,-2.0203 10.6066,-17.67767 1.51523,-15.65736 21.71828,-18.68783 5.55584,-5.05076 -6.56599,-23.73858 -19.1929,-21.21321 -9.59645,-20.70813 -5.55584,-6.06091 z" />
	 <path id="b-9-1-l"   class="muscle-outline" muscle="9-1"   d="m 201.52543,496.77828 1.01016,-2.52538 22.22335,-19.69797 14.64721,-5.55584 15.65737,1.01015 8.08122,-4.04061 11.61675,16.66752 6.06092,16.66751 1.51523,52.02286 -11.61676,17.67767 -50.50762,10.6066 -11.61676,-0.50508 -7.07107,3.03046 -5.55584,-12.6269 12.62691,-30.80966 1.01015,-31.8198 z" />
	 <path id="b-9-1-r"   class="muscle-outline" muscle="9-1"   d="m 299.00515,466.47371 -1.01015,3.03045 -12.12183,19.69798 -2.0203,7.57614 3.53553,55.55839 13.13198,17.67767 40.91118,4.54569 15.65736,6.06091 -8.58629,-38.89087 4.54568,-12.12183 -3.53553,-14.64721 3.03046,-20.20305 5.55584,-5.05077 -29.29443,-20.20305 z" />
	 <path id="b-9-2-l"   class="muscle-outline" muscle="9-2"   d="m 235.36554,417.48131 -10.6066,12.12183 -24.24366,6.56599 -8.08122,15.65736 -8.08122,44.44672 12.62691,-1.51523 24.24366,-22.72843 17.67767,-6.566 11.61675,1.01016 12.12183,-5.55584 -7.57614,-26.26397 z" />
	 <path id="b-9-2-r"   class="muscle-outline" muscle="9-2"   d="m 320.21836,432.6336 -18.68783,16.16244 0,13.63706 29.29443,4.04061 27.27412,20.70812 15.65736,3.53554 -3.03046,-38.3858 -7.57614,-12.12183 -20.20305,-8.08122 z" />
	 <path id="b-a-1-l"   class="muscle-outline" muscle="a-1"   d="m 275.77165,681.6362 -4.54569,-1.01015 -23.23351,108.08632 2.02031,13.63706 12.12183,-31.31473 5.55583,-24.74874 7.57615,-20.70813 z" />
	 <path id="b-a-1-r"   class="muscle-outline" muscle="a-1"   d="m 286.37825,686.68696 4.54568,53.53809 12.12183,32.32488 13.13199,25.25381 5.05076,-12.62691 -17.67767,-47.98224 -7.57614,-35.86042 -6.06092,-16.16244 z" />
	 <path id="b-a-9-1-l" class="muscle-outline" muscle="a-9-1" d="m 183.34269,500.31382 13.63706,-2.52539 8.58629,9.59645 0,28.28428 -11.61675,34.85026 4.54569,13.13198 -18.18275,15.65737 -10.6066,27.77919 -2.02031,33.33503 6.06092,30.30458 -14.64721,-30.80965 1.51522,-60.60915 12.62691,-41.92133 9.09137,-31.81981 z" />
	 <path id="b-a-9-1-r" class="muscle-outline" muscle="a-9-1" d="m 361.63461,492.73767 -2.52538,1.01015 -6.06092,9.59645 0,16.16244 2.02031,14.14214 -3.53553,13.63706 9.09137,36.87057 21.71828,30.30457 3.03046,56.06347 9.09137,-26.26397 0,-47.47717 -9.09137,-31.31472 -4.54569,-37.37565 -6.06092,-34.34519 z" />
	 <path id="b-a-9-2-l" class="muscle-outline" muscle="a-9-2" d="m 234.35539,580.11587 0,0 -13.13198,2.52538 -17.67767,1.51523 -15.65737,15.65736 -2.0203,46.46702 1.01015,34.85026 6.56599,65.15484 0.50508,6.06092 9.09137,-15.15229 10.6066,-25.25382 9.59645,-39.90102 2.52538,-23.73859 3.53554,-45.45686 z" />
	 <path id="b-a-9-2-r" class="muscle-outline" muscle="a-9-2" d="m 330.31988,578.09556 1.51523,87.88327 12.62691,52.02286 14.64721,20.70813 3.03046,-1.01016 6.56599,1.51523 2.52538,-5.05076 3.53553,-70.2056 -2.52538,-58.08377 -17.67767,-23.23351 z" />
	 <path id="b-a-9-3-r" class="muscle-outline" muscle="a-9-3" d="m 292.43916,574.05495 2.02031,36.87057 9.59645,80.8122 2.52538,8.08122 14.64721,3.53554 9.09137,-38.89088 -2.52538,-83.84266 z" />
	 <path id="b-a-9-3-l" class="muscle-outline" muscle="a-9-3" d="m 261.62951,573.54988 -24.74874,6.56599 -4.54568,20.20305 -7.07107,66.67007 20.20305,30.80965 6.56599,-2.02031 6.56599,-29.7995 6.56599,-65.15484 z" />
	 <path id="b-a-9-4-l" class="muscle-outline" muscle="a-9-4" d="m 225.26402,673.55498 0,0 -9.09138,39.90102 14.64722,23.73859 10.10152,-4.04061 2.02031,-1.01015 0.50507,-4.04061 2.02031,-29.29443 z" />
	 <path id="b-a-9-4-r" class="muscle-outline" muscle="a-9-4" d="m 331.33004,672.54483 0,0 12.6269,53.53808 -8.58629,16.16244 -6.06092,0.50508 -8.5863,-8.5863 1.51523,-29.29442 z" />
	 <path id="b-a-9-5-l" class="muscle-outline" muscle="a-9-5" d="m 267.18535,605.36968 -5.05076,60.10408 -9.59645,52.52793 -7.07107,50.50763 3.03046,7.57614 8.58629,-40.4061 13.13199,-59.599 3.53553,-70.71068 z" />
	 <path id="b-a-9-5-r" class="muscle-outline" muscle="a-9-5" d="m 291.93409,610.42044 -2.52539,1.01016 -4.04061,-2.02031 0,69.70053 5.55584,3.03045 7.07107,19.1929 23.73859,77.78175 1.51522,-31.81981 -20.70812,-55.55839 z" />
	 <path id="b-b-3-1-l" class="muscle-outline" muscle="b-3-1" d="m 208.5965,736.68951 -30.30458,49.49748 -13.13198,33.84011 4.54569,18.18274 28.28427,41.92133 20.70813,-9.59645 0,-118.69292 z" />
	 <path id="b-b-3-1-r" class="muscle-outline" muscle="b-3-1" d="m 354.56354,739.71997 8.5863,1.01015 7.07107,13.13199 23.73858,45.45686 4.04061,31.81981 -6.56599,24.74873 -9.09137,19.69798 -10.10153,4.04061 -15.65736,-7.07107 -1.01015,-4.04061 -4.04061,-106.06602 z" />
	 <path id="b-b-3-2-l" class="muscle-outline" muscle="b-3-2" d="m 226.27417,739.21489 -4.04061,12.12183 -0.50508,119.70308 8.5863,12.12183 12.12183,-0.50508 12.12183,-29.7995 2.52538,-23.73858 -9.09137,-22.72843 -2.02031,-6.06092 -5.55583,-52.52793 -5.55584,-9.09137 z" />
	 <path id="b-b-3-2-r" class="muscle-outline" muscle="b-3-2" d="m 316.17775,800.32912 -7.07107,18.68782 0,22.72844 5.55584,15.15228 16.66752,18.18275 22.72843,-7.57614 -4.04061,-100.00511 -12.62691,-25.25381 -10.6066,6.06092 -2.52538,32.82995 -1.01016,7.57615 z" />
	 <path id="b-b-4-l"   class="muscle-outline" muscle="b-4"   d="m 185.86807,906.90022 4.54568,2.0203 14.14214,28.78935 12.12183,56.56854 -7.07107,-0.50508 -22.72843,-84.34773 z" />
	 <path id="b-b-4-r"   class="muscle-outline" muscle="b-4"   d="m 367.69553,927.60834 -9.59645,57.5787 9.59645,-9.59645 10.6066,-59.09392 z" />
	 <path id="b-b-7-1-l" class="muscle-outline" muscle="b-7-1" d="m 163.64471,830.12862 3.53554,11.61676 30.80965,43.94163 17.17259,54.04316 -7.57614,-5.05076 -34.34519,-66.16499 -5.05076,-11.61676 z" />
	 <path id="b-b-7-1-r" class="muscle-outline" muscle="b-7-1" d="m 403.05087,826.59309 -1.01016,4.04061 -8.08122,23.73858 -10.6066,24.24366 -9.59645,3.03046 -6.56599,3.03046 -9.09137,50.00255 8.58629,-9.09137 9.09138,-12.12183 12.6269,-31.81981 15.65737,-29.29442 z" />
	 <path id="b-b-7-2-l" class="muscle-outline" muscle="b-7-2" d="m 254.55844,857.90782 -10.10152,27.27412 -6.566,2.52538 -0.50507,33.84011 17.17259,-34.85026 z" />
	 <path id="b-b-7-2-r" class="muscle-outline" muscle="b-7-2" d="m 312.64221,861.44335 17.67767,16.66752 2.02031,43.43656 -8.08122,-7.57615 z" />
	 <path id="b-b-8-l"   class="muscle-outline" muscle="b-8"   d="m 208.5965,938.21494 7.07107,4.04062 6.56599,43.94163 -4.04061,6.06092 z" />
	 <path id="b-b-8-r"   class="muscle-outline" muscle="b-8"   d="m 356.07877,938.72002 0,0 -5.55584,45.45687 8.08122,-3.53554 6.566,-49.49747 z" />
</svg>
