<svg xmlns="http://www.w3.org/2000/svg" xmlns:xlink="http://www.w3.org/1999/xlink" contentStyleType="text/css" data-diagram-type="CLASS" height="745px" preserveAspectRatio="none" style="width:2192px;height:745px;background:#FFFFFF;" version="1.1" viewBox="0 0 2192 745" width="2192px" zoomAndPan="magnify"><defs/><g><!--class QuadPos--><g class="entity" data-entity="QuadPos" data-source-line="3" data-uid="ent0002" id="entity_QuadPos"><rect fill="#F1F1F1" height="194.6719" rx="2.5" ry="2.5" style="stroke:#181818;stroke-width:0.5;" width="98.6729" x="777.5" y="7"/><ellipse cx="794.7557" cy="23" fill="#EB937F" rx="11" ry="11" style="stroke:#181818;stroke-width:1;"/><path d="M798.8651,29 L791.1463,29 L791.1463,16.6094 L798.8651,16.6094 L798.8651,18.7656 L793.5995,18.7656 L793.5995,21.4375 L798.3651,21.4375 L798.3651,23.5938 L793.5995,23.5938 L793.5995,26.8438 L798.8651,26.8438 L798.8651,29 Z " fill="#000000"/><text fill="#000000" font-family="sans-serif" font-size="14" lengthAdjust="spacing" textLength="61.6602" x="809.257" y="27.8467">QuadPos</text><line style="stroke:#181818;stroke-width:0.5;" x1="778.5" x2="875.1729" y1="39" y2="39"/><text fill="#000000" font-family="sans-serif" font-size="14" lengthAdjust="spacing" textLength="74.9697" x="783.5" y="55.9951">QUAD_1ST</text><text fill="#000000" font-family="sans-serif" font-size="14" lengthAdjust="spacing" textLength="78.7842" x="783.5" y="72.292">QUAD_2ND</text><text fill="#000000" font-family="sans-serif" font-size="14" lengthAdjust="spacing" textLength="78.0391" x="783.5" y="88.5889">QUAD_3RD</text><text fill="#000000" font-family="sans-serif" font-size="14" lengthAdjust="spacing" textLength="76.6104" x="783.5" y="104.8857">QUAD_4TH</text><text fill="#000000" font-family="sans-serif" font-size="14" lengthAdjust="spacing" textLength="70.1914" x="783.5" y="121.1826">ORIG_PNT</text><text fill="#000000" font-family="sans-serif" font-size="14" lengthAdjust="spacing" textLength="84.123" x="783.5" y="137.4795">AXIS_X_POS</text><text fill="#000000" font-family="sans-serif" font-size="14" lengthAdjust="spacing" textLength="86.6729" x="783.5" y="153.7764">AXIS_X_NAG</text><text fill="#000000" font-family="sans-serif" font-size="14" lengthAdjust="spacing" textLength="83.084" x="783.5" y="170.0732">AXIS_Y_POS</text><text fill="#000000" font-family="sans-serif" font-size="14" lengthAdjust="spacing" textLength="85.6338" x="783.5" y="186.3701">AXIS_Y_NAG</text><line style="stroke:#181818;stroke-width:0.5;" x1="778.5" x2="875.1729" y1="193.6719" y2="193.6719"/></g><!--class IAngle--><g class="entity" data-entity="IAngle" data-source-line="15" data-uid="ent0003" id="entity_IAngle"><rect fill="#F1F1F1" height="113.1875" rx="2.5" ry="2.5" style="stroke:#181818;stroke-width:0.5;" width="125.2852" x="911.5" y="48"/><ellipse cx="948.6924" cy="64" fill="#B4A7E5" rx="11" ry="11" style="stroke:#181818;stroke-width:1;"/><path d="M944.6143,59.7656 L944.6143,57.6094 L952.0049,57.6094 L952.0049,59.7656 L949.5361,59.7656 L949.5361,67.8438 L952.0049,67.8438 L952.0049,70 L944.6143,70 L944.6143,67.8438 L947.083,67.8438 L947.083,59.7656 L944.6143,59.7656 Z " fill="#000000"/><text fill="#000000" font-family="sans-serif" font-size="14" font-style="italic" lengthAdjust="spacing" textLength="43.9688" x="967.624" y="68.8467">IAngle</text><line style="stroke:#181818;stroke-width:0.5;" x1="912.5" x2="1035.7852" y1="80" y2="80"/><text fill="#000000" font-family="sans-serif" font-size="14" lengthAdjust="spacing" textLength="104.3711" x="917.5" y="96.9951">oriAgl: number</text><text fill="#000000" font-family="sans-serif" font-size="14" lengthAdjust="spacing" textLength="110.2158" x="917.5" y="113.292">fmtAgl: number</text><text fill="#000000" font-family="sans-serif" font-size="14" lengthAdjust="spacing" textLength="107.4404" x="917.5" y="129.5889">oriDgr: number</text><text fill="#000000" font-family="sans-serif" font-size="14" lengthAdjust="spacing" textLength="113.2852" x="917.5" y="145.8857">fmtDgr: number</text><line style="stroke:#181818;stroke-width:0.5;" x1="912.5" x2="1035.7852" y1="153.1875" y2="153.1875"/></g><!--class IRevolveOption--><g class="entity" data-entity="IRevolveOption" data-source-line="22" data-uid="ent0004" id="entity_IRevolveOption"><rect fill="#F1F1F1" height="96.8906" rx="2.5" ry="2.5" style="stroke:#181818;stroke-width:0.5;" width="138.832" x="757.5" y="262"/><ellipse cx="772.5" cy="278" fill="#B4A7E5" rx="11" ry="11" style="stroke:#181818;stroke-width:1;"/><path d="M768.4219,273.7656 L768.4219,271.6094 L775.8125,271.6094 L775.8125,273.7656 L773.3438,273.7656 L773.3438,281.8438 L775.8125,281.8438 L775.8125,284 L768.4219,284 L768.4219,281.8438 L770.8906,281.8438 L770.8906,273.7656 L768.4219,273.7656 Z " fill="#000000"/><text fill="#000000" font-family="sans-serif" font-size="14" font-style="italic" lengthAdjust="spacing" textLength="106.832" x="786.5" y="282.8467">IRevolveOption</text><line style="stroke:#181818;stroke-width:0.5;" x1="758.5" x2="895.332" y1="294" y2="294"/><text fill="#000000" font-family="sans-serif" font-size="14" lengthAdjust="spacing" textLength="96.4141" x="763.5" y="310.9951">start: number</text><text fill="#000000" font-family="sans-serif" font-size="14" lengthAdjust="spacing" textLength="99.0801" x="763.5" y="327.292">end  : number</text><text fill="#000000" font-family="sans-serif" font-size="14" lengthAdjust="spacing" textLength="90.8906" x="763.5" y="343.5889">diff : number</text><line style="stroke:#181818;stroke-width:0.5;" x1="758.5" x2="895.332" y1="350.8906" y2="350.8906"/></g><!--class IGeo2D--><g class="entity" data-entity="IGeo2D" data-source-line="29" data-uid="ent0005" id="entity_IGeo2D"><rect fill="#F1F1F1" height="48" rx="2.5" ry="2.5" style="stroke:#181818;stroke-width:0.5;" width="83.8438" x="1185" y="80.5"/><ellipse cx="1200" cy="96.5" fill="#B4A7E5" rx="11" ry="11" style="stroke:#181818;stroke-width:1;"/><path d="M1195.9219,92.2656 L1195.9219,90.1094 L1203.3125,90.1094 L1203.3125,92.2656 L1200.8438,92.2656 L1200.8438,100.3438 L1203.3125,100.3438 L1203.3125,102.5 L1195.9219,102.5 L1195.9219,100.3438 L1198.3906,100.3438 L1198.3906,92.2656 L1195.9219,92.2656 Z " fill="#000000"/><text fill="#000000" font-family="sans-serif" font-size="14" font-style="italic" lengthAdjust="spacing" textLength="51.8438" x="1214" y="101.3467">IGeo2D</text><line style="stroke:#181818;stroke-width:0.5;" x1="1186" x2="1267.8438" y1="112.5" y2="112.5"/><line style="stroke:#181818;stroke-width:0.5;" x1="1186" x2="1267.8438" y1="120.5" y2="120.5"/></g><!--class GeoShape2D--><g class="entity" data-entity="GeoShape2D" data-source-line="31" data-uid="ent0006" id="entity_GeoShape2D"><rect fill="#F1F1F1" height="96.8906" rx="2.5" ry="2.5" style="stroke:#181818;stroke-width:0.5;" width="589.5137" x="932" y="262"/><ellipse cx="1176.73" cy="278" fill="#B4A7E5" rx="11" ry="11" style="stroke:#181818;stroke-width:1;"/><path d="M1172.6519,273.7656 L1172.6519,271.6094 L1180.0425,271.6094 L1180.0425,273.7656 L1177.5737,273.7656 L1177.5737,281.8438 L1180.0425,281.8438 L1180.0425,284 L1172.6519,284 L1172.6519,281.8438 L1175.1206,281.8438 L1175.1206,273.7656 L1172.6519,273.7656 Z " fill="#000000"/><text fill="#000000" font-family="sans-serif" font-size="14" font-style="italic" lengthAdjust="spacing" textLength="91.5537" x="1197.23" y="282.8467">GeoShape2D</text><line style="stroke:#181818;stroke-width:0.5;" x1="933" x2="1520.5137" y1="294" y2="294"/><line style="stroke:#181818;stroke-width:0.5;" x1="933" x2="1520.5137" y1="302" y2="302"/><text fill="#000000" font-family="sans-serif" font-size="14" lengthAdjust="spacing" textLength="149.5977" x="938" y="318.9951">getCenter() : Point2D</text><text fill="#000000" font-family="sans-serif" font-size="14" lengthAdjust="spacing" textLength="577.5137" x="938" y="335.292">getMostCloseVertex(x: number, y: number) : {vertex: Point2D, distance: number}</text><text fill="#000000" font-family="sans-serif" font-size="14" lengthAdjust="spacing" textLength="415.2285" x="938" y="351.5889">getVertexesFrom(x: number, y: number) : Array&lt;Point2D&gt;</text></g><!--class GeoCurve2D--><g class="entity" data-entity="GeoCurve2D" data-source-line="38" data-uid="ent0008" id="entity_GeoCurve2D"><rect fill="#F1F1F1" height="48" rx="2.5" ry="2.5" style="stroke:#181818;stroke-width:0.5;" width="121.0176" x="1623.5" y="468"/><ellipse cx="1638.5" cy="484" fill="#B4A7E5" rx="11" ry="11" style="stroke:#181818;stroke-width:1;"/><path d="M1634.4219,479.7656 L1634.4219,477.6094 L1641.8125,477.6094 L1641.8125,479.7656 L1639.3438,479.7656 L1639.3438,487.8438 L1641.8125,487.8438 L1641.8125,490 L1634.4219,490 L1634.4219,487.8438 L1636.8906,487.8438 L1636.8906,479.7656 L1634.4219,479.7656 Z " fill="#000000"/><text fill="#000000" font-family="sans-serif" font-size="14" font-style="italic" lengthAdjust="spacing" textLength="89.0176" x="1652.5" y="488.8467">GeoCurve2D</text><line style="stroke:#181818;stroke-width:0.5;" x1="1624.5" x2="1743.5176" y1="500" y2="500"/><line style="stroke:#181818;stroke-width:0.5;" x1="1624.5" x2="1743.5176" y1="508" y2="508"/></g><!--class GeoPolygon2D--><g class="entity" data-entity="GeoPolygon2D" data-source-line="42" data-uid="ent0010" id="entity_GeoPolygon2D"><rect fill="#F1F1F1" height="64.2969" rx="2.5" ry="2.5" style="stroke:#181818;stroke-width:0.5;" width="217.7754" x="741" y="460"/><ellipse cx="794.0264" cy="476" fill="#B4A7E5" rx="11" ry="11" style="stroke:#181818;stroke-width:1;"/><path d="M789.9482,471.7656 L789.9482,469.6094 L797.3389,469.6094 L797.3389,471.7656 L794.8701,471.7656 L794.8701,479.8438 L797.3389,479.8438 L797.3389,482 L789.9482,482 L789.9482,479.8438 L792.417,479.8438 L792.417,471.7656 L789.9482,471.7656 Z " fill="#000000"/><text fill="#000000" font-family="sans-serif" font-size="14" font-style="italic" lengthAdjust="spacing" textLength="103.2227" x="814.5264" y="480.8467">GeoPolygon2D</text><line style="stroke:#181818;stroke-width:0.5;" x1="742" x2="957.7754" y1="492" y2="492"/><line style="stroke:#181818;stroke-width:0.5;" x1="742" x2="957.7754" y1="500" y2="500"/><text fill="#000000" font-family="sans-serif" font-size="14" lengthAdjust="spacing" textLength="205.7754" x="747" y="516.9951">getVertex(): Array&lt;Point2D&gt;</text></g><!--class ICircle2D--><g class="entity" data-entity="ICircle2D" data-source-line="48" data-uid="ent0012" id="entity_ICircle2D"><rect fill="#F1F1F1" height="80.5938" rx="2.5" ry="2.5" style="stroke:#181818;stroke-width:0.5;" width="123.5352" x="1464" y="451.5"/><ellipse cx="1491.6439" cy="467.5" fill="#FF8F00" rx="11" ry="11" style="stroke:#181818;stroke-width:1;"/><path d="M1492.8471,467.6406 Q1493.2064,467.7188 1493.4721,468 Q1493.7533,468.2656 1494.1439,469.0469 L1496.3783,473.5 L1493.6908,473.5 L1492.1908,470.375 Q1492.1283,470.2344 1492.0189,470 Q1491.3627,468.6094 1490.4721,468.6094 L1489.6908,468.6094 L1489.6908,473.5 L1487.2533,473.5 L1487.2533,461.1094 L1490.7846,461.1094 Q1493.1752,461.1094 1494.2064,461.9531 Q1495.2533,462.7969 1495.2533,464.7031 Q1495.2533,465.9844 1494.6283,466.75 Q1494.0189,467.5 1492.8471,467.6406 Z M1489.6908,463.1719 L1489.6908,466.5469 L1490.8471,466.5469 Q1491.8627,466.5469 1492.2846,466.1563 Q1492.7221,465.75 1492.7221,464.8438 Q1492.7221,463.9531 1492.2846,463.5625 Q1491.8627,463.1719 1490.8471,463.1719 L1489.6908,463.1719 Z " fill="#000000"/><text fill="#000000" font-family="sans-serif" font-size="14" lengthAdjust="spacing" textLength="63.4375" x="1508.4537" y="472.3467">ICircle2D</text><line style="stroke:#181818;stroke-width:0.5;" x1="1465" x2="1586.5352" y1="483.5" y2="483.5"/><text fill="#000000" font-family="sans-serif" font-size="14" lengthAdjust="spacing" textLength="76.2617" x="1470" y="500.4951">c : Point2D</text><text fill="#000000" font-family="sans-serif" font-size="14" lengthAdjust="spacing" textLength="111.5352" x="1470" y="516.792">radius : number</text><line style="stroke:#181818;stroke-width:0.5;" x1="1465" x2="1586.5352" y1="524.0938" y2="524.0938"/></g><!--class Circle2D--><g class="entity" data-entity="Circle2D" data-source-line="52" data-uid="ent0013" id="entity_Circle2D"><rect fill="#F1F1F1" height="64.2969" rx="2.5" ry="2.5" style="stroke:#181818;stroke-width:0.5;" width="440.5244" x="1384.5" y="649.5"/><ellipse cx="1570.8579" cy="665.5" fill="#ADD1B2" rx="11" ry="11" style="stroke:#181818;stroke-width:1;"/><path d="M1573.8267,671.1406 Q1573.2485,671.4375 1572.6079,671.5781 Q1571.9673,671.7344 1571.2642,671.7344 Q1568.7642,671.7344 1567.436,670.0938 Q1566.1235,668.4375 1566.1235,665.3125 Q1566.1235,662.1875 1567.436,660.5313 Q1568.7642,658.875 1571.2642,658.875 Q1571.9673,658.875 1572.6079,659.0313 Q1573.2642,659.1875 1573.8267,659.4844 L1573.8267,662.2031 Q1573.2017,661.625 1572.6079,661.3594 Q1572.0142,661.0781 1571.3892,661.0781 Q1570.0454,661.0781 1569.3579,662.1563 Q1568.6704,663.2188 1568.6704,665.3125 Q1568.6704,667.4063 1569.3579,668.4844 Q1570.0454,669.5469 1571.3892,669.5469 Q1572.0142,669.5469 1572.6079,669.2813 Q1573.2017,669 1573.8267,668.4219 L1573.8267,671.1406 Z " fill="#000000"/><text fill="#000000" font-family="sans-serif" font-size="14" lengthAdjust="spacing" textLength="59.3086" x="1591.3579" y="670.3467">Circle2D</text><line style="stroke:#181818;stroke-width:0.5;" x1="1385.5" x2="1824.0244" y1="681.5" y2="681.5"/><line style="stroke:#181818;stroke-width:0.5;" x1="1385.5" x2="1824.0244" y1="689.5" y2="689.5"/><text fill="#000000" font-family="sans-serif" font-size="14" lengthAdjust="spacing" textLength="428.5244" x="1390.5" y="706.4951">constructor(x: number, y: number, radius: number): Circle2D</text></g><!--class IPoint2D--><g class="entity" data-entity="IPoint2D" data-source-line="58" data-uid="ent0016" id="entity_IPoint2D"><rect fill="#F1F1F1" height="80.5938" rx="2.5" ry="2.5" style="stroke:#181818;stroke-width:0.5;" width="91.0762" x="1977.5" y="451.5"/><ellipse cx="1992.5" cy="467.5" fill="#FF8F00" rx="11" ry="11" style="stroke:#181818;stroke-width:1;"/><path d="M1993.7031,467.6406 Q1994.0625,467.7188 1994.3281,468 Q1994.6094,468.2656 1995,469.0469 L1997.2344,473.5 L1994.5469,473.5 L1993.0469,470.375 Q1992.9844,470.2344 1992.875,470 Q1992.2188,468.6094 1991.3281,468.6094 L1990.5469,468.6094 L1990.5469,473.5 L1988.1094,473.5 L1988.1094,461.1094 L1991.6406,461.1094 Q1994.0313,461.1094 1995.0625,461.9531 Q1996.1094,462.7969 1996.1094,464.7031 Q1996.1094,465.9844 1995.4844,466.75 Q1994.875,467.5 1993.7031,467.6406 Z M1990.5469,463.1719 L1990.5469,466.5469 L1991.7031,466.5469 Q1992.7188,466.5469 1993.1406,466.1563 Q1993.5781,465.75 1993.5781,464.8438 Q1993.5781,463.9531 1993.1406,463.5625 Q1992.7188,463.1719 1991.7031,463.1719 L1990.5469,463.1719 Z " fill="#000000"/><text fill="#000000" font-family="sans-serif" font-size="14" lengthAdjust="spacing" textLength="59.0762" x="2006.5" y="472.3467">IPoint2D</text><line style="stroke:#181818;stroke-width:0.5;" x1="1978.5" x2="2067.5762" y1="483.5" y2="483.5"/><text fill="#000000" font-family="sans-serif" font-size="14" lengthAdjust="spacing" textLength="72.0918" x="1983.5" y="500.4951">x: number</text><text fill="#000000" font-family="sans-serif" font-size="14" lengthAdjust="spacing" textLength="72.0918" x="1983.5" y="516.792">y: number</text><line style="stroke:#181818;stroke-width:0.5;" x1="1978.5" x2="2067.5762" y1="524.0938" y2="524.0938"/></g><!--class Point2D--><g class="entity" data-entity="Point2D" data-source-line="62" data-uid="ent0017" id="entity_Point2D"><rect fill="#F1F1F1" height="64.2969" rx="2.5" ry="2.5" style="stroke:#181818;stroke-width:0.5;" width="324.6279" x="1860.5" y="649.5"/><ellipse cx="1991.0903" cy="665.5" fill="#ADD1B2" rx="11" ry="11" style="stroke:#181818;stroke-width:1;"/><path d="M1994.0591,671.1406 Q1993.481,671.4375 1992.8403,671.5781 Q1992.1997,671.7344 1991.4966,671.7344 Q1988.9966,671.7344 1987.6685,670.0938 Q1986.356,668.4375 1986.356,665.3125 Q1986.356,662.1875 1987.6685,660.5313 Q1988.9966,658.875 1991.4966,658.875 Q1992.1997,658.875 1992.8403,659.0313 Q1993.4966,659.1875 1994.0591,659.4844 L1994.0591,662.2031 Q1993.4341,661.625 1992.8403,661.3594 Q1992.2466,661.0781 1991.6216,661.0781 Q1990.2778,661.0781 1989.5903,662.1563 Q1988.9028,663.2188 1988.9028,665.3125 Q1988.9028,667.4063 1989.5903,668.4844 Q1990.2778,669.5469 1991.6216,669.5469 Q1992.2466,669.5469 1992.8403,669.2813 Q1993.4341,669 1994.0591,668.4219 L1994.0591,671.1406 Z " fill="#000000"/><text fill="#000000" font-family="sans-serif" font-size="14" lengthAdjust="spacing" textLength="54.9473" x="2011.5903" y="670.3467">Point2D</text><line style="stroke:#181818;stroke-width:0.5;" x1="1861.5" x2="2184.1279" y1="681.5" y2="681.5"/><line style="stroke:#181818;stroke-width:0.5;" x1="1861.5" x2="2184.1279" y1="689.5" y2="689.5"/><text fill="#000000" font-family="sans-serif" font-size="14" lengthAdjust="spacing" textLength="312.6279" x="1866.5" y="706.4951">constructor(x: number, y: number) : Point2D</text></g><!--class ILine2D--><g class="entity" data-entity="ILine2D" data-source-line="68" data-uid="ent0020" id="entity_ILine2D"><rect fill="#F1F1F1" height="80.5938" rx="2.5" ry="2.5" style="stroke:#181818;stroke-width:0.5;" width="89.1299" x="124.5" y="451.5"/><ellipse cx="141.362" cy="467.5" fill="#FF8F00" rx="11" ry="11" style="stroke:#181818;stroke-width:1;"/><path d="M142.5651,467.6406 Q142.9245,467.7188 143.1901,468 Q143.4713,468.2656 143.862,469.0469 L146.0963,473.5 L143.4088,473.5 L141.9088,470.375 Q141.8463,470.2344 141.737,470 Q141.0807,468.6094 140.1901,468.6094 L139.4088,468.6094 L139.4088,473.5 L136.9713,473.5 L136.9713,461.1094 L140.5026,461.1094 Q142.8932,461.1094 143.9245,461.9531 Q144.9713,462.7969 144.9713,464.7031 Q144.9713,465.9844 144.3463,466.75 Q143.737,467.5 142.5651,467.6406 Z M139.4088,463.1719 L139.4088,466.5469 L140.5651,466.5469 Q141.5807,466.5469 142.0026,466.1563 Q142.4401,465.75 142.4401,464.8438 Q142.4401,463.9531 142.0026,463.5625 Q141.5807,463.1719 140.5651,463.1719 L139.4088,463.1719 Z " fill="#000000"/><text fill="#000000" font-family="sans-serif" font-size="14" lengthAdjust="spacing" textLength="52.9922" x="155.7757" y="472.3467">ILine2D</text><line style="stroke:#181818;stroke-width:0.5;" x1="125.5" x2="212.6299" y1="483.5" y2="483.5"/><text fill="#000000" font-family="sans-serif" font-size="14" lengthAdjust="spacing" textLength="76.8223" x="130.5" y="500.4951">a: IPoint2D</text><text fill="#000000" font-family="sans-serif" font-size="14" lengthAdjust="spacing" textLength="77.1299" x="130.5" y="516.792">b: IPoint2D</text><line style="stroke:#181818;stroke-width:0.5;" x1="125.5" x2="212.6299" y1="524.0938" y2="524.0938"/></g><!--class Line2D--><g class="entity" data-entity="Line2D" data-source-line="72" data-uid="ent0021" id="entity_Line2D"><rect fill="#F1F1F1" height="64.2969" rx="2.5" ry="2.5" style="stroke:#181818;stroke-width:0.5;" width="323.8623" x="7" y="649.5"/><ellipse cx="140.2495" cy="665.5" fill="#ADD1B2" rx="11" ry="11" style="stroke:#181818;stroke-width:1;"/><path d="M143.2183,671.1406 Q142.6401,671.4375 141.9995,671.5781 Q141.3589,671.7344 140.6558,671.7344 Q138.1558,671.7344 136.8276,670.0938 Q135.5151,668.4375 135.5151,665.3125 Q135.5151,662.1875 136.8276,660.5313 Q138.1558,658.875 140.6558,658.875 Q141.3589,658.875 141.9995,659.0313 Q142.6558,659.1875 143.2183,659.4844 L143.2183,662.2031 Q142.5933,661.625 141.9995,661.3594 Q141.4058,661.0781 140.7808,661.0781 Q139.437,661.0781 138.7495,662.1563 Q138.062,663.2188 138.062,665.3125 Q138.062,667.4063 138.7495,668.4844 Q139.437,669.5469 140.7808,669.5469 Q141.4058,669.5469 141.9995,669.2813 Q142.5933,669 143.2183,668.4219 L143.2183,671.1406 Z " fill="#000000"/><text fill="#000000" font-family="sans-serif" font-size="14" lengthAdjust="spacing" textLength="48.8633" x="160.7495" y="670.3467">Line2D</text><line style="stroke:#181818;stroke-width:0.5;" x1="8" x2="329.8623" y1="681.5" y2="681.5"/><line style="stroke:#181818;stroke-width:0.5;" x1="8" x2="329.8623" y1="689.5" y2="689.5"/><text fill="#000000" font-family="sans-serif" font-size="14" lengthAdjust="spacing" textLength="311.8623" x="13" y="706.4951">constructor(a: IPoint2D, b: IPoint2D): Line2D</text></g><!--class IRay2D--><g class="entity" data-entity="IRay2D" data-source-line="78" data-uid="ent0024" id="entity_IRay2D"><rect fill="#F1F1F1" height="145.7813" rx="2.5" ry="2.5" style="stroke:#181818;stroke-width:0.5;" width="132.2441" x="482" y="419"/><ellipse cx="519.4262" cy="435" fill="#FF8F00" rx="11" ry="11" style="stroke:#181818;stroke-width:1;"/><path d="M520.6293,435.1406 Q520.9887,435.2188 521.2543,435.5 Q521.5355,435.7656 521.9262,436.5469 L524.1605,441 L521.473,441 L519.973,437.875 Q519.9105,437.7344 519.8012,437.5 Q519.1449,436.1094 518.2543,436.1094 L517.473,436.1094 L517.473,441 L515.0355,441 L515.0355,428.6094 L518.5668,428.6094 Q520.9574,428.6094 521.9887,429.4531 Q523.0355,430.2969 523.0355,432.2031 Q523.0355,433.4844 522.4105,434.25 Q521.8012,435 520.6293,435.1406 Z M517.473,430.6719 L517.473,434.0469 L518.6293,434.0469 Q519.6449,434.0469 520.0668,433.6563 Q520.5043,433.25 520.5043,432.3438 Q520.5043,431.4531 520.0668,431.0625 Q519.6449,430.6719 518.6293,430.6719 L517.473,430.6719 Z " fill="#000000"/><text fill="#000000" font-family="sans-serif" font-size="14" lengthAdjust="spacing" textLength="50.4082" x="538.4098" y="439.8467">IRay2D</text><line style="stroke:#181818;stroke-width:0.5;" x1="483" x2="613.2441" y1="451" y2="451"/><text fill="#000000" font-family="sans-serif" font-size="14" lengthAdjust="spacing" textLength="114.2012" x="488" y="467.9951">start   : IPoint2D</text><text fill="#000000" font-family="sans-serif" font-size="14" lengthAdjust="spacing" textLength="116.9082" x="488" y="484.292">mid     : IPoint2D</text><text fill="#000000" font-family="sans-serif" font-size="14" lengthAdjust="spacing" textLength="115.999" x="488" y="500.5889">angle   : number</text><text fill="#000000" font-family="sans-serif" font-size="14" lengthAdjust="spacing" textLength="120.2441" x="488" y="516.8857">cAngle  : number</text><text fill="#000000" font-family="sans-serif" font-size="14" lengthAdjust="spacing" textLength="108.3291" x="488" y="533.1826">angleStr: string</text><text fill="#000000" font-family="sans-serif" font-size="14" lengthAdjust="spacing" textLength="117.332" x="488" y="549.4795">length  : number</text><line style="stroke:#181818;stroke-width:0.5;" x1="483" x2="613.2441" y1="556.7813" y2="556.7813"/></g><!--class Ray2D--><g class="entity" data-entity="Ray2D" data-source-line="86" data-uid="ent0025" id="entity_Ray2D"><rect fill="#F1F1F1" height="64.2969" rx="2.5" ry="2.5" style="stroke:#181818;stroke-width:0.5;" width="362.834" x="366.5" y="649.5"/><ellipse cx="520.5273" cy="665.5" fill="#ADD1B2" rx="11" ry="11" style="stroke:#181818;stroke-width:1;"/><path d="M523.4961,671.1406 Q522.918,671.4375 522.2773,671.5781 Q521.6367,671.7344 520.9336,671.7344 Q518.4336,671.7344 517.1055,670.0938 Q515.793,668.4375 515.793,665.3125 Q515.793,662.1875 517.1055,660.5313 Q518.4336,658.875 520.9336,658.875 Q521.6367,658.875 522.2773,659.0313 Q522.9336,659.1875 523.4961,659.4844 L523.4961,662.2031 Q522.8711,661.625 522.2773,661.3594 Q521.6836,661.0781 521.0586,661.0781 Q519.7148,661.0781 519.0273,662.1563 Q518.3398,663.2188 518.3398,665.3125 Q518.3398,667.4063 519.0273,668.4844 Q519.7148,669.5469 521.0586,669.5469 Q521.6836,669.5469 522.2773,669.2813 Q522.8711,669 523.4961,668.4219 L523.4961,671.1406 Z " fill="#000000"/><text fill="#000000" font-family="sans-serif" font-size="14" lengthAdjust="spacing" textLength="46.2793" x="541.0273" y="670.3467">Ray2D</text><line style="stroke:#181818;stroke-width:0.5;" x1="367.5" x2="728.334" y1="681.5" y2="681.5"/><line style="stroke:#181818;stroke-width:0.5;" x1="367.5" x2="728.334" y1="689.5" y2="689.5"/><text fill="#000000" font-family="sans-serif" font-size="14" lengthAdjust="spacing" textLength="350.834" x="372.5" y="706.4951">constructor(start: IPoint2D, mid: IPoint2D): Ray2D</text></g><!--class IRectangle2D--><g class="entity" data-entity="IRectangle2D" data-source-line="92" data-uid="ent0028" id="entity_IRectangle2D"><rect fill="#F1F1F1" height="113.1875" rx="2.5" ry="2.5" style="stroke:#181818;stroke-width:0.5;" width="126.1855" x="994" y="435.5"/><ellipse cx="1009" cy="451.5" fill="#FF8F00" rx="11" ry="11" style="stroke:#181818;stroke-width:1;"/><path d="M1010.2031,451.6406 Q1010.5625,451.7188 1010.8281,452 Q1011.1094,452.2656 1011.5,453.0469 L1013.7344,457.5 L1011.0469,457.5 L1009.5469,454.375 Q1009.4844,454.2344 1009.375,454 Q1008.7188,452.6094 1007.8281,452.6094 L1007.0469,452.6094 L1007.0469,457.5 L1004.6094,457.5 L1004.6094,445.1094 L1008.1406,445.1094 Q1010.5313,445.1094 1011.5625,445.9531 Q1012.6094,446.7969 1012.6094,448.7031 Q1012.6094,449.9844 1011.9844,450.75 Q1011.375,451.5 1010.2031,451.6406 Z M1007.0469,447.1719 L1007.0469,450.5469 L1008.2031,450.5469 Q1009.2188,450.5469 1009.6406,450.1563 Q1010.0781,449.75 1010.0781,448.8438 Q1010.0781,447.9531 1009.6406,447.5625 Q1009.2188,447.1719 1008.2031,447.1719 L1007.0469,447.1719 Z " fill="#000000"/><text fill="#000000" font-family="sans-serif" font-size="14" lengthAdjust="spacing" textLength="94.1855" x="1023" y="456.3467">IRectangle2D</text><line style="stroke:#181818;stroke-width:0.5;" x1="995" x2="1119.1855" y1="467.5" y2="467.5"/><text fill="#000000" font-family="sans-serif" font-size="14" lengthAdjust="spacing" textLength="94.3428" x="1000" y="484.4951">x     : number</text><text fill="#000000" font-family="sans-serif" font-size="14" lengthAdjust="spacing" textLength="94.3428" x="1000" y="500.792">y     : number</text><text fill="#000000" font-family="sans-serif" font-size="14" lengthAdjust="spacing" textLength="106.8457" x="1000" y="517.0889">width : number</text><text fill="#000000" font-family="sans-serif" font-size="14" lengthAdjust="spacing" textLength="108.4316" x="1000" y="533.3857">height: number</text><line style="stroke:#181818;stroke-width:0.5;" x1="995" x2="1119.1855" y1="540.6875" y2="540.6875"/></g><!--class Rectangle2D--><g class="entity" data-entity="Rectangle2D" data-source-line="98" data-uid="ent0029" id="entity_Rectangle2D"><rect fill="#F1F1F1" height="113.1875" rx="2.5" ry="2.5" style="stroke:#181818;stroke-width:0.5;" width="583.915" x="765" y="625"/><ellipse cx="1007.6792" cy="641" fill="#ADD1B2" rx="11" ry="11" style="stroke:#181818;stroke-width:1;"/><path d="M1010.6479,646.6406 Q1010.0698,646.9375 1009.4292,647.0781 Q1008.7886,647.2344 1008.0854,647.2344 Q1005.5854,647.2344 1004.2573,645.5938 Q1002.9448,643.9375 1002.9448,640.8125 Q1002.9448,637.6875 1004.2573,636.0313 Q1005.5854,634.375 1008.0854,634.375 Q1008.7886,634.375 1009.4292,634.5313 Q1010.0854,634.6875 1010.6479,634.9844 L1010.6479,637.7031 Q1010.0229,637.125 1009.4292,636.8594 Q1008.8354,636.5781 1008.2104,636.5781 Q1006.8667,636.5781 1006.1792,637.6563 Q1005.4917,638.7188 1005.4917,640.8125 Q1005.4917,642.9063 1006.1792,643.9844 Q1006.8667,645.0469 1008.2104,645.0469 Q1008.8354,645.0469 1009.4292,644.7813 Q1010.0229,644.5 1010.6479,643.9219 L1010.6479,646.6406 Z " fill="#000000"/><text fill="#000000" font-family="sans-serif" font-size="14" lengthAdjust="spacing" textLength="90.0566" x="1028.1792" y="645.8467">Rectangle2D</text><line style="stroke:#181818;stroke-width:0.5;" x1="766" x2="1347.915" y1="657" y2="657"/><text fill="#000000" font-family="sans-serif" font-size="14" lengthAdjust="spacing" textLength="113.6064" x="771" y="673.9951">center : Point2D</text><text fill="#000000" font-family="sans-serif" font-size="14" lengthAdjust="spacing" textLength="177.8643" x="771" y="690.292">vertexs: Array&lt;Point2D&gt;</text><text fill="#000000" font-family="sans-serif" font-size="14" lengthAdjust="spacing" textLength="164.3223" x="771" y="706.5889">sides  : Array&lt;Line2D&gt;</text><line style="stroke:#181818;stroke-width:0.5;" x1="766" x2="1347.915" y1="713.8906" y2="713.8906"/><text fill="#000000" font-family="sans-serif" font-size="14" lengthAdjust="spacing" textLength="571.915" x="771" y="730.8857">constructor(x: number, y: number, width: number, height: number): Rectangle2D</text></g><!--reverse link IGeo2D to GeoShape2D--><g class="link" data-entity-1="IGeo2D" data-entity-2="GeoShape2D" data-source-line="36" data-uid="lnk7" id="link_IGeo2D_GeoShape2D"><path codeLine="36" d="M1227,146.5 C1227,178.7 1227,219.96 1227,261.89" fill="none" id="IGeo2D-backto-GeoShape2D" style="stroke:#181818;stroke-width:1;"/><polygon fill="none" points="1227,128.5,1221,146.5,1233,146.5,1227,128.5" style="stroke:#181818;stroke-width:1;"/></g><!--reverse link GeoShape2D to GeoCurve2D--><g class="link" data-entity-1="GeoShape2D" data-entity-2="GeoCurve2D" data-source-line="40" data-uid="lnk9" id="link_GeoShape2D_GeoCurve2D"><path codeLine="40" d="M1477.5868,364.3618 C1527.4168,379.5618 1561.25,393.92 1606,419 C1628.51,431.62 1649.72,451.97 1664.33,467.82" fill="none" id="GeoShape2D-backto-GeoCurve2D" style="stroke:#181818;stroke-width:1;"/><polygon fill="none" points="1460.37,359.11,1475.8362,370.1007,1479.3374,358.6228,1460.37,359.11" style="stroke:#181818;stroke-width:1;"/></g><!--reverse link GeoShape2D to GeoPolygon2D--><g class="link" data-entity-1="GeoShape2D" data-entity-2="GeoPolygon2D" data-source-line="45" data-uid="lnk11" id="link_GeoShape2D_GeoPolygon2D"><path codeLine="45" d="M1092.512,366.0721 C1050.382,383.8921 1019.42,397.93 977,419 C951.8,431.51 924.58,446.71 901.82,459.91" fill="none" id="GeoShape2D-backto-GeoPolygon2D" style="stroke:#181818;stroke-width:1;"/><polygon fill="none" points="1109.09,359.06,1090.1746,360.5461,1094.8494,371.5981,1109.09,359.06" style="stroke:#181818;stroke-width:1;"/></g><!--reverse link GeoCurve2D to Circle2D--><g class="link" data-entity-1="GeoCurve2D" data-entity-2="Circle2D" data-source-line="55" data-uid="lnk14" id="link_GeoCurve2D_Circle2D"><path codeLine="55" d="M1667.1628,532.9585 C1653.0228,566.5285 1633.91,611.9 1618.13,649.34" fill="none" id="GeoCurve2D-backto-Circle2D" style="stroke:#181818;stroke-width:1;stroke-dasharray:7,7;"/><polygon fill="none" points="1674.15,516.37,1661.6333,530.6294,1672.6923,535.2876,1674.15,516.37" style="stroke:#181818;stroke-width:1;"/></g><!--reverse link ICircle2D to Circle2D--><g class="link" data-entity-1="ICircle2D" data-entity-2="Circle2D" data-source-line="56" data-uid="lnk15" id="link_ICircle2D_Circle2D"><path codeLine="56" d="M1549.741,549.3469 C1564.421,584.1769 1578.46,617.5 1591.92,649.46" fill="none" id="ICircle2D-backto-Circle2D" style="stroke:#181818;stroke-width:1;stroke-dasharray:7,7;"/><polygon fill="none" points="1542.75,532.76,1544.212,551.6773,1555.27,547.0166,1542.75,532.76" style="stroke:#181818;stroke-width:1;"/></g><!--reverse link IPoint2D to Point2D--><g class="link" data-entity-1="IPoint2D" data-entity-2="Point2D" data-source-line="65" data-uid="lnk18" id="link_IPoint2D_Point2D"><path codeLine="65" d="M2023,550.76 C2023,585.59 2023,617.5 2023,649.46" fill="none" id="IPoint2D-backto-Point2D" style="stroke:#181818;stroke-width:1;stroke-dasharray:7,7;"/><polygon fill="none" points="2023,532.76,2017,550.76,2029,550.76,2023,532.76" style="stroke:#181818;stroke-width:1;"/></g><!--reverse link GeoCurve2D to Point2D--><g class="link" data-entity-1="GeoCurve2D" data-entity-2="Point2D" data-source-line="66" data-uid="lnk19" id="link_GeoCurve2D_Point2D"><path codeLine="66" d="M1741.6608,524.8927 C1802.3308,558.4527 1899.03,611.93 1966.83,649.43" fill="none" id="GeoCurve2D-backto-Point2D" style="stroke:#181818;stroke-width:1;stroke-dasharray:7,7;"/><polygon fill="none" points="1725.91,516.18,1738.7566,530.143,1744.5651,519.6424,1725.91,516.18" style="stroke:#181818;stroke-width:1;"/></g><!--reverse link ILine2D to Line2D--><g class="link" data-entity-1="ILine2D" data-entity-2="Line2D" data-source-line="75" data-uid="lnk22" id="link_ILine2D_Line2D"><path codeLine="75" d="M169,550.76 C169,585.59 169,617.5 169,649.46" fill="none" id="ILine2D-backto-Line2D" style="stroke:#181818;stroke-width:1;stroke-dasharray:7,7;"/><polygon fill="none" points="169,532.76,163,550.76,175,550.76,169,532.76" style="stroke:#181818;stroke-width:1;"/></g><!--reverse link GeoPolygon2D to Line2D--><g class="link" data-entity-1="GeoPolygon2D" data-entity-2="Line2D" data-source-line="76" data-uid="lnk23" id="link_GeoPolygon2D_Line2D"><path codeLine="76" d="M745.7012,529.8935 C705.8312,543.4735 674.86,553.16 631,565 C507.29,598.39 473.02,592.76 349,625 C321.31,632.2 291.52,640.96 264.3,649.38" fill="none" id="GeoPolygon2D-backto-Line2D" style="stroke:#181818;stroke-width:1;stroke-dasharray:7,7;"/><polygon fill="none" points="762.74,524.09,743.7667,524.2139,747.6358,535.5731,762.74,524.09" style="stroke:#181818;stroke-width:1;"/></g><!--reverse link IRay2D to Ray2D--><g class="link" data-entity-1="IRay2D" data-entity-2="Ray2D" data-source-line="89" data-uid="lnk26" id="link_IRay2D_Ray2D"><path codeLine="89" d="M548,583.22 C548,612.32 548,626.33 548,649.22" fill="none" id="IRay2D-backto-Ray2D" style="stroke:#181818;stroke-width:1;stroke-dasharray:7,7;"/><polygon fill="none" points="548,565.22,542,583.22,554,583.22,548,565.22" style="stroke:#181818;stroke-width:1;"/></g><!--reverse link GeoPolygon2D to Ray2D--><g class="link" data-entity-1="GeoPolygon2D" data-entity-2="Ray2D" data-source-line="90" data-uid="lnk27" id="link_GeoPolygon2D_Ray2D"><path codeLine="90" d="M784.4983,533.6655 C728.5683,568.3955 653.96,614.71 598.08,649.41" fill="none" id="GeoPolygon2D-backto-Ray2D" style="stroke:#181818;stroke-width:1;stroke-dasharray:7,7;"/><polygon fill="none" points="799.79,524.17,781.3331,528.5682,787.6634,538.7627,799.79,524.17" style="stroke:#181818;stroke-width:1;"/></g><!--reverse link GeoPolygon2D to Rectangle2D--><g class="link" data-entity-1="GeoPolygon2D" data-entity-2="Rectangle2D" data-source-line="99" data-uid="lnk30" id="link_GeoPolygon2D_Rectangle2D"><path d="M887.5069,537.1686 C914.5669,564.4886 945.67,591.94 983.65,624.72" fill="none" id="GeoPolygon2D-backto-Rectangle2D" style="stroke:#181818;stroke-width:1;stroke-dasharray:7,7;"/><polygon fill="none" points="874.84,524.38,883.244,541.3909,891.7698,532.9463,874.84,524.38" style="stroke:#181818;stroke-width:1;"/></g><!--reverse link GeoPolygon2D to Rectangle2D--><g class="link" data-entity-1="GeoPolygon2D" data-entity-2="Rectangle2D" data-source-line="106" data-uid="lnk33" id="link_GeoPolygon2D_Rectangle2D"><path codeLine="106" d="M908.7118,535.5554 C942.2518,562.9454 973.72,592.06 1008.15,624.97" fill="none" id="GeoPolygon2D-backto-Rectangle2D-1" style="stroke:#181818;stroke-width:1;stroke-dasharray:7,7;"/><polygon fill="none" points="894.77,524.17,904.9167,540.2026,912.5069,530.9081,894.77,524.17" style="stroke:#181818;stroke-width:1;"/></g><!--reverse link IRectangle2D to Rectangle2D--><g class="link" data-entity-1="IRectangle2D" data-entity-2="Rectangle2D" data-source-line="99" data-uid="lnk31" id="link_IRectangle2D_Rectangle2D"><path d="M1044.2518,566.7234 C1042.9418,590.7934 1043.92,600.92 1045.24,624.97" fill="none" id="IRectangle2D-backto-Rectangle2D" style="stroke:#181818;stroke-width:1;stroke-dasharray:7,7;"/><polygon fill="none" points="1045.23,548.75,1038.2607,566.3973,1050.2429,567.0495,1045.23,548.75" style="stroke:#181818;stroke-width:1;"/></g><!--reverse link IRectangle2D to Rectangle2D--><g class="link" data-entity-1="IRectangle2D" data-entity-2="Rectangle2D" data-source-line="105" data-uid="lnk32" id="link_IRectangle2D_Rectangle2D"><path codeLine="105" d="M1070.4977,566.7201 C1071.8877,590.7901 1070.85,600.92 1069.45,624.97" fill="none" id="IRectangle2D-backto-Rectangle2D-1" style="stroke:#181818;stroke-width:1;stroke-dasharray:7,7;"/><polygon fill="none" points="1069.46,548.75,1064.5077,567.066,1076.4878,566.3741,1069.46,548.75" style="stroke:#181818;stroke-width:1;"/></g><!--SRC=[ZLHDZzem43sJN-7ZhiIkLDeJGYj5e5Aa5bZOLhidb4s6O2cnaMqeYEM_rr-n9q3LvZGVdkVt9fu1jgl9youhvboIKz9v_fcELf-MByIRlUceCJylWldbvPisPul9U3MVchFfwsIvUbtDPyjWJzEnjzzG_Ct6pqb2cGAnpd8WavIL5PZBkQ1fMVM9vlGE8kciQzNoTNvKYbOU-stK1UnvjOVPLb7E3BfKcL2n65X1I7GBkbuJ38Mnni1x8npHWUKcsq9lP91BK4CmkRjx3J7d-fm-Ri8_k5J3Yalu1KB1uUxGtD0bnyOqDQUzpOVYBYcevijoQ4wTBPw30VbLyFglOAaGsN7WaPwq5iUV33uU7X3p2pt3dTWxFUS4oMkAVFgYQCwhOybPQ8ENUN-3n0tCKAsxBI3deY2J8HLvvVkQuswAhA0x6NuHqP1vbKb9MXMSIILskUBYPdkwnC64TlL3kQFOT67myVWOKv7LHIBGzZJ9IG_38RwgupNTSFBVRF5hqd-ngVGacimbwoOUk7sdpBSdwmUcIUSzEf5TF8l9eRekGNMwVRx0yFEc_ImJ5qXQxmGd0iD5TdINsXabPYuZpveM5XBHrKtExDA84snYkTiaw8suOqkbbuGMGrcPT2fWfTeGFEjEUY21bVkb4TLhDYtzjigeT-L8lSjSYtVng1roPLcwomzUQtX15_vlMcZsqTy0BJVg-fbXM5flAwZrXfAjgUjUNPxRBOQdpkqbUJNF7KaBa2Hi6_T7dvB_6K4h8Rfj1QQbY9JjBF9T1sFWLdzHzWy0]--></g></svg>