<svg xmlns="http://www.w3.org/2000/svg" xmlns:xlink="http://www.w3.org/1999/xlink" contentStyleType="text/css" data-diagram-type="CLASS" height="399px" preserveAspectRatio="none" style="width:664px;height:399px;background:#FFFFFF;" version="1.1" viewBox="0 0 664 399" width="664px" zoomAndPan="magnify"><defs/><g><!--class abstract--><g class="entity" data-entity="abstract" data-source-line="2" data-uid="ent0002" id="entity_abstract"><rect fill="#F1F1F1" height="48" rx="2.5" ry="2.5" style="stroke:#181818;stroke-width:0.5;" width="89.7705" x="7" y="7"/><ellipse cx="22" cy="23" fill="#A9DCDF" rx="11" ry="11" style="stroke:#181818;stroke-width:1;"/><path d="M22.1094,18.3438 L20.9531,23.4219 L23.2813,23.4219 L22.1094,18.3438 Z M20.625,16.1094 L23.6094,16.1094 L26.9688,28.5 L24.5156,28.5 L23.75,25.4375 L20.4688,25.4375 L19.7188,28.5 L17.2813,28.5 L20.625,16.1094 Z " fill="#000000"/><text fill="#000000" font-family="sans-serif" font-size="14" font-style="italic" lengthAdjust="spacing" textLength="57.7705" x="36" y="27.8467">abstract</text><line style="stroke:#181818;stroke-width:0.5;" x1="8" x2="95.7705" y1="39" y2="39"/><line style="stroke:#181818;stroke-width:0.5;" x1="8" x2="95.7705" y1="47" y2="47"/></g><!--class abstract class--><g class="entity" data-entity="abstract class" data-source-line="3" data-uid="ent0003" id="entity_abstract class"><rect fill="#F1F1F1" height="48" rx="2.5" ry="2.5" style="stroke:#181818;stroke-width:0.5;" width="128.9746" x="132.5" y="7"/><ellipse cx="147.5" cy="23" fill="#A9DCDF" rx="11" ry="11" style="stroke:#181818;stroke-width:1;"/><path d="M147.6094,18.3438 L146.4531,23.4219 L148.7813,23.4219 L147.6094,18.3438 Z M146.125,16.1094 L149.1094,16.1094 L152.4688,28.5 L150.0156,28.5 L149.25,25.4375 L145.9688,25.4375 L145.2188,28.5 L142.7813,28.5 L146.125,16.1094 Z " fill="#000000"/><text fill="#000000" font-family="sans-serif" font-size="14" font-style="italic" lengthAdjust="spacing" textLength="96.9746" x="161.5" y="27.8467">abstract class</text><line style="stroke:#181818;stroke-width:0.5;" x1="133.5" x2="260.4746" y1="39" y2="39"/><line style="stroke:#181818;stroke-width:0.5;" x1="133.5" x2="260.4746" y1="47" y2="47"/></g><!--class annotation--><g class="entity" data-entity="annotation" data-source-line="4" data-uid="ent0004" id="entity_annotation"><rect fill="#F1F1F1" height="48" rx="2.5" ry="2.5" style="stroke:#181818;stroke-width:0.5;" width="107.7764" x="297" y="7"/><ellipse cx="312" cy="23" fill="#E3664A" rx="11" ry="11" style="stroke:#181818;stroke-width:1;"/><path d="M314.0781,23.4688 Q314.0781,22.5313 313.6563,22 Q313.2344,21.4688 312.4844,21.4688 Q311.75,21.4688 311.3281,22 Q310.9219,22.5313 310.9219,23.4688 Q310.9219,24.4219 311.3281,24.9531 Q311.75,25.4844 312.4844,25.4844 Q313.2344,25.4844 313.6563,24.9531 Q314.0781,24.4219 314.0781,23.4688 Z M315.625,26.875 L314,26.875 L314,26.2031 Q313.6719,26.6406 313.25,26.8438 Q312.8281,27.0469 312.2188,27.0469 Q310.8594,27.0469 310.0313,26.0781 Q309.2031,25.0938 309.2031,23.4688 Q309.2031,21.875 310.0313,20.9063 Q310.8594,19.9219 312.2188,19.9219 Q312.8125,19.9219 313.2656,20.125 Q313.7188,20.3281 314,20.7188 L314,20.375 Q314,19.25 313.375,18.6406 Q312.75,18.0156 311.6094,18.0156 Q309.8906,18.0156 308.7969,19.5469 Q307.7031,21.0625 307.7031,23.5 Q307.7031,26.0469 308.9531,27.5469 Q310.2188,29.0469 312.3281,29.0469 Q312.9844,29.0469 313.6094,28.8594 Q314.2344,28.6719 314.8125,28.2813 L315.5781,29.7344 Q314.9063,30.1875 314.1094,30.4063 Q313.3125,30.6406 312.4063,30.6406 Q309.5,30.6406 307.7656,28.7031 Q306.0469,26.7813 306.0469,23.5 Q306.0469,20.2813 307.5938,18.3594 Q309.1563,16.4219 311.7188,16.4219 Q313.5156,16.4219 314.5625,17.5156 Q315.625,18.6094 315.625,20.4844 L315.625,26.875 Z " fill="#000000"/><text fill="#000000" font-family="sans-serif" font-size="14" lengthAdjust="spacing" textLength="75.7764" x="326" y="27.8467">annotation</text><line style="stroke:#181818;stroke-width:0.5;" x1="298" x2="403.7764" y1="39" y2="39"/><line style="stroke:#181818;stroke-width:0.5;" x1="298" x2="403.7764" y1="47" y2="47"/></g><!--entity circle--><g class="entity" data-entity="circle" data-source-line="5" data-uid="ent0005" id="entity_circle"><ellipse cx="467" cy="31" fill="#F1F1F1" rx="8" ry="8" style="stroke:#181818;stroke-width:0.5;"/><text fill="#000000" font-family="sans-serif" font-size="14" lengthAdjust="spacing" textLength="37.543" x="448.2285" y="60.9951">circle</text></g><!--entity circle_short_form--><g class="entity" data-entity="circle_short_form" data-source-line="6" data-uid="ent0006" id="entity_circle_short_form"><ellipse cx="597" cy="31" fill="#F1F1F1" rx="8" ry="8" style="stroke:#181818;stroke-width:0.5;"/><text fill="#000000" font-family="sans-serif" font-size="14" lengthAdjust="spacing" textLength="120.4082" x="536.7959" y="60.9951">circle_short_form</text></g><!--class class--><g class="entity" data-entity="class" data-source-line="7" data-uid="ent0007" id="entity_class"><rect fill="#F1F1F1" height="48" rx="2.5" ry="2.5" style="stroke:#181818;stroke-width:0.5;" width="66.7539" x="18.5" y="124"/><ellipse cx="33.5" cy="140" fill="#ADD1B2" rx="11" ry="11" style="stroke:#181818;stroke-width:1;"/><path d="M36.4688,145.6406 Q35.8906,145.9375 35.25,146.0781 Q34.6094,146.2344 33.9063,146.2344 Q31.4063,146.2344 30.0781,144.5938 Q28.7656,142.9375 28.7656,139.8125 Q28.7656,136.6875 30.0781,135.0313 Q31.4063,133.375 33.9063,133.375 Q34.6094,133.375 35.25,133.5313 Q35.9063,133.6875 36.4688,133.9844 L36.4688,136.7031 Q35.8438,136.125 35.25,135.8594 Q34.6563,135.5781 34.0313,135.5781 Q32.6875,135.5781 32,136.6563 Q31.3125,137.7188 31.3125,139.8125 Q31.3125,141.9063 32,142.9844 Q32.6875,144.0469 34.0313,144.0469 Q34.6563,144.0469 35.25,143.7813 Q35.8438,143.5 36.4688,142.9219 L36.4688,145.6406 Z " fill="#000000"/><text fill="#000000" font-family="sans-serif" font-size="14" lengthAdjust="spacing" textLength="34.7539" x="47.5" y="144.8467">class</text><line style="stroke:#181818;stroke-width:0.5;" x1="19.5" x2="84.2539" y1="156" y2="156"/><line style="stroke:#181818;stroke-width:0.5;" x1="19.5" x2="84.2539" y1="164" y2="164"/></g><!--class class_stereo--><g class="entity" data-entity="class_stereo" data-source-line="8" data-uid="ent0008" id="entity_class_stereo"><rect fill="#F1F1F1" height="56.2656" rx="2.5" ry="2.5" style="stroke:#181818;stroke-width:0.5;" width="118.085" x="121" y="120"/><ellipse cx="136" cy="140.1328" fill="#ADD1B2" rx="11" ry="11" style="stroke:#181818;stroke-width:1;"/><path d="M138.9688,145.7734 Q138.3906,146.0703 137.75,146.2109 Q137.1094,146.3672 136.4063,146.3672 Q133.9063,146.3672 132.5781,144.7266 Q131.2656,143.0703 131.2656,139.9453 Q131.2656,136.8203 132.5781,135.1641 Q133.9063,133.5078 136.4063,133.5078 Q137.1094,133.5078 137.75,133.6641 Q138.4063,133.8203 138.9688,134.1172 L138.9688,136.8359 Q138.3438,136.2578 137.75,135.9922 Q137.1563,135.7109 136.5313,135.7109 Q135.1875,135.7109 134.5,136.7891 Q133.8125,137.8516 133.8125,139.9453 Q133.8125,142.0391 134.5,143.1172 Q135.1875,144.1797 136.5313,144.1797 Q137.1563,144.1797 137.75,143.9141 Q138.3438,143.6328 138.9688,143.0547 L138.9688,145.7734 Z " fill="#000000"/><text fill="#000000" font-family="sans-serif" font-size="12" font-style="italic" lengthAdjust="spacing" textLength="79.6172" x="153.2339" y="136.1387">&#171;stereotype&#187;</text><text fill="#000000" font-family="sans-serif" font-size="14" lengthAdjust="spacing" textLength="86.085" x="150" y="151.9639">class_stereo</text><line style="stroke:#181818;stroke-width:0.5;" x1="122" x2="238.085" y1="160.2656" y2="160.2656"/><line style="stroke:#181818;stroke-width:0.5;" x1="122" x2="238.085" y1="168.2656" y2="168.2656"/></g><!--class dataclass--><g class="entity" data-entity="dataclass" data-source-line="9" data-uid="ent0009" id="entity_dataclass"><rect fill="#F1F1F1" height="48" rx="2.5" ry="2.5" style="stroke:#181818;stroke-width:0.5;" width="98.2881" x="274" y="124"/><ellipse cx="289" cy="140" fill="#7E57C2" rx="11" ry="11" style="stroke:#181818;stroke-width:1;"/><path d="M288.5938,135.8125 L288.5938,143.7969 L289.25,143.7969 Q290.6875,143.7969 291.2969,142.8906 Q291.9219,141.9688 291.9219,139.7969 Q291.9219,137.625 291.2969,136.7188 Q290.6875,135.8125 289.25,135.8125 L288.5938,135.8125 Z M286.1406,133.6094 L288.7656,133.6094 Q291.7969,133.6094 293.125,135.0625 Q294.4688,136.5 294.4688,139.7969 Q294.4688,143.0938 293.125,144.5469 Q291.7969,146 288.7656,146 L286.1406,146 L286.1406,133.6094 Z " fill="#000000"/><text fill="#000000" font-family="sans-serif" font-size="14" lengthAdjust="spacing" textLength="66.2881" x="303" y="144.8467">dataclass</text><line style="stroke:#181818;stroke-width:0.5;" x1="275" x2="371.2881" y1="156" y2="156"/><line style="stroke:#181818;stroke-width:0.5;" x1="275" x2="371.2881" y1="164" y2="164"/></g><g class="entity" data-entity="diamond" data-uid="ent0010" id="entity_diamond"><polygon fill="#F1F1F1" points="419,136,431,148,419,160,407,148,419,136" style="stroke:#181818;stroke-width:0.5;"/></g><polygon fill="#F1F1F1" points="478,136,490,148,478,160,466,148,478,136" style="stroke:#181818;stroke-width:0.5;"/><!--class entity--><g class="entity" data-entity="entity" data-source-line="12" data-uid="ent0012" id="entity_entity"><rect fill="#F1F1F1" height="48" rx="2.5" ry="2.5" style="stroke:#181818;stroke-width:0.5;" width="72.6396" x="15.5" y="236"/><ellipse cx="30.5" cy="252" fill="#ADD1B2" rx="11" ry="11" style="stroke:#181818;stroke-width:1;"/><path d="M34.6094,258 L26.8906,258 L26.8906,245.6094 L34.6094,245.6094 L34.6094,247.7656 L29.3438,247.7656 L29.3438,250.4375 L34.1094,250.4375 L34.1094,252.5938 L29.3438,252.5938 L29.3438,255.8438 L34.6094,255.8438 L34.6094,258 Z " fill="#000000"/><text fill="#000000" font-family="sans-serif" font-size="14" lengthAdjust="spacing" textLength="40.6396" x="44.5" y="256.8467">entity</text><line style="stroke:#181818;stroke-width:0.5;" x1="16.5" x2="87.1396" y1="268" y2="268"/><line style="stroke:#181818;stroke-width:0.5;" x1="16.5" x2="87.1396" y1="276" y2="276"/></g><!--class enum--><g class="entity" data-entity="enum" data-source-line="13" data-uid="ent0013" id="entity_enum"><rect fill="#F1F1F1" height="48" rx="2.5" ry="2.5" style="stroke:#181818;stroke-width:0.5;" width="71.9971" x="124" y="236"/><ellipse cx="139" cy="252" fill="#EB937F" rx="11" ry="11" style="stroke:#181818;stroke-width:1;"/><path d="M143.1094,258 L135.3906,258 L135.3906,245.6094 L143.1094,245.6094 L143.1094,247.7656 L137.8438,247.7656 L137.8438,250.4375 L142.6094,250.4375 L142.6094,252.5938 L137.8438,252.5938 L137.8438,255.8438 L143.1094,255.8438 L143.1094,258 Z " fill="#000000"/><text fill="#000000" font-family="sans-serif" font-size="14" lengthAdjust="spacing" textLength="39.9971" x="153" y="256.8467">enum</text><line style="stroke:#181818;stroke-width:0.5;" x1="125" x2="194.9971" y1="268" y2="268"/><line style="stroke:#181818;stroke-width:0.5;" x1="125" x2="194.9971" y1="276" y2="276"/></g><!--class exception--><g class="entity" data-entity="exception" data-source-line="14" data-uid="ent0014" id="entity_exception"><rect fill="#F1F1F1" height="48" rx="2.5" ry="2.5" style="stroke:#181818;stroke-width:0.5;" width="100.9131" x="231.5" y="236"/><ellipse cx="246.5" cy="252" fill="#D94321" rx="11" ry="11" style="stroke:#181818;stroke-width:1;"/><path d="M251.5156,258 L248.9844,258 L246.6094,253.9063 L244.25,258 L241.7188,258 L245.3594,251.7031 L241.8281,245.6094 L244.3594,245.6094 L246.6094,249.5469 L248.875,245.6094 L251.4063,245.6094 L247.8906,251.7031 L251.5156,258 Z " fill="#000000"/><text fill="#000000" font-family="sans-serif" font-size="14" lengthAdjust="spacing" textLength="68.9131" x="260.5" y="256.8467">exception</text><line style="stroke:#181818;stroke-width:0.5;" x1="232.5" x2="331.4131" y1="268" y2="268"/><line style="stroke:#181818;stroke-width:0.5;" x1="232.5" x2="331.4131" y1="276" y2="276"/></g><!--class interface--><g class="entity" data-entity="interface" data-source-line="15" data-uid="ent0015" id="entity_interface"><rect fill="#F1F1F1" height="48" rx="2.5" ry="2.5" style="stroke:#181818;stroke-width:0.5;" width="94.4395" x="368" y="236"/><ellipse cx="383" cy="252" fill="#B4A7E5" rx="11" ry="11" style="stroke:#181818;stroke-width:1;"/><path d="M378.9219,247.7656 L378.9219,245.6094 L386.3125,245.6094 L386.3125,247.7656 L383.8438,247.7656 L383.8438,255.8438 L386.3125,255.8438 L386.3125,258 L378.9219,258 L378.9219,255.8438 L381.3906,255.8438 L381.3906,247.7656 L378.9219,247.7656 Z " fill="#000000"/><text fill="#000000" font-family="sans-serif" font-size="14" font-style="italic" lengthAdjust="spacing" textLength="62.4395" x="397" y="256.8467">interface</text><line style="stroke:#181818;stroke-width:0.5;" x1="369" x2="461.4395" y1="268" y2="268"/><line style="stroke:#181818;stroke-width:0.5;" x1="369" x2="461.4395" y1="276" y2="276"/></g><!--class metaclass--><g class="entity" data-entity="metaclass" data-source-line="16" data-uid="ent0016" id="entity_metaclass"><rect fill="#F1F1F1" height="48" rx="2.5" ry="2.5" style="stroke:#181818;stroke-width:0.5;" width="103.0732" x="497.5" y="236"/><ellipse cx="512.5" cy="252" fill="#CCCCCC" rx="11" ry="11" style="stroke:#181818;stroke-width:1;"/><path d="M508.2188,245.6094 L511.1406,245.6094 L512.6094,251.0469 L514.0781,245.6094 L517.0156,245.6094 L517.0156,258 L514.9063,258 L514.9063,248.0781 L513.5938,253.5 L511.6563,253.5 L510.3281,248.0781 L510.3281,258 L508.2188,258 L508.2188,245.6094 Z " fill="#000000"/><text fill="#000000" font-family="sans-serif" font-size="14" lengthAdjust="spacing" textLength="71.0732" x="526.5" y="256.8467">metaclass</text><line style="stroke:#181818;stroke-width:0.5;" x1="498.5" x2="599.5732" y1="268" y2="268"/><line style="stroke:#181818;stroke-width:0.5;" x1="498.5" x2="599.5732" y1="276" y2="276"/></g><!--class protocol--><g class="entity" data-entity="protocol" data-source-line="17" data-uid="ent0017" id="entity_protocol"><rect fill="#F1F1F1" height="48" rx="2.5" ry="2.5" style="stroke:#181818;stroke-width:0.5;" width="89.415" x="7.5" y="344"/><ellipse cx="22.5" cy="360" fill="#F1F1F1" rx="11" ry="11" style="stroke:#181818;stroke-width:1;"/><path d="M22.2969,355.6719 L22.2969,359.2969 L23.2969,359.2969 Q24.5,359.2969 24.9844,358.8906 Q25.4688,358.4844 25.4688,357.4844 Q25.4688,356.4844 24.9844,356.0781 Q24.5,355.6719 23.2969,355.6719 L22.2969,355.6719 Z M19.8438,353.6094 L23.2031,353.6094 Q25.7656,353.6094 26.8906,354.5313 Q28.0156,355.4375 28.0156,357.4844 Q28.0156,359.5313 26.8906,360.4531 Q25.7656,361.3594 23.2031,361.3594 L22.2969,361.3594 L22.2969,366 L19.8438,366 L19.8438,353.6094 Z " fill="#000000"/><text fill="#000000" font-family="sans-serif" font-size="14" lengthAdjust="spacing" textLength="57.415" x="36.5" y="364.8467">protocol</text><line style="stroke:#181818;stroke-width:0.5;" x1="8.5" x2="95.915" y1="376" y2="376"/><line style="stroke:#181818;stroke-width:0.5;" x1="8.5" x2="95.915" y1="384" y2="384"/></g><!--class record--><g class="entity" data-entity="record" data-source-line="18" data-uid="ent0018" id="entity_record"><rect fill="#F1F1F1" height="48" rx="2.5" ry="2.5" style="stroke:#181818;stroke-width:0.5;" width="77.2744" x="131.5" y="344"/><ellipse cx="146.5" cy="360" fill="#FF8F00" rx="11" ry="11" style="stroke:#181818;stroke-width:1;"/><path d="M147.7031,360.1406 Q148.0625,360.2188 148.3281,360.5 Q148.6094,360.7656 149,361.5469 L151.2344,366 L148.5469,366 L147.0469,362.875 Q146.9844,362.7344 146.875,362.5 Q146.2188,361.1094 145.3281,361.1094 L144.5469,361.1094 L144.5469,366 L142.1094,366 L142.1094,353.6094 L145.6406,353.6094 Q148.0313,353.6094 149.0625,354.4531 Q150.1094,355.2969 150.1094,357.2031 Q150.1094,358.4844 149.4844,359.25 Q148.875,360 147.7031,360.1406 Z M144.5469,355.6719 L144.5469,359.0469 L145.7031,359.0469 Q146.7188,359.0469 147.1406,358.6563 Q147.5781,358.25 147.5781,357.3438 Q147.5781,356.4531 147.1406,356.0625 Q146.7188,355.6719 145.7031,355.6719 L144.5469,355.6719 Z " fill="#000000"/><text fill="#000000" font-family="sans-serif" font-size="14" lengthAdjust="spacing" textLength="45.2744" x="160.5" y="364.8467">record</text><line style="stroke:#181818;stroke-width:0.5;" x1="132.5" x2="207.7744" y1="376" y2="376"/><line style="stroke:#181818;stroke-width:0.5;" x1="132.5" x2="207.7744" y1="384" y2="384"/></g><!--class stereotype--><g class="entity" data-entity="stereotype" data-source-line="19" data-uid="ent0019" id="entity_stereotype"><rect fill="#F1F1F1" height="48" rx="2.5" ry="2.5" style="stroke:#181818;stroke-width:0.5;" width="107.6055" x="244" y="344"/><ellipse cx="259" cy="360" fill="#FF77FF" rx="11" ry="11" style="stroke:#181818;stroke-width:1;"/><path d="M258.4844,360.5625 Q256.625,359.8594 255.9688,359.0938 Q255.3281,358.3125 255.3281,357 Q255.3281,355.3125 256.4063,354.3438 Q257.4844,353.375 259.3594,353.375 Q260.2188,353.375 261.0625,353.5781 Q261.9219,353.7656 262.7656,354.1563 L262.7656,356.5469 Q261.9844,355.9844 261.1563,355.7031 Q260.3438,355.4063 259.5469,355.4063 Q258.6719,355.4063 258.1875,355.7656 Q257.7188,356.125 257.7188,356.7813 Q257.7188,357.2969 258.0625,357.6406 Q258.4063,357.9688 259.5,358.375 L260.5625,358.7813 Q262.0469,359.3281 262.75,360.2344 Q263.4688,361.1406 263.4688,362.5156 Q263.4688,364.3906 262.3594,365.3125 Q261.25,366.2344 259,366.2344 Q258.0781,366.2344 257.1563,366.0156 Q256.2344,365.7969 255.375,365.375 L255.375,362.8438 Q256.3438,363.5313 257.2656,363.875 Q258.1875,364.2188 259.0781,364.2188 Q259.9844,364.2188 260.4844,363.8125 Q260.9844,363.3906 260.9844,362.6563 Q260.9844,362.0938 260.6406,361.6875 Q260.3125,361.2656 259.6875,361.0156 L258.4844,360.5625 Z " fill="#000000"/><text fill="#000000" font-family="sans-serif" font-size="14" lengthAdjust="spacing" textLength="75.6055" x="273" y="364.8467">stereotype</text><line style="stroke:#181818;stroke-width:0.5;" x1="245" x2="350.6055" y1="376" y2="376"/><line style="stroke:#181818;stroke-width:0.5;" x1="245" x2="350.6055" y1="384" y2="384"/></g><!--class struct--><g class="entity" data-entity="struct" data-source-line="20" data-uid="ent0020" id="entity_struct"><rect fill="#F1F1F1" height="48" rx="2.5" ry="2.5" style="stroke:#181818;stroke-width:0.5;" width="72.5986" x="387.5" y="344"/><ellipse cx="402.5" cy="360" fill="#F1F1F1" rx="11" ry="11" style="stroke:#181818;stroke-width:1;"/><path d="M401.9844,360.5625 Q400.125,359.8594 399.4688,359.0938 Q398.8281,358.3125 398.8281,357 Q398.8281,355.3125 399.9063,354.3438 Q400.9844,353.375 402.8594,353.375 Q403.7188,353.375 404.5625,353.5781 Q405.4219,353.7656 406.2656,354.1563 L406.2656,356.5469 Q405.4844,355.9844 404.6563,355.7031 Q403.8438,355.4063 403.0469,355.4063 Q402.1719,355.4063 401.6875,355.7656 Q401.2188,356.125 401.2188,356.7813 Q401.2188,357.2969 401.5625,357.6406 Q401.9063,357.9688 403,358.375 L404.0625,358.7813 Q405.5469,359.3281 406.25,360.2344 Q406.9688,361.1406 406.9688,362.5156 Q406.9688,364.3906 405.8594,365.3125 Q404.75,366.2344 402.5,366.2344 Q401.5781,366.2344 400.6563,366.0156 Q399.7344,365.7969 398.875,365.375 L398.875,362.8438 Q399.8438,363.5313 400.7656,363.875 Q401.6875,364.2188 402.5781,364.2188 Q403.4844,364.2188 403.9844,363.8125 Q404.4844,363.3906 404.4844,362.6563 Q404.4844,362.0938 404.1406,361.6875 Q403.8125,361.2656 403.1875,361.0156 L401.9844,360.5625 Z " fill="#000000"/><text fill="#000000" font-family="sans-serif" font-size="14" lengthAdjust="spacing" textLength="40.5986" x="416.5" y="364.8467">struct</text><line style="stroke:#181818;stroke-width:0.5;" x1="388.5" x2="459.0986" y1="376" y2="376"/><line style="stroke:#181818;stroke-width:0.5;" x1="388.5" x2="459.0986" y1="384" y2="384"/></g><!--SRC=[RP7T3eCm28NlUGgog-qTZAzYMCMiYHP3CPblFqt_D1bNV8TIJYczeoavmnoK6Kg2RgOO4HztuG4KWXYPbv0xAuFpwcR66edX-S9R97c87r4R9j45ygnsukJ_wX2DbGMnwr9c-yfz3oCPNHigm-XfaJ3MQp93rzzjPVtgYuDvszkHn8UyBTVEau6_ZjUs5gmCFXn69t9bCvLXuRlfoh2gc3YPouZ2eEn4ssCmCRHT9BdnKTAjVVHPEXb-]--></g></svg>