<?xml version="1.0" encoding="UTF-8"?>
<svg xmlns="http://www.w3.org/2000/svg" width="650" height="270" id="svg2">
	<style type="text/css">
		.equipment {fill:#4d4d4d;stroke:#000000;stroke-opacity:1}
		.body { fill:#ffffff;stroke:#000000;stroke-opacity:1 }
		.arrow { fill:#ff0000;stroke:#000000;stroke-opacity:1 }
	</style>  
  <rect id="rect3123-5" class="equipment" width="69.406776" height="22.033897" x="436.82205" y="166.71608" />
  <rect id="rect3125-7" class="equipment" width="26.440678" height="65.55085" x="459.4068" y="188.74998" />
  <rect id="rect3123" class="equipment" width="69.406776" height="22.033897" x="89.788132" y="175.25423" />
  <rect id="rect3125" class="equipment" width="26.440678" height="65.55085" x="112.37287" y="197.28813" />
  <path id="path7373-7" class="body" d="m 152.31855,78.16898 a 20.560004,17.096196 0 1 1 -0.009,-0.0877" />
  <path id="path7375-7" class="body" d="m 109.80793,110.04964 8.07714,-9.49789 8.07715,-1.26639 9.54571,-0.63318 9.54571,6.96511 5.87429,6.33193 -4.40571,58.88687 9.54571,1.89958 13.95144,24.69451 -4.40573,58.25375 -11.01428,7.59837 -10.28,-2.53282 -2.20285,-10.76422 5.14,-54.45466 -14.68571,-20.26216 -11.74857,0 -15.42001,19.62897 2.20285,58.25378 -8.811435,6.33188 -9.54571,0 -7.34286,-6.33188 0,-60.78656 16.88857,-22.16173 9.545725,-2.53277 z" />
  <path id="path7452" class="body" d="m 107.60508,114.48201 -9.545715,-3.79916 -18.35715,-28.49365 -2.20285,-10.13109 9.72595,-41.075151 9.17884,-3.24832 10.096585,2.53278 0.91772,8.78235 -8.624815,36.807501 21.294305,27.22727 -2.20286,6.33193 z" />
  <path id="path7454" class="body" d="m 144.31937,101.81816 0,7.59831 6.60857,5.06554 11.01428,-1.26638 24.96573,-31.02643 2.20285,-7.59831 -6.97278,-41.955391 -11.93255,-2.45043 -6.79201,2.14662 -2.38683,7.5983 10.64634,36.807511 z" />
  <path id="path7373" class="body" d="m 498.52539,72.444944 a 20.560004,17.096196 0 1 1 -0.009,-0.0877" />
  <path id="path7375" class="body" d="m 456.01477,103.05921 8.07715,-9.497876 8.07714,-1.26639 9.54572,-0.63319 9.54571,6.96511 5.87429,6.331926 -4.40572,58.88689 9.54572,1.89958 13.95144,24.69451 -4.40572,58.25371 -11.01429,7.59837 -10.28,-2.53282 -2.20286,-10.76422 5.14,-54.45462 -14.68571,-20.26216 -11.74858,0 -15.42001,19.62897 2.20286,58.25375 -8.81143,6.33187 -9.54571,0 -7.34286,-6.33187 0,-60.78653 16.88857,-22.16173 9.54572,-2.53277 z" />
  <path id="path7448" class="body" d="m 433.61932,120.37688 -11.92989,-19.93278 -8.81143,-2.203386 -6.79254,4.128526 2.3863,8.7 20.00809,28.08194 11.38063,0.63319 16.88857,-27.86047 2.20286,-8.86469 -8.99433,-7.047456 -6.97545,6.002546 z" />
  <path id="path7450" class="body" d="m 495.66621,100.52644 -3.30403,7.37684 16.52117,33.14747 12.48287,1.89958 17.80256,-34.55298 -3.30455,-10.074296 -7.8937,-0.16468 -13.03051,20.730646 -5.69031,-13.87346 -7.52578,-6.167216 z" />
  <path id="path3256" class="equipment" d="m 45.720339,41.949152 23.686441,-12.118644 58.38983,-7.711864 69.95763,9.364407 15.97458,10.466101 -3.30509,4.40678 -13.77119,-9.915254 -68.30508,-8.81356 -56.186443,8.262712 -23.135593,12.669492 z" />
  <path id="path3256-3" class="equipment" d="m 388.62288,110.25423 23.68644,-12.118636 58.38983,-7.71187 69.95763,9.36441 15.97458,10.466096 -3.30509,4.40678 -13.77119,-9.91525 -68.30508,-8.813556 -56.18644,8.262706 -23.1356,12.66949 z" />
</svg>

