<?xml version="1.0" encoding="UTF-8"?>
<svg xmlns="http://www.w3.org/2000/svg" width="650" height="270" id="svg2">
	<style type="text/css">
		.equipment {fill:#4d4d4d;stroke:#000000;stroke-opacity:1}
		.body { fill:#ffffff;stroke:#000000;stroke-opacity:1 }
		.arrow { fill:#ff0000;stroke:#000000;stroke-opacity:1 }
	</style>  
  <path id="path5983" class="equipment" d="m 244.35584,42.165089 21.26529,2.796137 -6.59958,41.243071 29.33144,18.873943 -8.06614,13.98071 -34.46444,-24.466234 5.86629,-37.048852 -11.73258,-1.398079 z" />
  <path id="path5991" class="equipment" d="m 558.20224,74.320708 13.93242,-4.893246 12.46587,31.456568 -68.92889,26.56334 -5.86628,-14.67974 55.72973,-20.272019 z" />
  <path id="path5985" class="equipment" d="m 251.27063,46.662625 a 13.565791,12.58263 0 1 1 -0.006,-0.06459" />
  <path id="path5985-0" class="equipment" d="m 579.04944,71.827881 a 13.565791,12.58263 0 1 1 -0.006,-0.06459" />
  <path id="path5987-9" class="body" d="m 242.86703,47.939439 a 5.866288,5.9417981 0 1 1 -0.003,-0.03044" />
  <path id="path5987" class="body" d="m 571.37914,72.405666 a 5.866288,5.9417981 0 1 1 -0.003,-0.03044" />
  <path id="path6573" class="equipment" d="m 292.75271,100.88403 -3.66643,-6.291314 -9.53272,-1.398066 -27.86486,33.55368 -7.33286,23.06816 -4.39972,17.47587 -4.39972,-13.28167 -22.73187,-9.78649 -21.26528,8.38842 -8.79944,7.6894 5.13301,9.08745 0.73329,6.29131 -35.93101,55.2238 -1.46658,15.37878 -13.93242,-2.79619 -9.53273,-20.97104 -47.663581,-9.78649 2.199858,11.18454 35.197723,6.9904 12.46587,20.97108 8.06614,4.89324 9.53272,1.398 -0.73329,6.29135 16.86558,-1.3981 0,-23.76718 32.99786,-55.22377 8.79943,-1.39807 38.86416,13.28167 14.66571,2.0971 8.79943,-4.19421 8.06616,-6.29131 30.79801,-83.88421 -2.93315,-4.194208 -5.86629,-1.398069 z" />
  <path id="path6573-2" class="equipment" d="m 549.76944,101.23354 -3.66643,-6.291309 -9.53272,-1.398067 -27.86486,33.553676 -7.33286,23.06816 -4.39972,17.47587 -4.39972,-13.28166 -22.73187,-9.78649 -21.26528,8.38842 -8.79944,7.68939 5.13301,9.08745 0.73329,6.29132 -35.93102,55.22385 -1.46658,15.37879 -13.93242,-2.7962 -9.53273,-20.97102 -47.66358,-9.78657 2.19986,11.18461 35.19772,6.99039 12.46587,20.97108 8.06614,4.89325 9.53272,1.398 -0.73329,6.29134 16.86558,-1.3981 0,-23.76718 32.99787,-55.22382 8.79943,-1.39807 38.86416,13.28167 14.66571,2.09709 8.79943,-4.1942 8.06616,-6.29132 30.79801,-83.88421 -2.93315,-4.194203 -5.86629,-1.398069 z" />
  <path id="path6595" class="body" d="m 568.4194,25.460914 a 20.561154,19.251396 0 1 1 -0.009,-0.09876" />
  <path id="path6601" class="body" d="m 206.22496,69.427453 -5.133,-10.48552 8.06615,-11.883599 10.99929,0 12.46586,12.582628 32.99787,62.214118 -0.73329,13.28167 -4.39971,29.35947 -10.99929,9.78649 -16.1323,-0.69904 -74.06186,-25.16525 -29.33144,64.31122 -13.19916,6.29132 -10.26599,-4.89325 2.93314,-17.47588 28.59815,-67.10736 11.73257,-8.38842 9.53273,1.39807 68.19558,23.76719 6.59957,-2.79614 0.73329,-21.67009 z" />
  <path id="path6603" class="body" d="m 207.69153,75.718767 0,-13.980697 8.79944,-5.592285 11.73257,7.689393 21.99859,55.223772 0.73328,9.78649 -9.53272,6.99035 -5.133,0 -52.79659,-30.75755 -5.133,-10.485524 6.59957,-8.388419 10.26601,-0.69903 21.26529,13.281656 z" />
  <path id="path6605" class="body" d="m 523.73779,68.029384 2.93314,-11.883589 10.9993,-4.194216 10.99928,2.796148 5.86629,11.184559 -34.46444,103.457184 -12.46586,8.38842 -13.19915,-2.09711 -75.52845,-24.46623 -36.66431,62.21412 -11.73257,5.59233 -11.73257,-6.99039 4.39972,-16.07781 32.26458,-66.40833 13.19914,-6.29131 83.5946,25.8643 z" />
  <path id="path6607" class="body" d="m 509.07207,69.427462 3.66643,26.563323 17.59887,-29.35947 9.53271,-5.592274 8.06615,5.592274 -0.73329,11.18456 -27.13158,56.621845 -11.73257,4.89325 -8.79943,-2.09711 -16.1323,-62.913152 5.86629,-11.184569 11.73258,-2.796138 z" />
  <path id="path6595-0" class="body" d="m 214.97558,28.606536 a 20.561154,19.251396 0 1 1 -0.009,-0.09876" />
</svg>
