<?xml version="1.0" encoding="UTF-8"?>
<svg xmlns="http://www.w3.org/2000/svg" width="650" height="270" id="svg2">
	<style type="text/css">
		.equipment {fill:#4d4d4d;stroke:#000000;stroke-opacity:1}
		.body { fill:#ffffff;stroke:#000000;stroke-opacity:1 }
		.arrow { fill:#ff0000;stroke:#000000;stroke-opacity:1 }
	</style>  
  <path id="path3974" class="equipment" d="m 162.1048,31.49973 0,-8.460503 4.53122,-5.076309 4.53121,-2.25613 56.0738,9.588568 3.96481,5.640336 2.83201,10.716644 -2.83201,122.395334 -3.39841,5.07631 -39.08174,25.38152 -5.09762,1.12808 -5.09761,1.12806 -53.8082,-15.79295 -1.1328,-6.7684 0,-3.94824 29.4529,-16.35698 7.92963,-3.3842 0.56641,-5.64034 z" />
  <path id="path3974-8" class="equipment" d="m 452.95224,29.525597 0,-8.460503 4.53122,-5.076309 4.53121,-2.25613 56.07381,9.588568 3.96481,5.640336 2.832,10.716644 -2.832,122.395337 -3.39842,5.07631 -39.08174,25.38152 -5.09762,1.12808 -5.09761,1.12806 -53.8082,-15.79295 -1.1328,-6.7684 0,-3.94825 29.4529,-16.35697 7.92963,-3.3842 0.56641,-5.64035 z" />
  <path id="path3045-5" class="body" d="m 505.7474,44.783693 a 19.451207,19.091626 0 1 1 -0.009,-0.09794" />
  <path id="path3864-5" class="body" d="m 463.14746,77.466617 -6.79681,-2.256141 -3.96483,2.820168 -2.832,5.640335 -2.26561,33.277991 -1.6992,6.20437 -5.09763,12.40875 -6.79681,11.84471 -5.09763,9.58858 6.79683,7.33244 9.06244,0 6.23042,-7.89648 7.92962,-14.66488 7.36322,-18.04908 z" />
  <path id="path3833" class="body" d="m 503.36201,86.209139 -4.53121,-6.768411 -5.66402,-3.948233 -11.89444,-1.692103 -14.16005,3.384206 -5.66402,7.896465 1.1328,68.248087 3.96482,12.40875 15.29286,3.38421 10.76164,0 8.49602,-5.64035 2.2656,-7.33244 z" />
  <path id="path3927-3" class="body" d="m 530.54931,134.99805 -2.83201,-10.71664 -8.49602,-35.534133 -7.36323,-5.640336 -6.79683,1.128065 -4.53121,1.692103 -3.39842,5.640335 1.13281,5.076304 12.46085,38.354302 1.1328,45.68674 6.79682,5.0763 9.62884,-1.12806 5.09762,-4.51227 z" />
  <path id="path4070" class="body" d="m 461.44827,155.86731 -3.39842,-1.6921 -6.23042,1.12807 -27.1873,10.1526 -3.96482,3.94825 -2.2656,5.07629 -3.39842,69.94021 2.83201,5.64027 9.62884,3.94831 8.49603,-1.12812 2.83201,-6.76839 -0.5664,-58.6595 4.53121,-6.7684 20.95688,-9.02454 0,-7.33244 z" />
  <path id="path4072" class="equipment" d="m 424.63213,193.65758 0,-23.68943 7.92963,-7.33244 7.36323,-4.51227 12.46085,-0.56403 7.36322,1.12807 2.2656,7.89647 -1.6992,12.40874 -1.69921,12.40875 -28.3201,9.58859 -6.23042,-2.82019 z" />
  <path id="path4072-7" class="equipment" d="m 435.11057,196.75977 0,-23.68943 7.92963,-7.33244 7.36323,-4.51227 12.46084,-0.56404 7.36323,1.12808 2.2656,7.89646 -1.69921,12.40875 -1.6992,12.40875 -28.3201,9.58857 -6.23043,-2.82019 z" />
  <path id="path4070-3" class="body" d="m 505.62763,164.04581 -10.19524,-4.51227 -13.02725,0.56403 -27.1873,10.1526 -3.96482,3.94825 -2.2656,5.07629 -3.39841,69.94016 2.83201,5.64038 9.62883,3.9482 8.49603,-1.12801 2.83201,-6.7685 -0.5664,-50.76294 7.36322,-10.71668 20.95688,-8.4605 8.49604,-4.51227 z" />
  <path id="path3864" class="body" d="m 173.43284,76.058398 -6.79682,-2.256141 -3.96482,2.820168 -2.83201,5.640335 -2.2656,33.27799 -1.69921,6.20437 -5.09762,12.40875 -6.79682,11.84473 -5.09763,9.58858 6.79683,7.33244 9.06244,0 6.23042,-7.89648 7.92962,-14.66487 7.36323,-18.04911 z" />
  <path id="path4048" class="body" d="m 180.51286,151.92096 -7.36324,-2.25614 -52.67538,-1.12807 -5.09761,2.25614 -6.23043,5.64034 -3.39841,5.64033 2.2656,64.29982 5.09762,3.94831 8.49604,-1.12812 6.79682,-1.69207 0,-47.37884 5.09762,-7.89648 42.48015,3.3842 7.36323,-5.64034 0,-7.33244 z" />
  <path id="path3045" class="body" d="m 214.61673,42.809638 a 19.451207,19.091626 0 1 1 -0.009,-0.09794" />
  <path id="path3833-3" class="body" d="m 211.09856,84.517003 -4.53122,-6.768412 -5.66401,-3.948232 -11.89445,-1.692103 -14.16005,3.384205 -5.66402,7.896466 1.1328,68.248123 3.96482,12.40875 15.29286,3.3842 10.76164,0 8.49603,-5.64034 2.2656,-7.33244 z" />
  <path id="path3927" class="body" d="m 239.41866,132.17786 -2.83201,-10.71664 -8.49603,-35.534133 -7.36322,-5.640336 -6.79683,1.128065 -4.53122,1.692103 -3.39841,5.640335 1.13281,5.076309 12.46085,38.354297 1.1328,45.68681 6.79682,5.07621 9.62883,-1.12801 5.09763,-4.51226 z" />
  <path id="path4268" class="equipment" d="m 142.84712,142.6144 -29.45289,-1.12808 -5.66403,2.82017 -1.69921,3.3842 -1.6992,5.64035 -1.13281,20.86925 40.21455,0.56403 z" />
  <path id="path4270" class="body" d="m 209.68257,157.84331 18.69127,5.0763 6.79681,5.64034 3.39842,7.33244 -1.1328,9.58857 -6.79683,70.5042 -9.62883,6.76838 -9.06243,-2.82007 -2.26561,-5.07632 2.832,-71.06829 -10.76164,-2.25613 -4.53121,-7.89648 0,-6.7684 4.53121,-7.89647 z" />
  <path id="path4272" class="equipment" d="m 187.59289,187.17307 0,-25.38153 3.39842,-5.0763 7.36321,0.56403 13.02725,6.7684 5.66403,9.02455 1.6992,7.33245 0,27.63765 -6.79683,2.82013 -6.23043,-5.07626 z" />
</svg>
