<?xml version="1.0" encoding="UTF-8" standalone="no"?>
<!-- Created with Inkscape (http://www.inkscape.org/) -->

<svg
   xmlns:dc="http://purl.org/dc/elements/1.1/"
   xmlns:cc="http://creativecommons.org/ns#"
   xmlns:rdf="http://www.w3.org/1999/02/22-rdf-syntax-ns#"
   xmlns:svg="http://www.w3.org/2000/svg"
   xmlns="http://www.w3.org/2000/svg"
   xmlns:sodipodi="http://sodipodi.sourceforge.net/DTD/sodipodi-0.dtd"
   xmlns:inkscape="http://www.inkscape.org/namespaces/inkscape"
   width="744.09448819"
   height="1052.3622047"
   id="svg2"
   version="1.1"
   inkscape:version="0.48.4 r9939"
   sodipodi:docname="eq.09.svg">
  <defs
     id="defs4" />
  <sodipodi:namedview
     id="base"
     pagecolor="#ffffff"
     bordercolor="#666666"
     borderopacity="1.0"
     inkscape:pageopacity="0.0"
     inkscape:pageshadow="2"
     inkscape:zoom="1.4"
     inkscape:cx="354.96635"
     inkscape:cy="180.33124"
     inkscape:document-units="px"
     inkscape:current-layer="layer3"
     showgrid="false"
     inkscape:window-width="1240"
     inkscape:window-height="998"
     inkscape:window-x="2033"
     inkscape:window-y="19"
     inkscape:window-maximized="0" />
  <metadata
     id="metadata7">
    <rdf:RDF>
      <cc:Work
         rdf:about="">
        <dc:format>image/svg+xml</dc:format>
        <dc:type
           rdf:resource="http://purl.org/dc/dcmitype/StillImage" />
        <dc:title />
      </cc:Work>
    </rdf:RDF>
  </metadata>
  <g
     inkscape:groupmode="layer"
     id="layer3"
     inkscape:label="image">
    <path
       style="fill:#4d4d4d;stroke:#000000;stroke-width:1px;stroke-linecap:butt;stroke-linejoin:miter;stroke-opacity:1"
       d="m 200.71429,838.07649 12.85714,-5.71429 9.28572,9.28571 3.57142,17.14286 -45,85 -8.57142,7.85714 -2.14286,15 -43.57143,1.42858 -2.14286,59.28571 92.85715,-1.4285 0,17.8571 -131.428583,-2.8571 -18.57142,-17.8572 12.85714,-6.4285 7.14286,9.2857 20.000003,0 L 110,967.3622 99.285717,948.79077 l 7.857143,-11.42857 13.57143,0.71429 30,1.42857 z"
       id="path5183"
       inkscape:connector-curvature="0" />
    <path
       transform="translate(-68.214286,4.6428404)"
       sodipodi:type="arc"
       style="fill:#ffffff;stroke:#000000;stroke-width:1;stroke-linecap:round;stroke-linejoin:round;stroke-miterlimit:4;stroke-opacity:1;stroke-dasharray:none"
       id="path5731"
       sodipodi:cx="267.5"
       sodipodi:cy="805.57648"
       sodipodi:rx="18.928572"
       sodipodi:ry="19.642857"
       d="m 286.35679,803.86747 a 18.928572,19.642857 0 1 1 -0.009,-0.10076"
       sodipodi:start="6.1960712"
       sodipodi:end="12.474106"
       sodipodi:open="true" />
    <path
       style="fill:#4d4d4d;stroke:#000000;stroke-width:1px;stroke-linecap:butt;stroke-linejoin:miter;stroke-opacity:1"
       d="M 61.428567,852.36218 40,848.79075 l -5,12.14286 0,15 -9.285714,13.57143 0.714285,9.28571 5.714286,17.14286 L 35,919.50504 6.4285711,973.07647 l -2.857143,10.71428 27.1428579,13.57143 7.142857,-22.85714 -12.857143,-5 22.142857,-39.28571 19.28571,-1.42858 16.42858,-11.42857 10,-16.42857 3.57142,-21.42857 -5.71428,-14.28571 z"
       id="path5751"
       inkscape:connector-curvature="0" />
    <path
       style="fill:#ffffff;stroke:#000000;stroke-width:1px;stroke-linecap:butt;stroke-linejoin:miter;stroke-opacity:1"
       d="m 180.71429,838.07647 6.42857,-5.71429 8.57143,0 10,2.14286 0.71428,9.28571 -1.42857,7.85715 -40,85 -8.57143,4.28571 -9.28571,5 -9.28571,-2.85714 -18.57143,-2.85714 -47.142863,-8.57143 -7.14286,72.8571 -10.71428,5.7143 -10,0.7143 -5.714289,-11.42856 12.142859,-88.57143 7.14286,-5.71428 7.14285,-2.85715 69.285723,15 7.14285,1.42857 z"
       id="path5753"
       inkscape:connector-curvature="0" />
    <path
       style="fill:#ffffff;stroke:#000000;stroke-width:1px;stroke-linecap:butt;stroke-linejoin:miter;stroke-opacity:1"
       d="m 178.57143,849.50504 7.85714,-9.28571 8.57143,2.14285 5,9.28572 -14.28571,56.42857 -42.14286,41.42857 -10,2.14286 -11.42857,-5 -3.57143,-9.28572 L 165,901.6479 z"
       id="path5755"
       inkscape:connector-curvature="0" />
    <path
       sodipodi:type="arc"
       style="fill:#4d4d4d;stroke:#000000;stroke-width:1;stroke-linecap:round;stroke-linejoin:round;stroke-miterlimit:4;stroke-opacity:1;stroke-dasharray:none"
       id="path5765"
       sodipodi:cx="107.5"
       sodipodi:cy="815.2193"
       sodipodi:rx="11.071428"
       sodipodi:ry="11.428572"
       d="m 118.52945,814.22497 a 11.071428,11.428572 0 1 1 -0.002,-0.0258"
       sodipodi:start="6.1960712"
       sodipodi:end="12.476994"
       sodipodi:open="true"
       transform="matrix(1.495506,0,0,1.4175253,-126.83833,-168.94609)" />
    <path
       style="fill:#4d4d4d;stroke:#000000;stroke-width:1px;stroke-linecap:butt;stroke-linejoin:miter;stroke-opacity:1"
       d="m 485.71429,840.9336 12.85714,-5.71429 9.28572,9.28571 3.57142,17.14286 -45,85 -8.57142,7.85714 -2.14286,15 -43.57143,1.42858 -2.14286,59.2857 92.85715,-1.4285 0,17.8571 -131.42858,-2.8571 -18.57142,-17.8572 12.85714,-6.4285 7.14286,9.2857 20,0 2.14285,-58.57149 -10.71428,-18.57143 7.85714,-11.42857 13.57143,0.71429 30,1.42857 z"
       id="path5183-3"
       inkscape:connector-curvature="0" />
    <path
       transform="translate(220.35715,3.9285549)"
       sodipodi:type="arc"
       style="fill:#ffffff;stroke:#000000;stroke-width:1;stroke-linecap:round;stroke-linejoin:round;stroke-miterlimit:4;stroke-opacity:1;stroke-dasharray:none"
       id="path5731-5"
       sodipodi:cx="267.5"
       sodipodi:cy="805.57648"
       sodipodi:rx="18.928572"
       sodipodi:ry="19.642857"
       d="m 286.35679,803.86747 a 18.928572,19.642857 0 1 1 -0.009,-0.10076"
       sodipodi:start="6.1960712"
       sodipodi:end="12.474106"
       sodipodi:open="true" />
    <path
       style="fill:#4d4d4d;stroke:#000000;stroke-width:1px;stroke-linecap:butt;stroke-linejoin:miter;stroke-opacity:1"
       d="m 331.42857,890.93361 1.42857,-9.28571 15.71429,-8.57143 8.57143,-1.42857 14.28571,1.42857 11.42857,7.85714 7.85715,7.14286 1.42857,12.85714 -1.42857,12.85715 -7.14286,13.57143 -10,11.42856 -13.57142,11.42858 L 345,949.50504 l -14.28571,-5 -2.14285,-37.14286 -42.14288,-7.14285 -3.57141,22.85714 -14.28572,-3.57143 5.71428,-34.28571 z"
       id="path5814"
       inkscape:connector-curvature="0"
       sodipodi:nodetypes="cccccccccccccccccccc" />
    <path
       style="fill:#ffffff;stroke:#000000;stroke-width:1px;stroke-linecap:butt;stroke-linejoin:miter;stroke-opacity:1"
       d="m 462.85715,841.6479 7.85714,-8.57143 7.14286,-1.42857 14.28571,3.57143 5.71429,7.14285 -3.57143,8.57143 -47.85715,84.28572 -10,6.42857 -87.14285,-12.85715 -75.71429,32.14286 -12.14286,-7.14286 -2.85714,-10 4.28572,-6.42857 73.57142,-30 10.71429,-3.57143 76.42857,10.71429 z"
       id="path5818"
       inkscape:connector-curvature="0" />
    <path
       sodipodi:type="arc"
       style="fill:#4d4d4d;stroke:#000000;stroke-width:1;stroke-linecap:round;stroke-linejoin:round;stroke-miterlimit:4;stroke-opacity:1;stroke-dasharray:none"
       id="path5765-2"
       sodipodi:cx="107.5"
       sodipodi:cy="815.2193"
       sodipodi:rx="11.071428"
       sodipodi:ry="11.428572"
       d="m 118.52945,814.22497 a 11.071428,11.428572 0 1 1 -0.002,-0.0258"
       sodipodi:start="6.1960712"
       sodipodi:end="12.476994"
       sodipodi:open="true"
       transform="matrix(1.495506,0,0,1.4175253,113.51882,-231.80323)" />
    <path
       sodipodi:type="arc"
       style="fill:#ffffff;stroke:#000000;stroke-width:1;stroke-linecap:round;stroke-linejoin:round;stroke-miterlimit:4;stroke-opacity:1;stroke-dasharray:none"
       id="path5763-2"
       sodipodi:cx="123.92857"
       sodipodi:cy="820.57648"
       sodipodi:rx="29.642857"
       sodipodi:ry="21.785715"
       d="m 153.45902,818.68103 a 29.642857,21.785715 0 1 1 -0.006,-0.0491"
       sodipodi:start="6.1960712"
       sodipodi:end="12.476994"
       transform="matrix(0.15815595,0,0,0.24796725,255.39996,719.60037)"
       sodipodi:open="true" />
    <path
       style="fill:#ffffff;stroke:#000000;stroke-width:1px;stroke-linecap:butt;stroke-linejoin:miter;stroke-opacity:1"
       d="m 465.71429,849.50504 3.57143,-5 12.14285,-5.71429 6.42858,7.14286 0,12.14286 -20,55 -33.57143,27.85714 -13.57143,10 -10,-2.14286 -5,-7.14285 2.85714,-10 38.57143,-29.28572 z"
       id="path5856"
       inkscape:connector-curvature="0" />
    <path
       sodipodi:type="arc"
       style="fill:#ffffff;stroke:#000000;stroke-width:1;stroke-linecap:round;stroke-linejoin:round;stroke-miterlimit:4;stroke-opacity:1;stroke-dasharray:none"
       id="path5763"
       sodipodi:cx="123.92857"
       sodipodi:cy="820.57648"
       sodipodi:rx="29.642857"
       sodipodi:ry="21.785715"
       d="m 153.45902,818.68103 a 29.642857,21.785715 0 1 1 -0.006,-0.0491"
       sodipodi:start="6.1960712"
       sodipodi:end="12.476994"
       transform="matrix(0.15815595,0,0,0.24796725,15.399959,783.88609)"
       sodipodi:open="true" />
  </g>
</svg>
