<?xml version="1.0" encoding="UTF-8" standalone="no"?>
<!-- Created with Inkscape (http://www.inkscape.org/) -->

<svg
   xmlns:dc="http://purl.org/dc/elements/1.1/"
   xmlns:cc="http://creativecommons.org/ns#"
   xmlns:rdf="http://www.w3.org/1999/02/22-rdf-syntax-ns#"
   xmlns:svg="http://www.w3.org/2000/svg"
   xmlns="http://www.w3.org/2000/svg"
   xmlns:sodipodi="http://sodipodi.sourceforge.net/DTD/sodipodi-0.dtd"
   xmlns:inkscape="http://www.inkscape.org/namespaces/inkscape"
   width="744.09448819"
   height="1052.3622047"
   id="svg2"
   version="1.1"
   inkscape:version="0.48.4 r9939"
   sodipodi:docname="eq.07.svg">
  <defs
     id="defs4" />
  <sodipodi:namedview
     id="base"
     pagecolor="#ffffff"
     bordercolor="#666666"
     borderopacity="1.0"
     inkscape:pageopacity="0.0"
     inkscape:pageshadow="2"
     inkscape:zoom="1.4"
     inkscape:cx="349.85296"
     inkscape:cy="117.1129"
     inkscape:document-units="px"
     inkscape:current-layer="layer3"
     showgrid="false"
     inkscape:window-width="1240"
     inkscape:window-height="998"
     inkscape:window-x="2033"
     inkscape:window-y="19"
     inkscape:window-maximized="0" />
  <metadata
     id="metadata7">
    <rdf:RDF>
      <cc:Work
         rdf:about="">
        <dc:format>image/svg+xml</dc:format>
        <dc:type
           rdf:resource="http://purl.org/dc/dcmitype/StillImage" />
        <dc:title />
      </cc:Work>
    </rdf:RDF>
  </metadata>
  <g
     inkscape:groupmode="layer"
     id="layer3"
     inkscape:label="image">
    <path
       style="fill:#4d4d4d;stroke:#000000;stroke-width:1px;stroke-linecap:butt;stroke-linejoin:miter;stroke-opacity:1"
       d="m 64.144691,841.74538 0,-7.57614 4.04061,-4.54569 4.04061,-2.0203 50.002549,8.58629 3.53553,5.05076 2.52538,9.59645 -2.52538,109.60155 -3.03046,4.54569 -34.850259,22.72843 -4.54569,1.01016 -4.54568,1.01015 -47.98225,-14.14214 -1.01015,-6.06091 0,-3.53554 26.26396,-14.64721 7.07107,-3.03045 0.50508,-5.05077 z"
       id="path3974"
       inkscape:connector-curvature="0"
       sodipodi:nodetypes="ccccccccccccccccccc" />
    <path
       style="fill:#4d4d4d;stroke:#000000;stroke-width:1px;stroke-linecap:butt;stroke-linejoin:miter;stroke-opacity:1"
       d="m 323.50135,839.9776 0,-7.57614 4.04061,-4.54569 4.04061,-2.0203 50.00255,8.58629 3.53553,5.05076 2.52538,9.59645 -2.52538,109.60155 -3.03046,4.54569 -34.85026,22.72843 -4.54569,1.01016 -4.54568,1.01015 -47.98225,-14.14214 -1.01015,-6.06091 0,-3.53554 26.26396,-14.64721 7.07107,-3.03045 0.50508,-5.05077 z"
       id="path3974-8"
       inkscape:connector-curvature="0"
       sodipodi:nodetypes="ccccccccccccccccccc" />
    <path
       sodipodi:type="arc"
       style="fill:#ffffff;stroke:#000000;stroke-width:3;stroke-linecap:round;stroke-linejoin:round;stroke-miterlimit:4;stroke-opacity:1;stroke-dasharray:none"
       id="path3045-5"
       sodipodi:cx="228.04193"
       sodipodi:cy="913.71875"
       sodipodi:rx="57.326157"
       sodipodi:ry="113.8947"
       d="m 285.1507,903.80946 a 57.326157,113.8947 0 1 1 -0.0264,-0.58426"
       sodipodi:start="6.1960712"
       sodipodi:end="12.474106"
       sodipodi:open="true"
       transform="matrix(0.30257001,0,0,0.15010363,284.30219,717.97571)" />
    <path
       style="fill:#ffffff;stroke:#000000;stroke-width:1px;stroke-linecap:butt;stroke-linejoin:miter;stroke-opacity:1"
       d="m 332.59271,882.90742 -6.06091,-2.02031 -3.53554,2.52538 -2.52538,5.05076 -2.0203,29.7995 -1.51523,5.55584 -4.54569,11.11168 -6.06091,10.6066 -4.54569,8.5863 6.06092,6.56599 8.08122,0 5.55584,-7.07107 7.07106,-13.13198 6.56599,-16.16244 z"
       id="path3864-5"
       inkscape:connector-curvature="0" />
    <path
       style="fill:#ffffff;stroke:#000000;stroke-width:1px;stroke-linecap:butt;stroke-linejoin:miter;stroke-opacity:1"
       d="m 368.45313,890.7361 -4.04061,-6.06092 -5.05076,-3.53553 -10.6066,-1.51523 -12.62691,3.03046 -5.05076,7.07106 1.01015,61.11423 3.53554,11.11168 13.63706,3.03046 9.59645,0 7.57614,-5.05077 2.0203,-6.56599 z"
       id="path3833"
       inkscape:connector-curvature="0" />
    <path
       style="fill:#ffffff;stroke:#000000;stroke-width:1px;stroke-linecap:butt;stroke-linejoin:miter;stroke-opacity:1"
       d="m 392.69679,934.42519 -2.52538,-9.59645 -7.57614,-31.81981 -6.56599,-5.05076 -6.06092,1.01015 -4.04061,1.51523 -3.03046,5.05076 1.01016,4.54569 11.11168,34.34519 1.01015,40.91117 6.06091,4.54569 8.5863,-1.01015 4.54569,-4.04061 z"
       id="path3927-3"
       inkscape:connector-curvature="0" />
    <path
       style="fill:#ffffff;stroke:#000000;stroke-width:1px;stroke-linecap:butt;stroke-linejoin:miter;stroke-opacity:1"
       d="m 331.07749,953.11302 -3.03046,-1.51523 -5.55584,1.01015 -24.24366,9.09137 -3.53554,3.53554 -2.0203,4.54568 -3.03046,62.62947 2.52538,5.0507 8.5863,3.5356 7.57614,-1.0102 2.52538,-6.0609 -0.50507,-52.52792 4.0406,-6.06091 18.68783,-8.08122 0,-6.56599 z"
       id="path4070"
       inkscape:connector-curvature="0"
       sodipodi:nodetypes="cccccccccccccccc" />
    <path
       style="fill:#666666;stroke:#000000;stroke-width:1px;stroke-linecap:butt;stroke-linejoin:miter;stroke-opacity:1"
       d="m 298.24753,986.95313 0,-21.21321 7.07107,-6.56599 6.56599,-4.04061 11.11168,-0.50508 6.56599,1.01016 2.0203,7.07106 -1.51523,11.11168 -1.51523,11.11168 -25.25381,8.58631 -5.55584,-2.5254 z"
       id="path4072"
       inkscape:connector-curvature="0" />
    <path
       style="fill:#666666;stroke:#000000;stroke-width:1px;stroke-linecap:butt;stroke-linejoin:miter;stroke-opacity:1"
       d="m 307.59144,989.73105 0,-21.21321 7.07107,-6.56599 6.56599,-4.04061 11.11168,-0.50508 6.56599,1.01016 2.0203,7.07106 -1.51523,11.11168 -1.51523,11.11168 -25.25381,8.58629 -5.55584,-2.5254 z"
       id="path4072-7"
       inkscape:connector-curvature="0" />
    <path
       style="fill:#ffffff;stroke:#000000;stroke-width:1px;stroke-linecap:butt;stroke-linejoin:miter;stroke-opacity:1"
       d="m 370.47344,960.43663 -9.09137,-4.04061 -11.61676,0.50507 -24.24366,9.09137 -3.53554,3.53554 -2.0203,4.54568 -3.03046,62.62942 2.52538,5.0508 8.5863,3.5355 7.57614,-1.0101 2.52538,-6.061 -0.50507,-45.45677 6.56598,-9.59648 18.68783,-7.57614 7.57615,-4.04061 z"
       id="path4070-3"
       inkscape:connector-curvature="0"
       sodipodi:nodetypes="cccccccccccccccc" />
    <path
       style="fill:#ffffff;stroke:#000000;stroke-width:1px;stroke-linecap:butt;stroke-linejoin:miter;stroke-opacity:1"
       d="m 74.246211,881.6464 -6.06091,-2.02031 -3.53554,2.52538 -2.52538,5.05076 -2.0203,29.7995 -1.51523,5.55584 -4.54569,11.11168 -6.06091,10.60662 -4.54569,8.5863 6.06092,6.56599 8.08122,0 5.55584,-7.07107 7.07106,-13.13198 6.56599,-16.16246 z"
       id="path3864"
       inkscape:connector-curvature="0" />
    <path
       style="fill:#ffffff;stroke:#000000;stroke-width:1px;stroke-linecap:butt;stroke-linejoin:miter;stroke-opacity:1"
       d="m 80.559661,949.57917 -6.566,-2.02031 -46.97209,-1.01015 -4.54568,2.02031 -5.55584,5.05076 -3.03046,5.05076 2.0203,57.57866 4.54569,3.5356 7.57615,-1.0102 6.06091,-1.5152 0,-42.42641 4.54569,-7.07107 37.88072,3.03045 6.56599,-5.05076 0,-6.56599 z"
       id="path4048"
       inkscape:connector-curvature="0"
       sodipodi:nodetypes="cccccccccccccccc" />
    <path
       sodipodi:type="arc"
       style="fill:#ffffff;stroke:#000000;stroke-width:3;stroke-linecap:round;stroke-linejoin:round;stroke-miterlimit:4;stroke-opacity:1;stroke-dasharray:none"
       id="path3045"
       sodipodi:cx="228.04193"
       sodipodi:cy="913.71875"
       sodipodi:rx="57.326157"
       sodipodi:ry="113.8947"
       d="m 285.1507,903.80946 a 57.326157,113.8947 0 1 1 -0.0264,-0.58426"
       sodipodi:start="6.1960712"
       sodipodi:end="12.474106"
       sodipodi:open="true"
       transform="matrix(0.30257001,0,0,0.15010363,24.692971,716.208)" />
    <path
       style="fill:#ffffff;stroke:#000000;stroke-width:1px;stroke-linecap:butt;stroke-linejoin:miter;stroke-opacity:1"
       d="m 107.83377,889.22084 -4.04061,-6.06092 -5.050759,-3.53553 -10.6066,-1.51523 -12.62691,3.03046 -5.05076,7.07106 1.01015,61.11426 3.53554,11.11168 13.63706,3.03046 9.59645,0 7.576139,-5.05077 2.0203,-6.56599 z"
       id="path3833-3"
       inkscape:connector-curvature="0" />
    <path
       style="fill:#ffffff;stroke:#000000;stroke-width:1px;stroke-linecap:butt;stroke-linejoin:miter;stroke-opacity:1"
       d="m 133.08758,931.89979 -2.52538,-9.59645 -7.57614,-31.81981 -6.56599,-5.05076 -6.06092,1.01015 -4.04061,1.51523 -3.03046,5.05076 1.01016,4.54569 11.11168,34.34519 1.01015,40.91124 6.06091,4.5456 8.5863,-1.0101 4.54569,-4.0406 z"
       id="path3927"
       inkscape:connector-curvature="0" />
    <path
       style="fill:#4d4d4d;stroke:#000000;stroke-width:1px;stroke-linecap:butt;stroke-linejoin:miter;stroke-opacity:1"
       d="m 46.972091,941.24541 -26.26396,-1.01016 -5.05077,2.52538 -1.51523,3.03046 -1.51522,5.05077 -1.01016,18.68782 35.86042,0.50507 z"
       id="path4268"
       inkscape:connector-curvature="0" />
    <path
       style="fill:#ffffff;stroke:#000000;stroke-width:1px;stroke-linecap:butt;stroke-linejoin:miter;stroke-opacity:1"
       d="m 106.57109,954.88247 16.66752,4.54568 6.06091,5.05076 3.03046,6.566 -1.01015,8.58629 -6.06092,63.1345 -8.58629,6.0609 -8.08122,-2.5253 -2.02031,-4.5457 2.52538,-63.63963 -9.596449,-2.0203 -4.04061,-7.07107 0,-6.06091 4.04061,-7.07107 z"
       id="path4270"
       inkscape:connector-curvature="0"
       sodipodi:nodetypes="ccccccccccccccc" />
    <path
       style="fill:#4d4d4d;stroke:#000000;stroke-width:1px;stroke-linecap:butt;stroke-linejoin:miter;stroke-opacity:1"
       d="m 86.873121,981.14643 0,-22.72843 3.03046,-4.54569 6.56598,0.50508 11.616759,6.06091 5.05077,8.08122 1.51522,6.566 0,24.74873 -6.06092,2.52535 -5.55584,-4.54565 z"
       id="path4272"
       inkscape:connector-curvature="0"
       sodipodi:nodetypes="ccccccccccc" />
    <path
       style="fill:none;stroke:#ff0000;stroke-width:3;stroke-linecap:butt;stroke-linejoin:miter;stroke-miterlimit:4;stroke-opacity:1;stroke-dasharray:none"
       d="m 35.355341,971.04491 18.18274,29.29439 37.88072,-8.08119"
       id="path4274"
       inkscape:connector-curvature="0"
       sodipodi:nodetypes="ccc" />
    <path
       style="fill:none;stroke:#ff0000;stroke-width:3;stroke-linecap:butt;stroke-linejoin:miter;stroke-miterlimit:4;stroke-opacity:1;stroke-dasharray:none"
       d="m 29.799501,975.08552 1.01015,-11.61676 12.12183,4.54569"
       id="path4276"
       inkscape:connector-curvature="0"
       sodipodi:nodetypes="ccc" />
    <path
       style="fill:none;stroke:#ff0000;stroke-width:3;stroke-linecap:butt;stroke-linejoin:miter;stroke-miterlimit:4;stroke-opacity:1;stroke-dasharray:none"
       d="m 87.883271,984.68196 11.11168,4.04062 -5.55584,11.11167"
       id="path4278"
       inkscape:connector-curvature="0"
       sodipodi:nodetypes="ccc" />
  </g>
</svg>
