<?xml version="1.0" encoding="UTF-8" standalone="no"?>
<!-- Created with Inkscape (http://www.inkscape.org/) -->

<svg
   xmlns:dc="http://purl.org/dc/elements/1.1/"
   xmlns:cc="http://creativecommons.org/ns#"
   xmlns:rdf="http://www.w3.org/1999/02/22-rdf-syntax-ns#"
   xmlns:svg="http://www.w3.org/2000/svg"
   xmlns="http://www.w3.org/2000/svg"
   xmlns:sodipodi="http://sodipodi.sourceforge.net/DTD/sodipodi-0.dtd"
   xmlns:inkscape="http://www.inkscape.org/namespaces/inkscape"
   width="744.09448819"
   height="1052.3622047"
   id="svg2"
   version="1.1"
   inkscape:version="0.48.4 r9939"
   sodipodi:docname="eq.08.svg">
  <defs
     id="defs4" />
  <sodipodi:namedview
     id="base"
     pagecolor="#ffffff"
     bordercolor="#666666"
     borderopacity="1.0"
     inkscape:pageopacity="0.0"
     inkscape:pageshadow="2"
     inkscape:zoom="1.4"
     inkscape:cx="299.34906"
     inkscape:cy="180.33124"
     inkscape:document-units="px"
     inkscape:current-layer="layer3"
     showgrid="false"
     inkscape:window-width="1240"
     inkscape:window-height="998"
     inkscape:window-x="2033"
     inkscape:window-y="19"
     inkscape:window-maximized="0" />
  <metadata
     id="metadata7">
    <rdf:RDF>
      <cc:Work
         rdf:about="">
        <dc:format>image/svg+xml</dc:format>
        <dc:type
           rdf:resource="http://purl.org/dc/dcmitype/StillImage" />
        <dc:title></dc:title>
      </cc:Work>
    </rdf:RDF>
  </metadata>
  <g
     inkscape:groupmode="layer"
     id="layer3"
     inkscape:label="image">
    <path
       style="fill:#4d4d4d;stroke:#000000;stroke-width:1px;stroke-linecap:butt;stroke-linejoin:miter;stroke-opacity:1"
       d="m 164.28571,790.93361 1.42857,15.71429 43.57143,-0.71429 10,5 7.14286,10.71429 -0.71429,5 -8.57143,178.5714 -5,8.5714 -9.28571,4.2857 -46.42857,-1.4285 34.28571,-90 27.85714,8.57143 1.42858,-9.28572 -25,-9.28571 33.57142,-77.85714 -5,-5.71429 -11.42857,-3.57143 -5,1.42857 -40.71428,98.57143 -4.28572,10.71429 -55.71428,-5.71429 -7.857137,2.85714 -3.571434,12.85715 5.714281,6.42857 25.71429,-0.71429 9.28571,2.14286 11.42857,11.42857 5,13.57143 0.71429,12.14286 -8.57143,21.42857 -47.142853,-2.8572 -6.428572,16.4286 119.999995,2.8571 15.71429,-10.7142 12.85714,-15.7143 7.85714,-196.42857 -4.28571,-10.71429 -20,-7.14285 -15,-2.85715 z"
       id="path4422"
       inkscape:connector-curvature="0" />
    <path
       style="fill:#4d4d4d;stroke:#000000;stroke-width:1px;stroke-linecap:butt;stroke-linejoin:miter;stroke-opacity:1"
       d="m 483.92857,799.8622 1.42857,15.71429 43.57143,-0.71429 10,5 7.14286,10.71429 -0.71429,5 -8.57143,178.57141 -5,8.5714 -9.28571,4.2857 -46.42857,-1.4285 34.28571,-90.00001 27.85714,8.57143 1.42858,-9.28572 -25,-9.28571 33.57142,-77.85714 -5,-5.71429 -11.42857,-3.57143 -5,1.42857 -40.71428,98.57143 -4.28572,10.71429 -55.71428,-5.71429 -7.85714,2.85714 -3.57144,12.85715 5.71429,6.42857 25.71429,-0.71429 9.28571,2.14286 11.42857,11.42857 5,13.57143 0.71429,12.14284 -8.57143,21.4286 -47.14286,-2.8572 -6.42857,16.4286 120,2.8571 15.71429,-10.7142 12.85714,-15.7143 7.85714,-196.42858 -4.28571,-10.71429 -20,-7.14285 -15,-2.85715 z"
       id="path4422-3"
       inkscape:connector-curvature="0" />
    <path
       style="fill:#4d4d4d;stroke:#000000;stroke-width:1px;stroke-linecap:butt;stroke-linejoin:miter;stroke-opacity:1"
       d="m 193.57143,771.64789 0,0 8.57143,-4.28571 6.42857,5 -11.42857,36.42857 -16.42857,-1.42857 -4.28572,-5.71429 3.57143,-5 3.57143,-3.57143 -32.14286,-7.85714 -7.85714,7.14286 -12.85715,36.42857 4.28572,10 23.57143,16.42857 4.28571,6.42857 -7.14285,35.71429 -11.42858,0 7.85715,-31.42857 -3.57143,-5.71429 L 135,849.50503 l -11.42857,-9.28571 -5,-10 18.57143,-50.71428 7.85714,-5 10,1.42857 32.14286,10 z"
       id="path4442"
       inkscape:connector-curvature="0"
       sodipodi:nodetypes="ccccccccccccccccccccccccccc" />
    <path
       sodipodi:type="arc"
       style="fill:#ffffff;stroke:#000000;stroke-width:1;stroke-linecap:round;stroke-linejoin:round;stroke-miterlimit:4;stroke-opacity:1;stroke-dasharray:none"
       id="path4462"
       sodipodi:cx="182.85715"
       sodipodi:cy="836.29077"
       sodipodi:rx="17.857143"
       sodipodi:ry="16.785715"
       d="m 200.64658,834.83035 a 17.857143,16.785715 0 1 1 -0.008,-0.0861"
       sodipodi:start="6.1960712"
       sodipodi:end="12.474106"
       sodipodi:open="true"
       transform="matrix(1.1949538,0,0,1.164847,-32.791546,-146.4315)" />
    <path
       sodipodi:type="arc"
       style="fill:#ffffff;stroke:#000000;stroke-width:1;stroke-linecap:round;stroke-linejoin:round;stroke-miterlimit:4;stroke-opacity:1;stroke-dasharray:none"
       id="path4462-5"
       sodipodi:cx="182.85715"
       sodipodi:cy="836.29077"
       sodipodi:rx="17.857143"
       sodipodi:ry="16.785715"
       d="m 200.64658,834.83035 a 17.857143,16.785715 0 1 1 -0.008,-0.0861"
       sodipodi:start="6.1960712"
       sodipodi:end="12.474106"
       sodipodi:open="true"
       transform="matrix(1.1949538,0,0,1.164847,287.92273,-136.07435)" />
    <path
       style="fill:#ffffff;stroke:#000000;stroke-width:1px;stroke-linecap:butt;stroke-linejoin:miter;stroke-opacity:1"
       d="m 166.42857,857.36218 5,-6.42857 12.85714,-2.85714 10,2.14286 5,4.28571 0,5 -32.85714,85.71429 -10,7.14285 L 145,951.6479 l -5,-3.57143 -7.14286,-7.14286 0,-7.14286 z"
       id="path4990"
       inkscape:connector-curvature="0" />
    <path
       style="fill:#ffffff;stroke:#000000;stroke-width:1px;stroke-linecap:butt;stroke-linejoin:miter;stroke-opacity:1"
       d="m 483.21428,865.93361 5,-6.42857 12.85714,-2.85714 10,2.14286 5,4.28571 0,5 -32.85714,85.71429 -10,7.14285 -11.42857,-0.71428 -5,-3.57143 -7.14286,-7.14286 0,-7.14286 z"
       id="path4990-0"
       inkscape:connector-curvature="0" />
    <path
       style="fill:#ffffff;stroke:#000000;stroke-width:1px;stroke-linecap:butt;stroke-linejoin:miter;stroke-opacity:1"
       d="M 184.28571,894.50504 170,868.79076 l -1.42857,-8.57143 4.28571,-5.71429 12.14286,-1.42857 5,0.71429 21.42857,55 0,5.71428 -4.28571,6.42857 -5,2.14286 -7.14286,-0.71429 -55,-17.14285 -5,-7.14286 1.42857,-8.57143 7.85714,-6.42857 5.71429,0.71429 44.28571,16.42857 z"
       id="path5010"
       inkscape:connector-curvature="0" />
    <path
       style="fill:#ffffff;stroke:#000000;stroke-width:1px;stroke-linecap:butt;stroke-linejoin:miter;stroke-opacity:1"
       d="m 34.285714,945.21933 87.857146,-15.71429 7.14285,2.14286 5.71429,10.71428 -7.85714,8.57143 -77.14286,15 -2.142857,4.28572 L 60,1029.505 l -5.714286,8.5715 -11.428571,2.1428 -8.571429,-10 -10,-72.14283 2.142857,-8.57143 z"
       id="path5016"
       inkscape:connector-curvature="0" />
    <path
       style="fill:#666666;stroke:#000000;stroke-width:1px;stroke-linecap:butt;stroke-linejoin:miter;stroke-opacity:1"
       d="m 504.28571,792.36218 7.14286,-11.42857 5.71428,-3.57143 8.57143,2.85715 -2.14285,7.14285 L 510,813.07647 l -10.71429,7.14286 -6.42857,-3.57143 0,-5 7.14286,-10.71429 -96.42857,-35.71428 -30,7.14285 -0.71429,7.14286 64.28571,2.85714 62.14287,24.28572 -0.7143,7.14286 -62.85714,-24.28572 -55,-2.85714 -10,65.71428 3.57143,3.57143 -0.71428,7.85715 -4.28572,0 -0.71428,5 15,-1.42858 -0.71429,5.71429 -7.85714,2.14286 -7.85715,5 -15.71428,-0.71429 8.57143,-5 0,-12.14286 -5,-5.71428 2.14285,-5.71429 5.71429,-0.71428 7.85714,-65 -9.28571,-0.71429 -2.85714,-12.14286 L 395,756.6479 l 14.28571,-0.71429 z"
       id="path5018"
       inkscape:connector-curvature="0"
       sodipodi:nodetypes="ccccccccccccccccccccccccccccccccccccccc" />
    <path
       style="fill:#ffffff;stroke:#000000;stroke-width:1px;stroke-linecap:butt;stroke-linejoin:miter;stroke-opacity:1"
       d="m 428.57143,940.21933 12.85714,-0.71429 5,8.57143 1.42857,9.28571 -15.71429,4.28572 -69.28571,12.85714 -2.14286,3.57143 11.42857,62.85713 -5.71428,3.5714 -14.28572,-1.4285 -5.71428,-5 -10.71429,-72.85717 6.42857,-9.28572 z"
       id="path5020"
       inkscape:connector-curvature="0" />
    <path
       style="fill:#ffffff;stroke:#000000;stroke-width:1px;stroke-linecap:butt;stroke-linejoin:miter;stroke-opacity:1"
       d="m 503.57143,866.64789 3.57142,7.85715 -4.28571,7.14286 -119.28571,0 -7.14286,-7.14286 1.42857,-8.57143 10.71429,-5 107.14285,2.14286 z"
       id="path5022"
       inkscape:connector-curvature="0"
       sodipodi:nodetypes="ccccccccc" />
  </g>
</svg>
