<?xml version="1.0" encoding="UTF-8"?>
<svg xmlns="http://www.w3.org/2000/svg" width="650" height="270" id="svg2">
	<style type="text/css">
		.equipment {fill:#4d4d4d;stroke:#000000;stroke-opacity:1}
		.body { fill:#ffffff;stroke:#000000;stroke-opacity:1 }
		.arrow { fill:#ff0000;stroke:#000000;stroke-opacity:1 }
	</style>  
  <path d="m 27.838798,61.683332 -8.586298,-6.06091 -6.060915,4.54569 -1.010152,5.05076 -0.505077,8.08122 28.789349,153.543178 243.951835,0.5051 0.50507,-85.86298 -5.05076,-5.55584 -5.05076,0 -4.54569,5.55584 1.01015,70.20558 -214.152328,-5.0508 z" id="path3854" class="equipment" />
  <path d="m 270.2754,151.08183 -217.687865,36.87054 2.525381,7.5761 215.667564,-36.87049 z" id="path3856" class="equipment" />
  <path d="m 586.95821,156.13259 -217.68787,36.87058 2.52539,7.5761 215.66756,-36.87053 z" id="path3856-2" class="equipment" />
  <path d="m 344.77415,63.198532 -8.58629,-6.06091 -6.06092,4.54569 -1.01015,5.05076 -0.50508,8.08122 28.78935,153.543178 243.95184,0.5051 0.50507,-85.86298 -5.05076,-5.55584 -5.05076,0 -4.54569,5.55584 1.01015,70.20558 -214.15233,-5.0508 z" id="path3854-6" class="equipment" />
  <path d="m 196.53426,41.480282 8.08123,8.08122 -23.73859,66.164998 -11.61675,13.13198 14.14213,25.75889 -8.58629,1.51523 -11.11168,-19.69798 -12.62691,16.16244 5.05076,7.57615 27.7792,-5.55584 1.01015,5.55584 -6.56599,15.65736 -31.31473,13.637 -32.32488,-15.15223 -7.57614,-6.56599 -25.253811,-13.63706 1.515229,-5.05076 7.576144,-1.51523 12.626908,-3.53553 18.68781,1.51523 38.3858,-40.40611 18.68782,-41.416248 5.55584,-13.63706 z" id="path3907" class="equipment" />
  <path d="m 579.63461,31.126212 8.08123,8.08122 -23.73859,66.164998 -11.61675,13.13198 14.14213,25.75889 -8.58629,1.51523 -11.11168,-19.69798 -12.62691,16.16244 5.05076,7.57615 27.7792,-5.55584 1.01015,5.55584 -6.56599,15.65736 -31.31473,13.63707 -32.32488,-15.1523 -7.57615,-6.56599 -25.25381,-13.63706 1.51523,-5.05076 7.57614,-1.51523 12.62691,-3.53553 18.68782,1.51523 38.3858,-40.406108 18.68782,-41.41625 5.55584,-13.63706 z" id="path3907-8" class="equipment" />
  <path d="m 192.49365,36.429522 a 15.15229,15.15229 0 0 1 -30.30458,0 15.15229,15.15229 0 1 1 30.30458,0 z" id="path3927" class="body" />
  <path d="m 576.8567,26.327982 a 15.15229,15.15229 0 0 1 -30.30458,0 15.15229,15.15229 0 1 1 30.30458,0 z" id="path3927-9" class="body" />
  <path d="m 157.64339,62.188412 6.56599,-4.04061 4.54569,-3.03046 5.55584,2.52538 4.54569,3.53554 0.50507,5.05076 -0.50507,7.07107 -41.92134,67.680218 -14.64721,-9.09137 z" id="path3961" class="body" />
  <path d="m 537.71329,49.056422 6.56599,-4.04061 4.54569,-3.03046 5.55584,2.52538 4.54569,3.53554 0.50507,5.05076 -0.50507,7.07107 -41.92134,67.680218 -14.64721,-9.09137 z" id="path3961-9" class="body" />
  <path d="m 107.64085,75.320392 3.03045,2.52539 3.03046,3.53553 20.20305,52.527928 -19.69798,11.11168 -17.172587,-47.477168 -3.53553,-1.51523 -4.04061,1.01015 -42.426407,11.616758 -7.071068,-2.02031 -3.030457,-3.03045 -2.525382,-6.060918 0.505077,-5.55584 8.08122,-5.05076 58.588844,-13.13199 z" id="path4030" class="body" />
  <path d="m 147.54186,113.95873 9.09138,-41.921328 3.53553,-5.55584 5.55584,-3.53553 5.55584,1.01015 3.53553,4.04061 1.01016,5.05077 -12.62691,47.477168 -31.31473,33.33503 -6.56599,2.52538 -5.05076,-4.04061 -4.04062,-4.54569 0,-4.54568 z" id="path3963" class="body" />
  <path d="m 363.71451,92.492982 -4.54569,2.52538 -5.05076,6.060918 0,6.56599 2.02031,4.54569 5.05076,-0.50508 59.599,-1.51523 70.71068,23.23351 8.08122,2.52538 7.57614,-11.11168 1.51523,-4.04061 -75.76144,-26.769038 -7.57614,-3.03046 -4.54569,0 -5.55584,0.50508 z" id="path4059" class="body" />
  <path d="m 529.8846,100.32166 9.09138,-41.921328 3.53553,-5.55584 5.55584,-3.53553 5.55584,1.01015 3.53553,4.04061 1.01016,5.05077 -12.62691,47.477168 -31.31473,33.33503 -6.56599,2.52538 -5.05076,-4.04061 -4.04062,-4.54569 0,-4.54568 z" id="path3963-2" class="body" />
</svg>
