<?xml version="1.0" encoding="UTF-8" standalone="no"?>
<!-- Created with Inkscape (http://www.inkscape.org/) -->

<svg
   xmlns:dc="http://purl.org/dc/elements/1.1/"
   xmlns:cc="http://creativecommons.org/ns#"
   xmlns:rdf="http://www.w3.org/1999/02/22-rdf-syntax-ns#"
   xmlns:svg="http://www.w3.org/2000/svg"
   xmlns="http://www.w3.org/2000/svg"
   xmlns:sodipodi="http://sodipodi.sourceforge.net/DTD/sodipodi-0.dtd"
   xmlns:inkscape="http://www.inkscape.org/namespaces/inkscape"
   width="744.09448819"
   height="1052.3622047"
   id="svg2"
   version="1.1"
   inkscape:version="0.48.4 r9939"
   sodipodi:docname="eq.12.svg">
  <defs
     id="defs4" />
  <sodipodi:namedview
     id="base"
     pagecolor="#ffffff"
     bordercolor="#666666"
     borderopacity="1.0"
     inkscape:pageopacity="0.0"
     inkscape:pageshadow="2"
     inkscape:zoom="1.4"
     inkscape:cx="213.7946"
     inkscape:cy="208.06557"
     inkscape:document-units="px"
     inkscape:current-layer="layer3"
     showgrid="false"
     inkscape:window-width="1240"
     inkscape:window-height="998"
     inkscape:window-x="2033"
     inkscape:window-y="19"
     inkscape:window-maximized="0" />
  <metadata
     id="metadata7">
    <rdf:RDF>
      <cc:Work
         rdf:about="">
        <dc:format>image/svg+xml</dc:format>
        <dc:type
           rdf:resource="http://purl.org/dc/dcmitype/StillImage" />
        <dc:title />
      </cc:Work>
    </rdf:RDF>
  </metadata>
  <g
     inkscape:groupmode="layer"
     id="layer3"
     inkscape:label="image">
    <path
       style="fill:#4d4d4d;stroke:#000000;stroke-width:1px;stroke-linecap:butt;stroke-linejoin:miter;stroke-opacity:1"
       d="m 94.285711,1033.7908 0.71429,-4.2857 0,-66.42863 -17.85714,0.71429 -0.71429,-87.85715 -52.857143,0.71429 0,-13.57143 52.857143,0 0.71429,-27.85714 50.714279,0 0,29.28571 57.14286,10e-6 1.42857,14.99999 -57.85714,-0.71428 0,85 -19.28572,0 -0.71428,71.42864 z"
       id="path7365"
       inkscape:connector-curvature="0"
       sodipodi:nodetypes="cccccccccccccccccc" />
    <path
       style="fill:#4d4d4d;stroke:#000000;stroke-width:1px;stroke-linecap:butt;stroke-linejoin:miter;stroke-opacity:1"
       d="m 195,871.6479 4.99999,10 -0.71428,19.28571 10.71429,0 -1.42857,-31.42857 L 200,858.79076 183.57143,851.6479 130,858.07647 80.714281,859.50504 38.571428,853.07647 25,855.93361 l -10.714286,7.14286 -8.5714286,12.14286 0,21.42857 11.4285716,1.42857 1.428571,-20.71428 5,-10 20.714286,-0.71429 38.571427,8.57143 47.142859,0 29.28571,-10.71429 20.00001,-2.14285 12.14285,4.28571 z"
       id="path7367"
       inkscape:connector-curvature="0"
       sodipodi:nodetypes="cccccccccccccccccccccccc" />
    <path
       style="fill:#4d4d4d;stroke:#000000;stroke-width:1px;stroke-linecap:butt;stroke-linejoin:miter;stroke-opacity:1"
       d="m 165,863.07647 3.57143,-6.42857 40,19.28571 -5.71429,7.85715 z"
       id="path7369"
       inkscape:connector-curvature="0" />
    <path
       style="fill:#4d4d4d;stroke:#000000;stroke-width:1px;stroke-linecap:butt;stroke-linejoin:miter;stroke-opacity:1"
       d="m 12.857142,876.6479 30,-18.57143 5.714287,7.14285 -30.714287,17.85715 z"
       id="path7371"
       inkscape:connector-curvature="0"
       sodipodi:nodetypes="ccccc" />
    <path
       sodipodi:type="arc"
       style="fill:#ffffff;fill-opacity:1;stroke:#000000;stroke-width:1;stroke-linecap:round;stroke-linejoin:round;stroke-miterlimit:4;stroke-opacity:1;stroke-dasharray:none"
       id="path7373"
       sodipodi:cx="153.57143"
       sodipodi:cy="828.79077"
       sodipodi:rx="20"
       sodipodi:ry="19.285715"
       d="m 173.49559,827.11284 a 20,19.285715 0 1 1 -0.009,-0.0989"
       sodipodi:start="6.1960712"
       sodipodi:end="12.474106"
       sodipodi:open="true"
       transform="translate(-47.142857,6.4285714)" />
    <path
       style="fill:#ffffff;stroke:#000000;stroke-width:1px;stroke-linecap:butt;stroke-linejoin:miter;stroke-opacity:1"
       d="m 85.000001,868.07647 7.85714,-10.71428 7.857139,-1.42858 9.28572,-0.71428 9.28571,7.85714 5.71429,7.14286 -4.28572,66.42857 9.28572,2.14286 13.57143,27.85714 -4.28572,65.7143 -10.71428,8.5715 -10,-2.8572 -2.14286,-12.1428 5,-61.42866 -14.28571,-22.85714 -11.428579,0 -15,22.14286 2.14286,65.71434 -8.57143,7.1428 -9.28571,0 -7.14286,-7.1428 0,-68.57149 16.42857,-25 9.28572,-2.85714 z"
       id="path7375"
       inkscape:connector-curvature="0" />
    <path
       style="fill:#4d4d4d;stroke:#000000;stroke-width:1px;stroke-linecap:butt;stroke-linejoin:miter;stroke-opacity:1"
       d="m 382.14286,1038.0765 0.71429,-4.2857 0,-66.42864 -17.85714,0.71429 -0.71429,-87.85715 -52.85714,0.71429 0,-13.57143 52.85714,0 0.71429,-27.85714 50.71428,0 0,29.28571 57.14286,10e-6 1.42857,14.99999 -57.85714,-0.71428 0,85 -19.28572,0 -0.71428,71.42865 z"
       id="path7365-3"
       inkscape:connector-curvature="0"
       sodipodi:nodetypes="cccccccccccccccccc" />
    <path
       style="fill:#4d4d4d;stroke:#000000;stroke-width:1px;stroke-linecap:butt;stroke-linejoin:miter;stroke-opacity:1"
       d="m 397.85714,790.21933 -61.42857,82.14286 -15,-2.14286 71.42857,-89.28572 -13.57143,-3.57142 -22.85714,10 -12.85714,0 2.85714,-24.28572 10.71429,0.71429 -4.28572,15.71428 28.57143,-11.42857 7.14286,0 10,6.42857 9.28571,-6.42857 15.71429,-2.14286 28.57143,16.42858 -5,-14.28572 7.14285,-2.14286 7.14286,19.28572 -8.57143,5.71428 -31.42857,-12.85714 -15.71428,4.28572 51.42857,91.42857 -10.71429,0.71428 z"
       id="path7406"
       inkscape:connector-curvature="0" />
    <path
       style="fill:#4d4d4d;stroke:#000000;stroke-width:1px;stroke-linecap:butt;stroke-linejoin:miter;stroke-opacity:1"
       d="M 346.42857,762.36219 345,769.50504 l 40,14.28572 4.28571,-9.28572 z"
       id="path7408"
       inkscape:connector-curvature="0"
       sodipodi:nodetypes="ccccc" />
    <path
       style="fill:#4d4d4d;stroke:#000000;stroke-width:1px;stroke-linecap:butt;stroke-linejoin:miter;stroke-opacity:1"
       d="M 452.85714,765.93361 415,775.21933 l 5.71429,10 36.42857,-12.14286 z"
       id="path7410"
       inkscape:connector-curvature="0" />
    <path
       sodipodi:type="arc"
       style="fill:#ffffff;fill-opacity:1;stroke:#000000;stroke-width:1;stroke-linecap:round;stroke-linejoin:round;stroke-miterlimit:4;stroke-opacity:1;stroke-dasharray:none"
       id="path7373-7"
       sodipodi:cx="153.57143"
       sodipodi:cy="828.79077"
       sodipodi:rx="20"
       sodipodi:ry="19.285715"
       d="m 173.49559,827.11284 a 20,19.285715 0 1 1 -0.009,-0.0989"
       sodipodi:start="6.1960712"
       sodipodi:end="12.474106"
       sodipodi:open="true"
       transform="translate(240,5.71426)" />
    <path
       style="fill:#ffffff;stroke:#000000;stroke-width:1px;stroke-linecap:butt;stroke-linejoin:miter;stroke-opacity:1"
       d="m 372.14285,868.79073 7.85714,-10.71428 7.85715,-1.42858 9.28571,-0.71428 9.28571,7.85714 5.71429,7.14286 -4.28571,66.42857 9.28571,2.14286 13.57143,27.85714 -4.28572,65.71434 -10.71428,8.5715 -10,-2.8572 -2.14285,-12.1428 5,-61.4287 -14.28571,-22.85714 -11.42858,0 -15,22.14286 2.14285,65.71438 -8.57143,7.1428 -9.28571,0 -7.14286,-7.1428 0,-68.57153 16.42857,-25 9.28572,-2.85714 z"
       id="path7375-7"
       inkscape:connector-curvature="0" />
    <path
       style="fill:#ffffff;stroke:#000000;stroke-width:1px;stroke-linecap:butt;stroke-linejoin:miter;stroke-opacity:1"
       d="m 62.142861,884.50504 -20.71429,-20 -8.571429,0 -5,7.14286 2.857143,8.57143 L 55,908.79076 l 14.285711,0.71428 16.42857,-31.42857 2.14286,-10 -11.42857,-8.57143 -7.85714,4.28572 z"
       id="path7448"
       inkscape:connector-curvature="0" />
    <path
       style="fill:#ffffff;stroke:#000000;stroke-width:1px;stroke-linecap:butt;stroke-linejoin:miter;stroke-opacity:1"
       d="m 123.57143,865.21933 -4.28572,11.42857 17.14286,34.28571 12.14286,2.14286 32.85714,-32.14286 -2.14286,-15.71428 -7.14285,-1.42857 -25,22.14285 -7.14286,-20 -10,-5.71428 z"
       id="path7450"
       inkscape:connector-curvature="0" />
    <path
       style="fill:#ffffff;stroke:#000000;stroke-width:1px;stroke-linecap:butt;stroke-linejoin:miter;stroke-opacity:1"
       d="m 370,873.79076 -9.28571,-4.28572 -17.85715,-32.14285 -2.14285,-11.42858 22.85714,-45.71428 7.85714,-4.28572 9.28572,2.85715 1.42857,9.28571 -20.71429,42.14286 20.71429,30.71428 L 380,868.07647 z"
       id="path7452"
       inkscape:connector-curvature="0" />
    <path
       style="fill:#ffffff;stroke:#000000;stroke-width:1px;stroke-linecap:butt;stroke-linejoin:miter;stroke-opacity:1"
       d="m 405.71429,859.50504 0,8.57143 6.42857,5.71429 10.71428,-1.42857 24.28572,-35 2.14285,-8.57143 -18.57142,-48.57143 -10,-2.14286 -7.14286,4.28572 -0.71429,8.57142 13.57143,42.14286 z"
       id="path7454"
       inkscape:connector-curvature="0" />
  </g>
</svg>
