<?xml version="1.0" encoding="UTF-8" standalone="no"?>
<!-- Created with Inkscape (http://www.inkscape.org/) -->

<svg
   xmlns:dc="http://purl.org/dc/elements/1.1/"
   xmlns:cc="http://creativecommons.org/ns#"
   xmlns:rdf="http://www.w3.org/1999/02/22-rdf-syntax-ns#"
   xmlns:svg="http://www.w3.org/2000/svg"
   xmlns="http://www.w3.org/2000/svg"
   xmlns:sodipodi="http://sodipodi.sourceforge.net/DTD/sodipodi-0.dtd"
   xmlns:inkscape="http://www.inkscape.org/namespaces/inkscape"
   width="744.09448819"
   height="1052.3622047"
   id="svg2"
   version="1.1"
   inkscape:version="0.48.4 r9939"
   sodipodi:docname="eq.19.svg">
  <defs
     id="defs4" />
  <sodipodi:namedview
     id="base"
     pagecolor="#ffffff"
     bordercolor="#666666"
     borderopacity="1.0"
     inkscape:pageopacity="0.0"
     inkscape:pageshadow="2"
     inkscape:zoom="1.979899"
     inkscape:cx="254.40508"
     inkscape:cy="138.71784"
     inkscape:document-units="px"
     inkscape:current-layer="layer3"
     showgrid="false"
     inkscape:window-width="1240"
     inkscape:window-height="998"
     inkscape:window-x="2033"
     inkscape:window-y="19"
     inkscape:window-maximized="0" />
  <metadata
     id="metadata7">
    <rdf:RDF>
      <cc:Work
         rdf:about="">
        <dc:format>image/svg+xml</dc:format>
        <dc:type
           rdf:resource="http://purl.org/dc/dcmitype/StillImage" />
        <dc:title></dc:title>
      </cc:Work>
    </rdf:RDF>
  </metadata>
  <g
     inkscape:groupmode="layer"
     id="layer3"
     inkscape:label="image">
    <path
       style="fill:#666666;stroke:#000000;stroke-width:1px;stroke-linecap:butt;stroke-linejoin:miter;stroke-opacity:1"
       d="m 104.04571,781.6413 -53.538083,12.12183 44.951788,232.84017 -81.317279,-1.5152 0,12.6269 189.403604,2.0203 -1.51523,-13.132 -95.96449,-1.0101 -5.05077,-22.2234 38.89088,2.5254 26.76904,-8.08125 0.50508,-18.18275 -64.14469,-0.50508 -5.050764,7.57615 -8.586297,-44.95179 15.657361,-8.5863 -23.233504,-116.67262 -18.687822,3.53554 -4.040611,-16.16244 41.921327,-7.57615 z"
       id="path4883"
       inkscape:connector-curvature="0"
       sodipodi:nodetypes="ccccccccccccccccccccc" />
    <path
       sodipodi:type="arc"
       style="fill:#ffffff;fill-opacity:1;stroke:#000000;stroke-width:1;stroke-linecap:round;stroke-linejoin:round;stroke-miterlimit:4;stroke-opacity:1;stroke-dasharray:none"
       id="path4885"
       sodipodi:cx="94.954338"
       sodipodi:cy="856.39258"
       sodipodi:rx="19.697975"
       sodipodi:ry="19.697975"
       d="m 114.57762,854.67878 a 19.697975,19.697975 0 1 1 -0.009,-0.10105"
       sodipodi:start="6.1960712"
       sodipodi:end="12.474106"
       sodipodi:open="true"
       transform="translate(6.0609152,2.0203051)" />
    <path
       style="fill:#ffffff;stroke:#000000;stroke-width:1px;stroke-linecap:butt;stroke-linejoin:miter;stroke-opacity:1"
       d="m 105.05586,881.14133 -12.626903,3.03046 -5.050762,6.06091 16.162445,83.84266 4.54568,9.09137 8.5863,2.02031 14.14213,-3.53554 37.37565,0 3.03046,36.3655 6.56599,10.1015 11.61675,0.5051 10.10153,-8.0812 -5.05077,-51.5178 -8.08122,-10.10153 -55.05331,-1.01015 -13.63706,-69.70052 z"
       id="path4887"
       inkscape:connector-curvature="0" />
    <path
       style="fill:#ffffff;stroke:#000000;stroke-width:1px;stroke-linecap:butt;stroke-linejoin:miter;stroke-opacity:1"
       d="m 108.08632,892.25301 -5.05076,-11.61676 -12.626908,-1.01015 -5.050763,7.57614 -11.616754,29.29443 -2.525381,6.06091 2.525381,5.05076 63.639615,-5.05076 2.52538,-6.06091 -1.01016,-5.55584 -42.931479,1.01015 z"
       id="path5478"
       inkscape:connector-curvature="0" />
    <path
       style="fill:#666666;stroke:#000000;stroke-width:1px;stroke-linecap:butt;stroke-linejoin:miter;stroke-opacity:1"
       d="m 81.317279,783.66161 1.010153,-4.54569 11.111678,-3.53553 40.91118,101.01525 2.52538,11.61676 -9.59645,41.92133 -2.52538,10.10152 3.53553,10.6066 37.88072,76.26655 -13.63706,-0.5051 -35.86041,-77.27668 0.50507,-20.70813 10.10153,-34.85025 -2.52539,-12.62691 -4.54568,-14.64721 -36.870566,-81.82236 z"
       id="path4889"
       inkscape:connector-curvature="0"
       sodipodi:nodetypes="ccccccccccccccccc" />
    <path
       style="fill:#666666;stroke:#000000;stroke-width:1px;stroke-linecap:butt;stroke-linejoin:miter;stroke-opacity:1"
       d="m 136.87567,913.46621 3.03046,6.56599 5.05076,3.03046 9.09137,-8.5863 7.07107,-45.96194 -59.09392,-93.94419 -7.576148,0 -4.04061,3.03046 47.477168,93.43911 z"
       id="path4891"
       inkscape:connector-curvature="0" />
    <path
       sodipodi:type="arc"
       style="fill:#666666;fill-opacity:1;stroke:#000000;stroke-width:1;stroke-linecap:round;stroke-linejoin:round;stroke-miterlimit:4;stroke-opacity:1;stroke-dasharray:none"
       id="path4893"
       sodipodi:cx="144.70435"
       sodipodi:cy="875.08038"
       sodipodi:rx="29.546961"
       sodipodi:ry="29.294424"
       d="m 174.13926,872.53165 a 29.546961,29.294424 0 1 1 -0.0136,-0.15027"
       sodipodi:start="6.1960712"
       sodipodi:end="12.474106"
       sodipodi:open="true"
       transform="translate(11.616754,-4.0406102)" />
    <path
       style="fill:#666666;stroke:#000000;stroke-width:1px;stroke-linecap:butt;stroke-linejoin:miter;stroke-opacity:1"
       d="m 432.59783,783.91414 -53.53809,12.12183 44.95179,232.84013 -81.31728,-1.5152 0,12.6269 189.4036,2.0203 -1.51523,-13.132 -95.96448,-1.0101 -5.05077,-22.2234 38.89087,2.5254 26.76904,-8.0812 0.50508,-18.18276 -64.14468,-0.50508 -5.05077,7.57615 -8.58629,-44.95179 15.65736,-8.5863 -23.23351,-116.67262 -18.68782,3.53554 -4.04061,-16.16244 41.92133,-7.57615 z"
       id="path4883-7"
       inkscape:connector-curvature="0"
       sodipodi:nodetypes="ccccccccccccccccccccc" />
    <path
       sodipodi:type="arc"
       style="fill:#ffffff;fill-opacity:1;stroke:#000000;stroke-width:1;stroke-linecap:round;stroke-linejoin:round;stroke-miterlimit:4;stroke-opacity:1;stroke-dasharray:none"
       id="path4885-1"
       sodipodi:cx="94.954338"
       sodipodi:cy="856.39258"
       sodipodi:rx="19.697975"
       sodipodi:ry="19.697975"
       d="m 114.57762,854.67878 a 19.697975,19.697975 0 1 1 -0.009,-0.10105"
       sodipodi:start="6.1960712"
       sodipodi:end="12.474106"
       sodipodi:open="true"
       transform="translate(334.61303,4.2931437)" />
    <path
       style="fill:#ffffff;stroke:#000000;stroke-width:1px;stroke-linecap:butt;stroke-linejoin:miter;stroke-opacity:1"
       d="m 433.60798,883.41417 -12.62691,3.03046 -5.05076,6.06091 16.16245,83.84266 4.54568,9.09137 8.58629,2.02031 14.14213,-3.53554 37.37565,0 3.03046,36.36546 6.56599,10.1015 11.61675,0.5051 10.10153,-8.0812 -5.05077,-51.51776 -8.08122,-10.10153 -55.05331,-1.01015 -13.63706,-69.70052 z"
       id="path4887-0"
       inkscape:connector-curvature="0" />
    <path
       style="fill:#ffffff;stroke:#000000;stroke-width:1px;stroke-linecap:butt;stroke-linejoin:miter;stroke-opacity:1"
       d="m 422.74883,904.87991 -7.57614,-4.0406 2.52538,-10.10153 4.54569,-5.05077 115.66247,-8.58629 6.56599,6.56599 0.50507,7.57614 -11.11167,4.54569 -102.53049,11.11168 z"
       id="path5480"
       inkscape:connector-curvature="0"
       sodipodi:nodetypes="cccccccccc" />
    <path
       style="fill:#666666;stroke:#000000;stroke-width:1px;stroke-linecap:butt;stroke-linejoin:miter;stroke-opacity:1"
       d="m 409.8694,785.93445 1.01015,-4.54569 11.11168,-3.53553 40.91117,101.01525 2.52538,11.61676 -9.59645,41.92133 -2.52538,10.10152 3.53553,10.6066 37.88072,76.26651 -13.63706,-0.5051 -35.86041,-77.27664 0.50507,-20.70813 10.10153,-34.85025 -2.52539,-12.62691 -4.54568,-14.64721 -36.87056,-81.82236 z"
       id="path4889-3"
       inkscape:connector-curvature="0"
       sodipodi:nodetypes="ccccccccccccccccc" />
    <path
       style="fill:#666666;stroke:#000000;stroke-width:1px;stroke-linecap:butt;stroke-linejoin:miter;stroke-opacity:1"
       d="m 425.27422,782.65145 -0.50508,-6.56599 6.56599,-0.50507 109.09648,46.46701 17.17259,55.55839 -5.05076,6.06092 -7.57615,-1.51523 -18.68782,-39.39595 -96.46957,-53.53808 z"
       id="path4950"
       inkscape:connector-curvature="0" />
    <path
       sodipodi:type="arc"
       style="fill:#666666;fill-opacity:1;stroke:#000000;stroke-width:1;stroke-linecap:round;stroke-linejoin:round;stroke-miterlimit:4;stroke-opacity:1;stroke-dasharray:none"
       id="path4893-8"
       sodipodi:cx="144.70435"
       sodipodi:cy="875.08038"
       sodipodi:rx="29.546961"
       sodipodi:ry="29.294424"
       d="m 174.13926,872.53165 a 29.546961,29.294424 0 1 1 -0.0136,-0.15027"
       sodipodi:start="6.1960712"
       sodipodi:end="12.474106"
       sodipodi:open="true"
       transform="translate(389.16127,-40.911162)" />
  </g>
</svg>
