<?xml version="1.0" encoding="UTF-8" standalone="no"?>
<!-- Created with Inkscape (http://www.inkscape.org/) -->

<svg
   xmlns:dc="http://purl.org/dc/elements/1.1/"
   xmlns:cc="http://creativecommons.org/ns#"
   xmlns:rdf="http://www.w3.org/1999/02/22-rdf-syntax-ns#"
   xmlns:svg="http://www.w3.org/2000/svg"
   xmlns="http://www.w3.org/2000/svg"
   xmlns:sodipodi="http://sodipodi.sourceforge.net/DTD/sodipodi-0.dtd"
   xmlns:inkscape="http://www.inkscape.org/namespaces/inkscape"
   width="744.09448819"
   height="1052.3622047"
   id="svg2"
   version="1.1"
   inkscape:version="0.48.4 r9939"
   sodipodi:docname="eq.10.svg">
  <defs
     id="defs4" />
  <sodipodi:namedview
     id="base"
     pagecolor="#ffffff"
     bordercolor="#666666"
     borderopacity="1.0"
     inkscape:pageopacity="0.0"
     inkscape:pageshadow="2"
     inkscape:zoom="1.4"
     inkscape:cx="231.17679"
     inkscape:cy="180.33124"
     inkscape:document-units="px"
     inkscape:current-layer="layer3"
     showgrid="false"
     inkscape:window-width="1240"
     inkscape:window-height="998"
     inkscape:window-x="1570"
     inkscape:window-y="64"
     inkscape:window-maximized="0" />
  <metadata
     id="metadata7">
    <rdf:RDF>
      <cc:Work
         rdf:about="">
        <dc:format>image/svg+xml</dc:format>
        <dc:type
           rdf:resource="http://purl.org/dc/dcmitype/StillImage" />
        <dc:title />
      </cc:Work>
    </rdf:RDF>
  </metadata>
  <g
     inkscape:groupmode="layer"
     id="layer3"
     inkscape:label="image">
    <path
       style="fill:#4d4d4d;stroke:#000000;stroke-width:1px;stroke-linecap:butt;stroke-linejoin:miter;stroke-opacity:1"
       d="M 164.28571,815.21933 185,818.07647 l -6.42858,42.14286 28.57143,19.28571 -7.85714,14.28572 -33.57143,-25 5.71429,-37.85714 L 160,829.50504 z"
       id="path5983"
       inkscape:connector-curvature="0"
       sodipodi:nodetypes="ccccccccc" />
    <path
       style="fill:#4d4d4d;stroke:#000000;stroke-width:1px;stroke-linecap:butt;stroke-linejoin:miter;stroke-opacity:1"
       d="m 470,848.07648 13.57142,-5 12.14286,32.14285 -67.14286,27.14286 -5.71428,-15 54.28571,-20.71429 z"
       id="path5991"
       inkscape:connector-curvature="0"
       sodipodi:nodetypes="ccccccc" />
    <path
       sodipodi:type="arc"
       style="fill:#4d4d4d;fill-opacity:1;stroke:#000000;stroke-width:1;stroke-linecap:round;stroke-linejoin:round;stroke-miterlimit:4;stroke-opacity:1;stroke-dasharray:none"
       id="path5985"
       sodipodi:cx="216.78572"
       sodipodi:cy="788.79077"
       sodipodi:rx="13.214286"
       sodipodi:ry="12.857142"
       d="m 229.9499,787.67215 a 13.214286,12.857142 0 1 1 -0.006,-0.066"
       sodipodi:start="6.1960712"
       sodipodi:end="12.474106"
       sodipodi:open="true"
       transform="translate(-58.928578,32.142835)" />
    <path
       sodipodi:type="arc"
       style="fill:#4d4d4d;stroke:#000000;stroke-width:1;stroke-linecap:round;stroke-linejoin:round;stroke-miterlimit:4;stroke-opacity:1;stroke-dasharray:none"
       id="path5985-0"
       sodipodi:cx="216.78572"
       sodipodi:cy="788.79077"
       sodipodi:rx="13.214286"
       sodipodi:ry="12.857142"
       d="m 229.9499,787.67215 a 13.214286,12.857142 0 1 1 -0.006,-0.066"
       sodipodi:start="6.1960712"
       sodipodi:end="12.474106"
       sodipodi:open="true"
       transform="translate(260.35713,57.85712)" />
    <path
       sodipodi:type="arc"
       style="fill:#ffffff;fill-opacity:1;stroke:#000000;stroke-width:1;stroke-linecap:round;stroke-linejoin:round;stroke-miterlimit:4;stroke-opacity:1;stroke-dasharray:none"
       id="path5987-9"
       sodipodi:cx="245.71428"
       sodipodi:cy="777.7193"
       sodipodi:rx="5.7142859"
       sodipodi:ry="6.0714288"
       d="m 251.4069,777.19106 a 5.7142859,6.0714288 0 1 1 -0.003,-0.0311"
       sodipodi:start="6.1960712"
       sodipodi:end="12.474106"
       sodipodi:open="true"
       transform="translate(-88.571422,43.928595)" />
    <path
       sodipodi:type="arc"
       style="fill:#ffffff;fill-opacity:1;stroke:#000000;stroke-width:1;stroke-linecap:round;stroke-linejoin:round;stroke-miterlimit:4;stroke-opacity:1;stroke-dasharray:none"
       id="path5987"
       sodipodi:cx="245.71428"
       sodipodi:cy="777.7193"
       sodipodi:rx="5.7142859"
       sodipodi:ry="6.0714288"
       d="m 251.4069,777.19106 a 5.7142859,6.0714288 0 1 1 -0.003,-0.0311"
       sodipodi:start="6.1960712"
       sodipodi:end="12.474106"
       sodipodi:open="true"
       transform="translate(231.42858,68.928595)" />
    <path
       style="fill:#4d4d4d;stroke:#000000;stroke-width:1px;stroke-linecap:butt;stroke-linejoin:miter;stroke-opacity:1"
       d="m 211.42857,875.21933 -3.57143,-6.42857 -9.28572,-1.42857 -27.14285,34.28571 -7.14286,23.57143 -4.28571,17.85714 -4.28572,-13.57143 -22.14286,-10 -20.71428,8.57143 -8.57143,7.85715 5,9.28571 0.71429,6.42857 -34.999996,56.4286 -1.42858,15.7143 -13.57142,-2.8572 -9.28572,-21.42856 -46.4285697,-10 2.142857,11.42856 34.2857137,7.1429 12.142859,21.4286 7.85714,5 9.28572,1.4285 -0.71429,6.4286 16.42857,-1.4286 0,-24.2857 32.142856,-56.42857 8.57143,-1.42857 37.85714,13.57143 14.28571,2.14285 8.57143,-4.28571 7.85715,-6.42857 30,-85.71429 -2.85715,-4.28571 -5.71428,-1.42857 z"
       id="path6573"
       inkscape:connector-curvature="0" />
    <path
       style="fill:#4d4d4d;stroke:#000000;stroke-width:1px;stroke-linecap:butt;stroke-linejoin:miter;stroke-opacity:1"
       d="m 461.78571,875.57647 -3.57143,-6.42857 -9.28572,-1.42857 -27.14285,34.28571 -7.14286,23.57143 -4.28571,17.85714 -4.28572,-13.57143 -22.14286,-10 -20.71428,8.57143 -8.57143,7.85715 5,9.28571 0.71429,6.42857 -35,56.42866 -1.42858,15.7143 -13.57142,-2.8572 -9.28572,-21.42854 -46.42857,-10.00008 2.14286,11.42862 34.28571,7.1429 12.14286,21.4286 7.85714,5 9.28572,1.4285 -0.71429,6.4286 16.42857,-1.4286 0,-24.2857 32.14286,-56.42863 8.57143,-1.42857 37.85714,13.57143 14.28571,2.14285 8.57143,-4.28571 7.85715,-6.42857 30,-85.71429 -2.85715,-4.28571 -5.71428,-1.42857 z"
       id="path6573-2"
       inkscape:connector-curvature="0" />
    <path
       sodipodi:type="arc"
       style="fill:#ffffff;stroke:#000000;stroke-width:1;stroke-linecap:round;stroke-linejoin:round;stroke-miterlimit:4;stroke-opacity:1;stroke-dasharray:none"
       id="path6595"
       sodipodi:cx="515.71429"
       sodipodi:cy="799.50507"
       sodipodi:rx="20"
       sodipodi:ry="22.142857"
       d="m 535.63845,797.57855 a 20,22.142857 0 1 1 -0.009,-0.11359"
       sodipodi:start="6.1960712"
       sodipodi:end="12.474106"
       sodipodi:open="true"
       transform="matrix(1.0014196,0,0,0.88838576,-56.446414,89.593293)" />
    <path
       style="fill:#ffffff;stroke:#000000;stroke-width:1px;stroke-linecap:butt;stroke-linejoin:miter;stroke-opacity:1"
       d="m 127.14285,843.07647 -5,-10.71428 7.85715,-12.14286 10.71428,0 12.14286,12.85714 L 185,896.6479 l -0.71429,13.57143 -4.28571,30 -10.71429,10 -15.71429,-0.71429 L 81.428574,923.79076 52.857144,989.50504 40,995.93362 l -10,-5 2.857143,-17.85715 27.857141,-68.57143 11.42857,-8.57142 9.28572,1.42857 66.428566,24.28571 6.42857,-2.85714 L 155,896.6479 z"
       id="path6601"
       inkscape:connector-curvature="0"
       sodipodi:nodetypes="cccccccccccccccccccccc" />
    <path
       style="fill:#ffffff;stroke:#000000;stroke-width:1px;stroke-linecap:butt;stroke-linejoin:miter;stroke-opacity:1"
       d="m 128.57142,849.50504 0,-14.28571 8.57143,-5.71429 11.42857,7.85715 21.42858,56.42857 0.71428,10 -9.28571,7.14286 -5,0 L 105,879.50504 l -5,-10.71428 6.42857,-8.57143 10,-0.71428 20.71428,13.57142 z"
       id="path6603"
       inkscape:connector-curvature="0"
       sodipodi:nodetypes="cccccccccccccc" />
    <path
       style="fill:#ffffff;stroke:#000000;stroke-width:1px;stroke-linecap:butt;stroke-linejoin:miter;stroke-opacity:1"
       d="m 436.42857,841.6479 2.85714,-12.14285 10.71429,-4.28572 10.71428,2.85715 5.71429,11.42857 -33.57143,105.71428 -12.14286,8.57143 -12.85714,-2.14286 -73.57143,-25 -35.71429,63.57143 -11.42857,5.71433 -11.42857,-7.1429 4.28572,-16.42857 31.42857,-67.85714 12.85714,-6.42857 81.42857,26.42857 z"
       id="path6605"
       inkscape:connector-curvature="0" />
    <path
       style="fill:#ffffff;stroke:#000000;stroke-width:1px;stroke-linecap:butt;stroke-linejoin:miter;stroke-opacity:1"
       d="m 422.14285,843.07648 3.57143,27.14285 17.14286,-30 9.28571,-5.71428 7.85715,5.71428 -0.71429,11.42857 -26.42857,57.85715 -11.42857,5 -8.57143,-2.14286 -15.71429,-64.28571 5.71429,-11.42858 11.42857,-2.85714 z"
       id="path6607"
       inkscape:connector-curvature="0" />
    <path
       sodipodi:type="arc"
       style="fill:#ffffff;stroke:#000000;stroke-width:1;stroke-linecap:round;stroke-linejoin:round;stroke-miterlimit:4;stroke-opacity:1;stroke-dasharray:none"
       id="path6595-0"
       sodipodi:cx="515.71429"
       sodipodi:cy="799.50507"
       sodipodi:rx="20"
       sodipodi:ry="22.142857"
       d="m 535.63845,797.57855 a 20,22.142857 0 1 1 -0.009,-0.11359"
       sodipodi:start="6.1960712"
       sodipodi:end="12.474106"
       sodipodi:open="true"
       transform="matrix(1.0014196,0,0,0.88838576,-400.73212,92.807546)" />
  </g>
</svg>
