<?xml version="1.0" encoding="UTF-8" standalone="no"?>
<!-- Created with Inkscape (http://www.inkscape.org/) -->

<svg
   xmlns:dc="http://purl.org/dc/elements/1.1/"
   xmlns:cc="http://creativecommons.org/ns#"
   xmlns:rdf="http://www.w3.org/1999/02/22-rdf-syntax-ns#"
   xmlns:svg="http://www.w3.org/2000/svg"
   xmlns="http://www.w3.org/2000/svg"
   xmlns:sodipodi="http://sodipodi.sourceforge.net/DTD/sodipodi-0.dtd"
   xmlns:inkscape="http://www.inkscape.org/namespaces/inkscape"
   width="744.09448819"
   height="1052.3622047"
   id="svg2"
   version="1.1"
   inkscape:version="0.48.4 r9939"
   sodipodi:docname="eq.13.svg">
  <defs
     id="defs4" />
  <sodipodi:namedview
     id="base"
     pagecolor="#ffffff"
     bordercolor="#666666"
     borderopacity="1.0"
     inkscape:pageopacity="0.0"
     inkscape:pageshadow="2"
     inkscape:zoom="1.979899"
     inkscape:cx="264.53066"
     inkscape:cy="190.10691"
     inkscape:document-units="px"
     inkscape:current-layer="layer3"
     showgrid="false"
     inkscape:window-width="1240"
     inkscape:window-height="998"
     inkscape:window-x="2033"
     inkscape:window-y="19"
     inkscape:window-maximized="0" />
  <metadata
     id="metadata7">
    <rdf:RDF>
      <cc:Work
         rdf:about="">
        <dc:format>image/svg+xml</dc:format>
        <dc:type
           rdf:resource="http://purl.org/dc/dcmitype/StillImage" />
        <dc:title />
      </cc:Work>
    </rdf:RDF>
  </metadata>
  <g
     inkscape:groupmode="layer"
     id="layer3"
     inkscape:label="image">
    <path
       style="fill:#4d4d4d;stroke:#000000;stroke-width:1px;stroke-linecap:butt;stroke-linejoin:miter;stroke-opacity:1"
       d="m 42.426402,825.07786 7.07107,-3.03046 43.94163,8.5863 5.05077,12.12183 -2.02031,131.31983 -4.04061,6.06091 -22.22336,10.10153 -54.043146,-21.21321 -0.50508,-8.08122 20.203046,-6.06091 7.57614,-6.56599 z"
       id="path3129"
       inkscape:connector-curvature="0"
       sodipodi:nodetypes="cccccccccccc" />
    <path
       style="fill:#4d4d4d;stroke:#000000;stroke-width:1px;stroke-linecap:butt;stroke-linejoin:miter;stroke-opacity:1"
       d="m 277.28686,825.83547 7.07107,-3.03046 43.94163,8.5863 5.05077,12.12183 -2.02031,131.31983 -4.04061,6.06091 -22.22336,10.10153 -54.04315,-21.21321 -0.50508,-8.08122 20.20305,-6.06091 7.57614,-6.56599 z"
       id="path3129-7"
       inkscape:connector-curvature="0"
       sodipodi:nodetypes="cccccccccccc" />
    <path
       sodipodi:type="arc"
       style="fill:#ffffff;stroke:#000000;stroke-width:1;stroke-linecap:round;stroke-linejoin:round;stroke-miterlimit:4;stroke-opacity:1;stroke-dasharray:none"
       id="path3149"
       sodipodi:cx="230.81985"
       sodipodi:cy="797.55121"
       sodipodi:rx="15.657364"
       sodipodi:ry="16.414978"
       d="m 246.41785,796.12304 a 15.657364,16.414978 0 1 1 -0.007,-0.0842"
       sodipodi:start="6.1960712"
       sodipodi:end="12.474106"
       sodipodi:open="true"
       transform="translate(-166.67517,56.063466)" />
    <path
       sodipodi:type="arc"
       style="fill:#ffffff;stroke:#000000;stroke-width:1;stroke-linecap:round;stroke-linejoin:round;stroke-miterlimit:4;stroke-opacity:1;stroke-dasharray:none"
       id="path3149-3"
       sodipodi:cx="230.81985"
       sodipodi:cy="797.55121"
       sodipodi:rx="15.657364"
       sodipodi:ry="16.414978"
       d="m 246.41785,796.12304 a 15.657364,16.414978 0 1 1 -0.007,-0.0842"
       sodipodi:start="6.1960712"
       sodipodi:end="12.474106"
       sodipodi:open="true"
       transform="translate(69.700522,57.326146)" />
    <path
       style="fill:#ffffff;stroke:#000000;stroke-width:1px;stroke-linecap:butt;stroke-linejoin:miter;stroke-opacity:1"
       d="m 37.375642,891.24285 2.0203,-10.10153 4.04061,-3.53553 8.5863,1.51523 0,45.45686 -18.68782,39.90103 -15.657366,-2.02031 15.657366,-39.39595 z"
       id="path3224"
       inkscape:connector-curvature="0" />
    <path
       style="fill:#4d4d4d;stroke:#000000;stroke-width:1px;stroke-linecap:butt;stroke-linejoin:miter;stroke-opacity:1"
       d="m 23.23351,943.2657 -14.1421397,5.55584 -3.53553,10.10153 0.50507,29.7995 29.7994917,-6.56599 -0.50507,-36.87057 z"
       id="path3220"
       inkscape:connector-curvature="0"
       sodipodi:nodetypes="ccccccc" />
    <path
       style="fill:#ffffff;stroke:#000000;stroke-width:1px;stroke-linecap:butt;stroke-linejoin:miter;stroke-opacity:1"
       d="m 18.687816,1026.0982 -3.53553,-4.5457 -1.01015,-56.06344 4.54569,-8.08122 24.748726,-12.62691 10.6066,3.03046 2.52539,9.59645 -3.53554,7.57614 -21.2132,8.08123 0.50508,45.45689 -2.02031,8.0812 z"
       id="path3264"
       inkscape:connector-curvature="0"
       sodipodi:nodetypes="cccccccccccc" />
    <path
       style="fill:#ffffff;stroke:#000000;stroke-width:1px;stroke-linecap:butt;stroke-linejoin:miter;stroke-opacity:1"
       d="m 47.477162,884.17178 1.01015,-7.07107 5.55584,-4.54568 15.65737,0.50507 10.6066,8.08122 1.51523,76.26652 -8.5863,4.54568 -24.24366,-2.52538 -1.01015,-9.09137 -10e-6,-60.10408 z"
       id="path3169"
       inkscape:connector-curvature="0"
       sodipodi:nodetypes="ccccccccccc" />
    <path
       style="fill:#ffffff;stroke:#000000;stroke-width:1px;stroke-linecap:butt;stroke-linejoin:miter;stroke-opacity:1"
       d="m 273.24626,889.22254 2.0203,-10.10153 4.04061,-3.53553 8.5863,1.51523 0,45.45686 -18.68782,39.90103 -15.65737,-2.02031 15.65737,-39.39595 z"
       id="path3224-2"
       inkscape:connector-curvature="0" />
    <path
       style="fill:#4d4d4d;stroke:#000000;stroke-width:1px;stroke-linecap:butt;stroke-linejoin:miter;stroke-opacity:1"
       d="m 228.79954,940.23525 -6.06091,6.56599 -0.50508,28.78935 9.09137,7.57615 21.71828,-1.01016 4.04061,-5.55584 1.01015,-33.33503 -5.55583,-5.55584 z"
       id="path3270"
       inkscape:connector-curvature="0" />
    <path
       style="fill:#ffffff;stroke:#000000;stroke-width:1px;stroke-linecap:butt;stroke-linejoin:miter;stroke-opacity:1"
       d="m 232.33507,1019.0272 -0.50507,-66.67012 5.55584,-3.03046 50.00255,-1.01015 5.05076,8.5863 -1.01015,12.12183 -6.56599,3.03046 -31.81981,1.01015 -1.51523,8.08122 1.01015,40.91117 -10.10152,5.5559 -8.08122,-2.0204 z"
       id="path3274"
       inkscape:connector-curvature="0" />
    <path
       style="fill:#ffffff;stroke:#000000;stroke-width:1px;stroke-linecap:butt;stroke-linejoin:miter;stroke-opacity:1"
       d="m 284.863,886.44463 1.01015,-7.07107 5.55584,-4.54568 15.65737,0.50507 10.6066,8.08122 1.51523,76.26652 -8.5863,4.54568 -24.24366,-2.52538 -1.01015,-9.09137 -1e-5,-60.10408 z"
       id="path3169-8"
       inkscape:connector-curvature="0"
       sodipodi:nodetypes="ccccccccccc" />
    <path
       style="fill:#ffffff;stroke:#000000;stroke-width:1px;stroke-linecap:butt;stroke-linejoin:miter;stroke-opacity:1"
       d="m 86.368042,882.65655 5.55584,6.06092 10.101528,40.4061 3.03045,48.48732 -5.05076,7.57615 -5.555838,1.01015 -5.05076,-4.54569 -4.04061,-53.53808 -9.59645,-34.85026 0,-6.06092 5.55584,-4.54569 z"
       id="path3200"
       inkscape:connector-curvature="0" />
    <path
       style="fill:#ffffff;stroke:#000000;stroke-width:1px;stroke-linecap:butt;stroke-linejoin:miter;stroke-opacity:1"
       d="m 325.26912,879.87863 5.55584,6.06092 10.10153,40.4061 3.03045,48.48732 -5.05076,7.57615 -5.55584,1.01015 -5.05076,-4.54569 -4.04061,-53.53808 -9.59645,-34.85026 0,-6.06092 5.55584,-4.54569 z"
       id="path3200-9"
       inkscape:connector-curvature="0" />
    <path
       style="fill:#ffffff;stroke:#000000;stroke-width:1px;stroke-linecap:butt;stroke-linejoin:miter;stroke-opacity:1"
       d="m 71.215752,948.82154 -26.26396,12.62691 -7.07107,13.63706 1.51522,47.47719 4.04061,6.0609 8.5863,-1.5152 3.03046,-5.0508 -0.50508,-40.4061 27.27412,-12.12183 3.03046,-4.54569 -2.02031,-15.15228 z"
       id="path3266"
       inkscape:connector-curvature="0"
       sodipodi:nodetypes="cccccccccccc" />
    <path
       style="fill:#4d4d4d;stroke:#000000;stroke-width:1.17473114px;stroke-linecap:butt;stroke-linejoin:miter;stroke-opacity:1"
       d="m 58.653282,955.97998 -21.69535,8.04833 0.69984,33.19936 7.69835,1.50906 18.19612,-3.01812 -1.39971,-38.73259 z"
       id="path3268"
       inkscape:connector-curvature="0" />
    <path
       style="fill:#4d4d4d;stroke:#000000;stroke-width:1px;stroke-linecap:butt;stroke-linejoin:miter;stroke-opacity:1"
       d="m 326.27927,948.82154 21.71828,5.55584 4.54568,8.58629 -4.04061,35.86042 -5.05076,2.02031 -22.72843,-6.566 -1.51523,-5.05076 2.52538,-35.35534 z"
       id="path3272"
       inkscape:connector-curvature="0" />
    <path
       style="fill:#ffffff;stroke:#000000;stroke-width:1px;stroke-linecap:butt;stroke-linejoin:miter;stroke-opacity:1"
       d="m 302.54068,967.50937 0.50507,9.09138 21.21321,8.58629 -12.12183,48.48736 1.01015,13.637 8.58629,1.5152 8.5863,-6.5659 15.65737,-68.18534 -3.53554,-7.57614 -28.78935,-9.59645 -7.57614,2.02031 z"
       id="path3276"
       inkscape:connector-curvature="0" />
  </g>
</svg>
