<?xml version="1.0" encoding="UTF-8" standalone="no"?>
<!-- Created with Inkscape (http://www.inkscape.org/) -->

<svg
   xmlns:dc="http://purl.org/dc/elements/1.1/"
   xmlns:cc="http://creativecommons.org/ns#"
   xmlns:rdf="http://www.w3.org/1999/02/22-rdf-syntax-ns#"
   xmlns:svg="http://www.w3.org/2000/svg"
   xmlns="http://www.w3.org/2000/svg"
   xmlns:sodipodi="http://sodipodi.sourceforge.net/DTD/sodipodi-0.dtd"
   xmlns:inkscape="http://www.inkscape.org/namespaces/inkscape"
   width="744.09448819"
   height="1052.3622047"
   id="svg2"
   version="1.1"
   inkscape:version="0.48.4 r9939"
   sodipodi:docname="eq.15.svg">
  <defs
     id="defs4" />
  <sodipodi:namedview
     id="base"
     pagecolor="#ffffff"
     bordercolor="#666666"
     borderopacity="1.0"
     inkscape:pageopacity="0.0"
     inkscape:pageshadow="2"
     inkscape:zoom="1.4"
     inkscape:cx="284.60465"
     inkscape:cy="136.39978"
     inkscape:document-units="px"
     inkscape:current-layer="layer3"
     showgrid="false"
     inkscape:window-width="1240"
     inkscape:window-height="998"
     inkscape:window-x="2033"
     inkscape:window-y="19"
     inkscape:window-maximized="0" />
  <metadata
     id="metadata7">
    <rdf:RDF>
      <cc:Work
         rdf:about="">
        <dc:format>image/svg+xml</dc:format>
        <dc:type
           rdf:resource="http://purl.org/dc/dcmitype/StillImage" />
        <dc:title></dc:title>
      </cc:Work>
    </rdf:RDF>
  </metadata>
  <g
     inkscape:groupmode="layer"
     id="layer3"
     inkscape:label="image">
    <path
       style="fill:#666666;stroke:#000000;stroke-width:1px;stroke-linecap:butt;stroke-linejoin:miter;stroke-opacity:1"
       d="m 85.714289,823.79077 -20.71429,60.71428 21.42858,5 -30.71429,136.42865 -48.5714331,-1.4286 -0.71428,15.7143 203.5714141,7.1429 -13.57142,-12.1429 -129.999991,-3.5714 7.85714,-45.00007 10.71428,-7.1429 12.85715,-4.2857 12.142841,5 104.28572,67.85717 9.28571,-6.4285 -79.28571,-53.57157 0,-22.8571 -4.28572,-8.5714 -11.42857,0.7143 -7.85714,17.8571 -19.99999,-10.7143 -10.714291,1.4286 -9.28571,5.7143 L 105,867.3622 104.28572,858.07648 97.142859,857.3622 105,828.07648 z"
       id="path4560"
       inkscape:connector-curvature="0" />
    <path
       style="fill:#666666;stroke:#000000;stroke-width:1px;stroke-linecap:butt;stroke-linejoin:miter;stroke-opacity:1"
       d="m 65.714289,965.21933 -57.1428631,-15 L 10.714286,924.50505 50,932.36223 l 14.285719,10.7142 0.71428,10.7143 5,3.5715 z"
       id="path4562"
       inkscape:connector-curvature="0" />
    <path
       style="fill:#666666;stroke:#000000;stroke-width:1px;stroke-linecap:butt;stroke-linejoin:miter;stroke-opacity:1"
       d="m 362.85715,822.36222 -20.71429,60.71428 21.42858,5 -30.71429,136.4286 -48.57142,-1.4286 -0.71429,15.7143 203.57142,7.1429 -13.57142,-12.1429 -130,-3.5714 7.85714,-45.00007 10.71428,-7.1428 12.85715,-4.2857 12.14285,5 104.28572,67.85707 9.28571,-6.4285 -79.28571,-53.57147 0,-22.8571 -4.28572,-8.5715 -11.42857,0.7143 -7.85714,17.8572 -20,-10.7143 -10.71429,1.4285 -9.28571,5.7143 24.28571,-104.28568 -0.71428,-9.28572 -7.14286,-0.71428 7.85714,-29.28572 z"
       id="path4560-5"
       inkscape:connector-curvature="0" />
    <path
       style="fill:#666666;stroke:#000000;stroke-width:1px;stroke-linecap:butt;stroke-linejoin:miter;stroke-opacity:1"
       d="m 342.14286,965.21933 -57.14285,-15 2.14285,-25.71426 39.28572,7.85716 14.28571,10.7143 0.71428,10.7143 5,3.5714 z"
       id="path4562-6"
       inkscape:connector-curvature="0" />
    <path
       sodipodi:type="arc"
       style="fill:#ffffff;fill-opacity:1;stroke:#000000;stroke-width:1;stroke-linecap:round;stroke-linejoin:round;stroke-miterlimit:4;stroke-opacity:1;stroke-dasharray:none"
       id="path4612"
       sodipodi:cx="136.07143"
       sodipodi:cy="788.43359"
       sodipodi:rx="21.071428"
       sodipodi:ry="22.5"
       d="m 157.06295,786.476 a 21.071428,22.5 0 1 1 -0.01,-0.11542"
       sodipodi:start="6.1960712"
       sodipodi:end="12.474106"
       sodipodi:open="true"
       transform="translate(-57.142857,5)" />
    <path
       sodipodi:type="arc"
       style="fill:#ffffff;fill-opacity:1;stroke:#000000;stroke-width:1;stroke-linecap:round;stroke-linejoin:round;stroke-miterlimit:4;stroke-opacity:1;stroke-dasharray:none"
       id="path4612-5"
       sodipodi:cx="136.07143"
       sodipodi:cy="788.43359"
       sodipodi:rx="21.071428"
       sodipodi:ry="22.5"
       d="m 157.06295,786.476 a 21.071428,22.5 0 1 1 -0.01,-0.11542"
       sodipodi:start="6.1960712"
       sodipodi:end="12.474106"
       sodipodi:open="true"
       transform="translate(214.64285,7.5000102)" />
    <path
       style="fill:#ffffff;stroke:#000000;stroke-width:1px;stroke-linecap:butt;stroke-linejoin:miter;stroke-opacity:1"
       d="m 49.285714,824.50504 10.000005,-7.14286 8.57142,0 13.57144,5.71429 4.28571,14.28571 -27.14286,82.85714 L 50,930.93361 33.571428,928.79075 24.285714,914.50504 45.714285,830.93361 z"
       id="path4632"
       inkscape:connector-curvature="0"
       sodipodi:nodetypes="ccccccccccc" />
    <path
       style="fill:#ffffff;stroke:#000000;stroke-width:1px;stroke-linecap:butt;stroke-linejoin:miter;stroke-opacity:1"
       d="m 322.85715,824.1479 10,-7.14286 8.57142,0 13.57144,5.71429 4.28571,14.28571 -27.14286,82.85714 -8.57143,10.71429 -16.42857,-2.14286 -9.28571,-14.28571 21.42857,-83.57143 z"
       id="path4632-1"
       inkscape:connector-curvature="0"
       sodipodi:nodetypes="ccccccccccc" />
    <path
       style="fill:#ffffff;stroke:#000000;stroke-width:1px;stroke-linecap:butt;stroke-linejoin:miter;stroke-opacity:1"
       d="m 58.571429,838.07647 2.85714,11.42857 7.85714,4.28571 107.142861,3.57143 11.42857,-5.71428 -0.71428,-14.28572 -17.14286,-5 -101.428571,-5 -6.42857,2.14286 z"
       id="path4670"
       inkscape:connector-curvature="0"
       sodipodi:nodetypes="cccccccccc" />
    <path
       style="fill:#ffffff;stroke:#000000;stroke-width:1px;stroke-linecap:butt;stroke-linejoin:miter;stroke-opacity:1"
       d="m 343.57143,833.07647 -9.28572,-8.57143 -12.14285,-0.71429 -23.57143,40.71429 4.28571,8.57143 9.28572,5 L 374.28571,851.6479 375,839.50504 367.85714,832.36218 325,851.6479 z"
       id="path4672"
       inkscape:connector-curvature="0" />
    <path
       style="fill:#ffffff;stroke:#000000;stroke-width:1px;stroke-linecap:butt;stroke-linejoin:miter;stroke-opacity:1"
       d="m 69.999999,915.93361 -8.57143,1.42857 -9.285712,3.57143 -2.857143,7.85714 7.142855,7.85715 42.85714,15 22.857151,44.28571 9.28571,3.57143 7.14286,-1.42857 4.28571,-5.71429 -23.57143,-52.85714 z"
       id="path4676"
       inkscape:connector-curvature="0" />
    <path
       style="fill:#ffffff;stroke:#000000;stroke-width:1px;stroke-linecap:butt;stroke-linejoin:miter;stroke-opacity:1"
       d="m 345.71428,915.93361 -9.28571,-2.14286 -12.85714,2.14286 -4.28572,10.71429 13.57143,10.71428 42.85714,13.57143 22.14286,42.85714 8.57143,3.57143 13.57143,-2.14286 0.71428,-9.28571 -22.14285,-50.71429 z"
       id="path4678"
       inkscape:connector-curvature="0" />
    <path
       style="fill:#666666;stroke:#000000;stroke-width:1px;stroke-linecap:butt;stroke-linejoin:miter;stroke-opacity:1"
       d="m 169.28571,862.36218 0,0 9.28572,-5 7.85714,4.28572 -35.71428,95.71428 20,23.57143 15.71428,16.42857 -9.28571,4.28572 -48.57143,-30.71429 -7.85714,-7.14286 -2.14286,-9.28571 z"
       id="path4680"
       inkscape:connector-curvature="0" />
    <path
       style="fill:#666666;stroke:#000000;stroke-width:1px;stroke-linecap:butt;stroke-linejoin:miter;stroke-opacity:1"
       d="m 422.14286,953.07647 -43.57143,-93.57143 -10,-3.57143 -5,5.71429 34.28571,100.71428 9.28572,9.28572 62.14285,-2.14286 -3.57143,-17.85714 z"
       id="path4682"
       inkscape:connector-curvature="0" />
    <path
       sodipodi:type="arc"
       style="fill:#666666;fill-opacity:1;stroke:#000000;stroke-width:1;stroke-linecap:round;stroke-linejoin:round;stroke-miterlimit:4;stroke-opacity:1;stroke-dasharray:none"
       id="path4684"
       sodipodi:cx="262.14285"
       sodipodi:cy="999.86218"
       sodipodi:rx="28.571428"
       sodipodi:ry="28.214285"
       d="m 290.60594,997.40743 a 28.571428,28.214285 0 1 1 -0.0132,-0.14474"
       sodipodi:start="6.1960712"
       sodipodi:end="12.474106"
       sodipodi:open="true"
       transform="translate(-74.999999,5.7142857)" />
    <path
       transform="translate(225.71429,-41.07144)"
       sodipodi:type="arc"
       style="fill:#666666;fill-opacity:1;stroke:#000000;stroke-width:1;stroke-linecap:round;stroke-linejoin:round;stroke-miterlimit:4;stroke-opacity:1;stroke-dasharray:none"
       id="path4684-1"
       sodipodi:cx="262.14285"
       sodipodi:cy="999.86218"
       sodipodi:rx="28.571428"
       sodipodi:ry="28.214285"
       d="m 290.60594,997.40743 a 28.571428,28.214285 0 1 1 -0.0132,-0.14474"
       sodipodi:start="6.1960712"
       sodipodi:end="12.474106"
       sodipodi:open="true" />
  </g>
</svg>
