<?xml version="1.0" encoding="UTF-8" standalone="no"?>
<!-- Created with Inkscape (http://www.inkscape.org/) -->

<svg
   xmlns:dc="http://purl.org/dc/elements/1.1/"
   xmlns:cc="http://creativecommons.org/ns#"
   xmlns:rdf="http://www.w3.org/1999/02/22-rdf-syntax-ns#"
   xmlns:svg="http://www.w3.org/2000/svg"
   xmlns="http://www.w3.org/2000/svg"
   xmlns:sodipodi="http://sodipodi.sourceforge.net/DTD/sodipodi-0.dtd"
   xmlns:inkscape="http://www.inkscape.org/namespaces/inkscape"
   width="744.09448819"
   height="1052.3622047"
   id="svg2"
   version="1.1"
   inkscape:version="0.48.4 r9939"
   sodipodi:docname="eq.11.svg">
  <defs
     id="defs4" />
  <sodipodi:namedview
     id="base"
     pagecolor="#ffffff"
     bordercolor="#666666"
     borderopacity="1.0"
     inkscape:pageopacity="0.0"
     inkscape:pageshadow="2"
     inkscape:zoom="1.4"
     inkscape:cx="251.39304"
     inkscape:cy="231.68775"
     inkscape:document-units="px"
     inkscape:current-layer="layer3"
     showgrid="false"
     inkscape:window-width="1240"
     inkscape:window-height="998"
     inkscape:window-x="2033"
     inkscape:window-y="19"
     inkscape:window-maximized="0" />
  <metadata
     id="metadata7">
    <rdf:RDF>
      <cc:Work
         rdf:about="">
        <dc:format>image/svg+xml</dc:format>
        <dc:type
           rdf:resource="http://purl.org/dc/dcmitype/StillImage" />
        <dc:title />
      </cc:Work>
    </rdf:RDF>
  </metadata>
  <g
     inkscape:groupmode="layer"
     id="layer3"
     inkscape:label="image">
    <path
       style="fill:#4d4d4d;stroke:#000000;stroke-width:1px;stroke-linecap:butt;stroke-linejoin:miter;stroke-opacity:1"
       d="m 218.57143,824.50504 13.57143,-2.14286 7.14285,5.71429 1.42858,10 L 125,1043.0765 l -15,-0.7143 41.42857,-70.7143 -3.57143,-5 L 135,952.36218 l -12.14286,0 -11.42857,-5 L 110,935.21933 l 6.42857,-4.28572 32.14286,-1.42857 7.14286,6.42857 5,1.42857 -1.42858,-7.14285 z"
       id="path6718"
       inkscape:connector-curvature="0" />
    <path
       style="fill:#ffffff;stroke:#000000;stroke-width:1px;stroke-linecap:butt;stroke-linejoin:miter;stroke-opacity:1"
       d="m 175.71429,833.79075 7.14285,-5 10,-4.28571 15,5 4.28572,16.42857 -43.57143,79.28572 -4.28572,5.71428 L 150,936.6479 l -92.857143,15.71428 -9.285714,84.28572 -10,4.2857 -10.714286,-2.8571 L 25,1025.9336 32.142857,948.07646 44.285714,931.6479 130,918.07647 z"
       id="path7230"
       inkscape:connector-curvature="0"
       sodipodi:nodetypes="ccccccccccccccccc" />
    <path
       style="fill:#4d4d4d;stroke:#000000;stroke-width:1px;stroke-linecap:butt;stroke-linejoin:miter;stroke-opacity:1"
       d="m 524.28571,824.50566 13.57143,-2.14286 7.14285,5.71429 1.42858,10 -115.71429,205.00001 -15,-0.7143 41.42857,-70.71425 -3.57143,-5 -12.85714,-14.2858 -12.14286,0 -11.42857,-5 -1.42857,-12.1428 6.42857,-4.28572 32.14286,-1.42857 7.14286,6.42857 5,1.42857 -1.42858,-7.14285 z"
       id="path6718-7"
       inkscape:connector-curvature="0" />
    <path
       transform="translate(305.71429,6.2515714e-4)"
       sodipodi:type="arc"
       style="fill:#ffffff;stroke:#000000;stroke-width:1;stroke-linecap:round;stroke-linejoin:round;stroke-miterlimit:4;stroke-opacity:1;stroke-dasharray:none"
       id="path6720-5"
       sodipodi:cx="205"
       sodipodi:cy="800.57648"
       sodipodi:rx="21.428572"
       sodipodi:ry="21.785715"
       d="m 226.34731,798.68103 a 21.428572,21.785715 0 1 1 -0.01,-0.11175"
       sodipodi:start="6.1960712"
       sodipodi:end="12.474106"
       sodipodi:open="true" />
    <path
       style="fill:#ffffff;stroke:#000000;stroke-width:1px;stroke-linecap:butt;stroke-linejoin:miter;stroke-opacity:1"
       d="m 481.42857,833.79137 7.14285,-5 10,-4.28571 15,5 4.28572,16.42857 -43.57143,79.28572 -4.28572,5.71428 -14.28571,5.71429 -92.85714,15.71423 -9.28571,84.28575 -10,4.2857 -10.71429,-2.8571 -2.14285,-12.1429 7.14285,-77.85715 L 350,931.64852 435.71428,918.07709 z"
       id="path7230-1"
       inkscape:connector-curvature="0"
       sodipodi:nodetypes="ccccccccccccccccc" />
    <path
       style="fill:#ffffff;stroke:#000000;stroke-width:1px;stroke-linecap:butt;stroke-linejoin:miter;stroke-opacity:1"
       d="m 175,843.07647 5,-7.14286 9.28571,-3.57143 11.42858,3.57143 3.57142,12.14286 -20,50 L 130,945.93361 l -8.57143,-2.14286 -10.71428,-11.42857 1.42857,-7.14285 52.14285,-35.71429 z"
       id="path7256"
       inkscape:connector-curvature="0" />
    <path
       style="fill:#ffffff;stroke:#000000;stroke-width:1px;stroke-linecap:butt;stroke-linejoin:miter;stroke-opacity:1"
       d="m 490.00001,833.79075 9.28571,-2.14286 11.42857,7.14286 0.71428,7.85714 -32.14285,51.42858 -14.28572,5.71428 -12.85714,-5.71428 -11.42857,-62.14286 5.71428,-8.57143 12.14286,-0.71429 5.71429,9.28572 4.28571,31.42857 c 6.90476,-10.71429 21.26856,-34.09839 21.42858,-33.57143 z"
       id="path7258"
       inkscape:connector-curvature="0"
       sodipodi:nodetypes="ccccccccccccc" />
    <path
       style="fill:#4d4d4d;stroke:#000000;stroke-width:1px;stroke-linecap:butt;stroke-linejoin:miter;stroke-opacity:1"
       d="m 452.85714,833.07647 0,0 0,-7.85715 -27.85714,6.42857 -4.28571,5.71429 2.14285,3.57143 47.85715,41.42857 7.14285,-7.85714 -43.57143,-35.71429 z"
       id="path7260"
       inkscape:connector-curvature="0"
       sodipodi:nodetypes="cccccccccc" />
    <path
       style="fill:#4d4d4d;stroke:#000000;stroke-width:1px;stroke-linecap:butt;stroke-linejoin:miter;stroke-opacity:1"
       d="m 179.28571,885.21933 -35.71428,58.57142 -15.71429,5.71429 -5.71428,-11.42857 12.14285,-2.14286 32.14286,-55 z"
       id="path7262"
       inkscape:connector-curvature="0" />
    <path
       sodipodi:type="arc"
       style="fill:#4d4d4d;stroke:#000000;stroke-width:1;stroke-linecap:round;stroke-linejoin:round;stroke-miterlimit:4;stroke-opacity:1;stroke-dasharray:none"
       id="path7264"
       sodipodi:cx="174.64285"
       sodipodi:cy="808.79077"
       sodipodi:rx="26.071428"
       sodipodi:ry="25.714285"
       d="m 200.61542,806.55353 a 26.071428,25.714285 0 1 1 -0.012,-0.13191"
       sodipodi:start="6.1960712"
       sodipodi:end="12.474106"
       sodipodi:open="true"
       transform="translate(4.2857143,71.428571)" />
    <path
       sodipodi:type="arc"
       style="fill:#4d4d4d;stroke:#000000;stroke-width:1;stroke-linecap:round;stroke-linejoin:round;stroke-miterlimit:4;stroke-opacity:1;stroke-dasharray:none"
       id="path7264-2"
       sodipodi:cx="174.64285"
       sodipodi:cy="808.79077"
       sodipodi:rx="26.071428"
       sodipodi:ry="25.714285"
       d="m 200.61542,806.55353 a 26.071428,25.714285 0 1 1 -0.012,-0.13191"
       sodipodi:start="6.1960712"
       sodipodi:end="12.474106"
       sodipodi:open="true"
       transform="translate(312.50001,68.571401)" />
    <path
       transform="translate(2.85714,0.35712457)"
       sodipodi:type="arc"
       style="fill:#ffffff;stroke:#000000;stroke-width:1;stroke-linecap:round;stroke-linejoin:round;stroke-miterlimit:4;stroke-opacity:1;stroke-dasharray:none"
       id="path6720-5-4"
       sodipodi:cx="205"
       sodipodi:cy="800.57648"
       sodipodi:rx="21.428572"
       sodipodi:ry="21.785715"
       d="m 226.34731,798.68103 a 21.428572,21.785715 0 1 1 -0.01,-0.11175"
       sodipodi:start="6.1960712"
       sodipodi:end="12.474106"
       sodipodi:open="true" />
  </g>
</svg>
