<?xml version="1.0" encoding="UTF-8" standalone="no"?>
<!-- Created with Inkscape (http://www.inkscape.org/) -->

<svg
   xmlns:dc="http://purl.org/dc/elements/1.1/"
   xmlns:cc="http://creativecommons.org/ns#"
   xmlns:rdf="http://www.w3.org/1999/02/22-rdf-syntax-ns#"
   xmlns:svg="http://www.w3.org/2000/svg"
   xmlns="http://www.w3.org/2000/svg"
   xmlns:sodipodi="http://sodipodi.sourceforge.net/DTD/sodipodi-0.dtd"
   xmlns:inkscape="http://www.inkscape.org/namespaces/inkscape"
   width="744.09448819"
   height="1052.3622047"
   id="svg2"
   version="1.1"
   inkscape:version="0.48.4 r9939"
   sodipodi:docname="eq.14.svg">
  <defs
     id="defs4" />
  <sodipodi:namedview
     id="base"
     pagecolor="#ffffff"
     bordercolor="#666666"
     borderopacity="1.0"
     inkscape:pageopacity="0.0"
     inkscape:pageshadow="2"
     inkscape:zoom="0.9899495"
     inkscape:cx="302.71038"
     inkscape:cy="56.248509"
     inkscape:document-units="px"
     inkscape:current-layer="layer3"
     showgrid="false"
     inkscape:window-width="1240"
     inkscape:window-height="998"
     inkscape:window-x="2033"
     inkscape:window-y="19"
     inkscape:window-maximized="0" />
  <metadata
     id="metadata7">
    <rdf:RDF>
      <cc:Work
         rdf:about="">
        <dc:format>image/svg+xml</dc:format>
        <dc:type
           rdf:resource="http://purl.org/dc/dcmitype/StillImage" />
        <dc:title></dc:title>
      </cc:Work>
    </rdf:RDF>
  </metadata>
  <g
     inkscape:groupmode="layer"
     id="layer3"
     inkscape:label="image">
    <path
       style="fill:#4d4d4d;stroke:#000000;stroke-width:1px;stroke-linecap:butt;stroke-linejoin:miter;stroke-opacity:1"
       d="m 43.43656,898.81898 9.59645,-52.52793 6.565988,1.51523 3.03046,34.85026 14.14214,8.08122 11.61675,-5.05076 79.296982,25.25381 5.05076,-6.56599 20.70813,3.03046 4.54568,18.68782 -26.76904,118.1879 -32.32488,0 -1.51523,-8.5863 -78.7919,-1.5152 -2.52538,-11.6168 6.060918,-4.0406 80.307122,3.5355 24.24366,-95.9645 -83.337582,-18.18275 -8.08122,-9.09137 -14.14214,-4.04061 -9.596448,6.06092 z"
       id="path3595"
       inkscape:connector-curvature="0" />
    <path
       style="fill:#4d4d4d;stroke:#000000;stroke-width:1px;stroke-linecap:butt;stroke-linejoin:miter;stroke-opacity:1"
       d="m 60.104078,1041.7556 40.911182,-140.91631 -3.535542,-8.08122 -9.59645,-0.50508 -13.13198,55.55839 -64.144688,-13.63706 -4.5456795,2.0203 1.51522,7.57615 7.5761495,6.56599 20.70813,5.05076 23.23351,30.80965 -17.1726,55.05333 z"
       id="path3610"
       inkscape:connector-curvature="0" />
    <path
       style="fill:#4d4d4d;stroke:#000000;stroke-width:1px;stroke-linecap:butt;stroke-linejoin:miter;stroke-opacity:1"
       d="m 347.99755,899.82913 9.59644,-52.52793 6.56599,1.51523 3.03046,34.85026 14.14214,8.08122 11.61675,-5.05076 79.29698,25.25381 5.05076,-6.56599 20.70813,3.03046 4.54568,18.68782 -26.76904,118.18785 -32.32488,0 -1.51523,-8.5863 -78.7919,-1.5152 -2.52538,-11.6168 6.06092,-4.0406 80.30712,3.5355 24.24366,-95.96445 -83.33758,-18.18275 -8.08122,-9.09137 -14.14214,-4.04061 -9.59644,6.06092 z"
       id="path3595-9"
       inkscape:connector-curvature="0" />
    <path
       style="fill:#4d4d4d;stroke:#000000;stroke-width:1px;stroke-linecap:butt;stroke-linejoin:miter;stroke-opacity:1"
       d="m 363.14984,1042.7657 40.91118,-140.91626 -3.53554,-8.08122 -9.59645,-0.50508 -13.13198,55.55839 -64.14468,-13.63706 -4.54569,2.0203 1.51523,7.57615 7.57614,6.56599 20.70813,5.05076 23.23351,30.80965 -17.17259,55.05328 z"
       id="path3610-6"
       inkscape:connector-curvature="0" />
    <path
       style="fill:#ffffff;stroke:#000000;stroke-width:1px;stroke-linecap:butt;stroke-linejoin:miter;stroke-opacity:1"
       d="m 52.527932,931.14387 82.327438,21.71828 6.06091,9.09138 -14.64721,70.20557 -8.5863,7.0711 -13.63706,-1.0102 -3.53553,-8.0812 0,-8.0812 15.15229,-53.53808 -64.649767,-17.1726 -9.091373,-7.07106 2.525381,-7.07107 z"
       id="path3670"
       inkscape:connector-curvature="0" />
    <path
       style="fill:#4d4d4d;stroke:#000000;stroke-width:1px;stroke-linecap:butt;stroke-linejoin:miter;stroke-opacity:1"
       d="m 168.69548,1030.6439 -1e-5,-5.5558 -5.55583,-10.1016 -43.94164,-86.87308 -1.51523,-13.13199 34.85026,-17.67767 8.08123,-6.06091 0.50507,-7.57615 -2.0203,-5.55584 32.32488,-25.25381 -9.09138,-10.10152 -29.7995,26.76904 -9.59644,2.0203 -4.04061,14.64721 -2.02031,7.07107 -25.25381,13.13199 -4.54569,7.07106 -1.51523,12.62691 53.53809,104.55079 4.54568,3.0304 z"
       id="path3642"
       inkscape:connector-curvature="0"
       sodipodi:nodetypes="ccccccccccccccccccccc" />
    <path
       sodipodi:type="arc"
       style="fill:#ffffff;fill-opacity:1;stroke:#000000;stroke-width:1;stroke-linecap:round;stroke-linejoin:round;stroke-miterlimit:4;stroke-opacity:1;stroke-dasharray:none"
       id="path3646"
       sodipodi:cx="92.428955"
       sodipodi:cy="804.62225"
       sodipodi:rx="19.697975"
       sodipodi:ry="19.445436"
       d="m 112.05223,802.93042 a 19.697975,19.445436 0 1 1 -0.009,-0.0997"
       sodipodi:start="6.1960712"
       sodipodi:end="12.474106"
       sodipodi:open="true"
       transform="translate(-40.406102,6.0609152)" />
    <path
       transform="translate(256.57875,4.2931592)"
       sodipodi:type="arc"
       style="fill:#ffffff;fill-opacity:1;stroke:#000000;stroke-width:1;stroke-linecap:round;stroke-linejoin:round;stroke-miterlimit:4;stroke-opacity:1;stroke-dasharray:none"
       id="path3646-6"
       sodipodi:cx="92.428955"
       sodipodi:cy="804.62225"
       sodipodi:rx="19.697975"
       sodipodi:ry="19.445436"
       d="m 112.05223,802.93042 a 19.697975,19.445436 0 1 1 -0.009,-0.0997"
       sodipodi:start="6.1960712"
       sodipodi:end="12.474106"
       sodipodi:open="true" />
    <path
       style="fill:#ffffff;stroke:#000000;stroke-width:1px;stroke-linecap:butt;stroke-linejoin:miter;stroke-opacity:1"
       d="m 27.274118,840.23014 6.060915,-6.06091 9.596449,-2.02031 9.59645,4.04061 3.030457,7.07107 2.020305,11.11168 -12.626907,78.28682 -11.111677,10.6066 -11.111678,1.01016 -7.071068,-5.55584 -5.555839,-6.56599 2.020305,-8.5863 z"
       id="path3666"
       inkscape:connector-curvature="0" />
    <path
       style="fill:#ffffff;stroke:#000000;stroke-width:1px;stroke-linecap:butt;stroke-linejoin:miter;stroke-opacity:1"
       d="m 36.870567,845.28091 3.535534,12.12183 4.545686,2.52538 57.578693,15.15229 63.63961,0 7.07107,-8.08122 0.50508,-10.10153 -8.5863,-5.05076 -59.599,3.03046 -54.043161,-17.67767 -7.576144,3.03045 z"
       id="path3672"
       inkscape:connector-curvature="0" />
    <path
       style="fill:#ffffff;stroke:#000000;stroke-width:1px;stroke-linecap:butt;stroke-linejoin:miter;stroke-opacity:1"
       d="m 325.26912,840.73522 6.56599,-7.57614 11.11168,-2.02031 11.61675,7.07107 3.53554,6.56599 -12.12183,85.86297 -10.10153,10.6066 -16.16244,3.03046 -5.55584,-5.05077 -7.57614,-9.59645 z"
       id="path3674"
       inkscape:connector-curvature="0" />
    <path
       style="fill:#ffffff;stroke:#000000;stroke-width:1px;stroke-linecap:butt;stroke-linejoin:miter;stroke-opacity:1"
       d="m 432.34529,950.33677 7.07107,8.5863 0.50507,8.58629 -18.18274,66.67004 -10.10153,4.5457 -9.09137,0 -3.03046,-6.0609 0.50508,-9.0914 16.16244,-53.53805 -6.56599,-4.04061 -58.58885,-13.63706 -8.5863,-4.54569 -4.04061,-6.06092 2.52538,-10.6066 8.08122,-3.03045 z"
       id="path3678"
       inkscape:connector-curvature="0" />
    <path
       style="fill:#4d4d4d;stroke:#000000;stroke-width:1px;stroke-linecap:butt;stroke-linejoin:miter;stroke-opacity:1"
       d="m 473.25647,1026.6033 -3.53554,-8.0812 -109.60155,-52.02289 -5.05076,-6.56599 -1.51523,-7.07107 15.15229,-26.26396 2.52538,-5.05077 -2.02031,-7.07106 -6.56599,-9.59645 6.56599,-40.91118 -10.10152,-3.03046 -2.52538,50.50763 6.56599,11.61675 -15.65737,25.25382 -3.03045,9.59645 6.56599,11.11167 8.08122,5.05076 106.57109,52.52795 z"
       id="path3644"
       inkscape:connector-curvature="0"
       sodipodi:nodetypes="ccccccccccccccccccc" />
    <path
       style="fill:#ffffff;stroke:#000000;stroke-width:1px;stroke-linecap:butt;stroke-linejoin:miter;stroke-opacity:1"
       d="m 331.33003,843.2606 11.61676,-5.05076 8.58629,6.56599 0.50508,12.12183 -24.74874,16.16244 33.84011,1.51523 4.54569,2.02031 1.01015,9.59645 -4.04061,5.05076 -69.19545,1.51523 -7.57614,-6.56599 -1.51523,-7.57615 z"
       id="path3676"
       inkscape:connector-curvature="0" />
  </g>
</svg>
