<?xml version="1.0" encoding="UTF-8" standalone="no"?>
<!-- Created with Inkscape (http://www.inkscape.org/) -->

<svg
   xmlns:dc="http://purl.org/dc/elements/1.1/"
   xmlns:cc="http://creativecommons.org/ns#"
   xmlns:rdf="http://www.w3.org/1999/02/22-rdf-syntax-ns#"
   xmlns:svg="http://www.w3.org/2000/svg"
   xmlns="http://www.w3.org/2000/svg"
   xmlns:sodipodi="http://sodipodi.sourceforge.net/DTD/sodipodi-0.dtd"
   xmlns:inkscape="http://www.inkscape.org/namespaces/inkscape"
   width="744.09448819"
   height="1052.3622047"
   id="svg2"
   version="1.1"
   inkscape:version="0.48.4 r9939"
   sodipodi:docname="eq.18.svg">
  <defs
     id="defs4" />
  <sodipodi:namedview
     id="base"
     pagecolor="#ffffff"
     bordercolor="#666666"
     borderopacity="1.0"
     inkscape:pageopacity="0.0"
     inkscape:pageshadow="2"
     inkscape:zoom="1.4"
     inkscape:cx="234.35818"
     inkscape:cy="201.76518"
     inkscape:document-units="px"
     inkscape:current-layer="layer3"
     showgrid="false"
     inkscape:window-width="1240"
     inkscape:window-height="998"
     inkscape:window-x="2033"
     inkscape:window-y="19"
     inkscape:window-maximized="0" />
  <metadata
     id="metadata7">
    <rdf:RDF>
      <cc:Work
         rdf:about="">
        <dc:format>image/svg+xml</dc:format>
        <dc:type
           rdf:resource="http://purl.org/dc/dcmitype/StillImage" />
        <dc:title></dc:title>
      </cc:Work>
    </rdf:RDF>
  </metadata>
  <g
     inkscape:groupmode="layer"
     id="layer3"
     inkscape:label="image">
    <path
       style="fill:#4d4d4d;stroke:#000000;stroke-width:1px;stroke-linecap:butt;stroke-linejoin:miter;stroke-opacity:1"
       d="M 128.26219,785.98394 18.660636,842.0474 22.19617,858.71492 131.79772,801.13623 z"
       id="path4136"
       inkscape:connector-curvature="0" />
    <path
       style="fill:#4d4d4d;stroke:#000000;stroke-width:1px;stroke-linecap:butt;stroke-linejoin:miter;stroke-opacity:1"
       d="m 16.640331,829.4205 -12.6269056,5.05076 6.0609156,13.63706 -4.0406106,7.57614 43.4365586,73.23606 -26.769042,95.96448 -3.030458,6.0609 2.020305,8.0812 175.766546,5.5559 -4.54569,-13.132 -159.099025,-4.0406 -1.515229,-5.5558 21.213203,-77.78179 49.497481,83.33759 10.10152,-0.5051 -47.477171,-84.34772 11.111678,-13.13198 z"
       id="path4134"
       inkscape:connector-curvature="0" />
    <path
       style="fill:#4d4d4d;stroke:#000000;stroke-width:1px;stroke-linecap:butt;stroke-linejoin:miter;stroke-opacity:1"
       d="m 117.65559,994.07536 47.47717,-15.65736 6.56599,19.19289 -6.56599,11.11171 -45.96194,18.6878 -13.13199,-3.5355 -3.53553,-8.0813 15.65736,-5.5558 z"
       id="path4140"
       inkscape:connector-curvature="0" />
    <path
       style="fill:#4d4d4d;stroke:#000000;stroke-width:1px;stroke-linecap:butt;stroke-linejoin:miter;stroke-opacity:1"
       d="m 125.73681,782.95348 37.37564,26.26397 20.20305,22.72843 -0.50507,9.59645 -52.02286,100.0051 -11.11168,0.50508 -2.0203,-11.11168 43.94163,-91.41881 -37.88072,-45.96194 -2.0203,-7.57614 z"
       id="path4142"
       inkscape:connector-curvature="0" />
    <path
       style="fill:#4d4d4d;stroke:#000000;stroke-width:1px;stroke-linecap:butt;stroke-linejoin:miter;stroke-opacity:1"
       d="m 426.42307,790.58038 -109.60155,56.06346 3.53553,16.66752 109.60155,-57.57869 z"
       id="path4136-6"
       inkscape:connector-curvature="0" />
    <path
       style="fill:#4d4d4d;stroke:#000000;stroke-width:1px;stroke-linecap:butt;stroke-linejoin:miter;stroke-opacity:1"
       d="m 314.80121,834.01694 -12.6269,5.05076 6.06091,13.63706 -4.04061,7.57614 43.43656,73.23606 -26.76904,95.96444 -3.03046,6.0609 2.0203,8.0812 175.76655,5.5559 -4.54569,-13.132 -159.09902,-4.0406 -1.51523,-5.5558 21.2132,-77.78175 49.49748,83.33755 10.10152,-0.5051 -47.47717,-84.34768 11.11168,-13.13198 z"
       id="path4134-6"
       inkscape:connector-curvature="0" />
    <path
       style="fill:#4d4d4d;stroke:#000000;stroke-width:1px;stroke-linecap:butt;stroke-linejoin:miter;stroke-opacity:1"
       d="m 415.81647,998.6718 47.47717,-15.65736 6.56599,19.19286 -6.56599,11.1117 -45.96194,18.6878 -13.13199,-3.5355 -3.53553,-8.0812 15.65736,-5.5559 z"
       id="path4140-3"
       inkscape:connector-curvature="0" />
    <path
       style="fill:#4d4d4d;stroke:#000000;stroke-width:1px;stroke-linecap:butt;stroke-linejoin:miter;stroke-opacity:1"
       d="m 433.2416,782.49917 -10.10153,1.51523 -2.52538,5.55583 1.01015,4.54569 59.09393,23.23351 -1.51523,111.62185 1.51523,5.05077 7.57614,1.51523 3.03046,-3.53554 12.62691,-127.27922 z"
       id="path4174"
       inkscape:connector-curvature="0" />
    <path
       sodipodi:type="arc"
       style="fill:#4d4d4d;fill-opacity:1;stroke:#000000;stroke-width:1;stroke-linecap:round;stroke-linejoin:round;stroke-miterlimit:4;stroke-opacity:1;stroke-dasharray:none"
       id="path4176"
       sodipodi:cx="240.16377"
       sodipodi:cy="812.70349"
       sodipodi:rx="29.546961"
       sodipodi:ry="29.546961"
       d="m 269.59869,810.13279 a 29.546961,29.546961 0 1 1 -0.0136,-0.15157"
       sodipodi:start="6.1960712"
       sodipodi:end="12.474106"
       sodipodi:open="true"
       transform="translate(-62.656643,20)" />
    <path
       sodipodi:type="arc"
       style="fill:#4d4d4d;fill-opacity:1;stroke:#000000;stroke-width:1;stroke-linecap:round;stroke-linejoin:round;stroke-miterlimit:4;stroke-opacity:1;stroke-dasharray:none"
       id="path4176-3"
       sodipodi:cx="240.16377"
       sodipodi:cy="812.70349"
       sodipodi:rx="29.546961"
       sodipodi:ry="29.546961"
       d="m 269.59869,810.13279 a 29.546961,29.546961 0 1 1 -0.0136,-0.15157"
       sodipodi:start="6.1960712"
       sodipodi:end="12.474106"
       sodipodi:open="true"
       transform="translate(253.68698,-1.9200661)" />
    <path
       sodipodi:type="arc"
       style="fill:#ffffff;stroke:#000000;stroke-width:1;stroke-linecap:round;stroke-linejoin:round;stroke-miterlimit:4;stroke-opacity:1;stroke-dasharray:none"
       id="path4704"
       sodipodi:cx="127.02668"
       sodipodi:cy="862.70605"
       sodipodi:rx="22.475893"
       sodipodi:ry="21.465742"
       d="m 149.41734,860.83845 a 22.475893,21.465742 0 1 1 -0.0104,-0.11011"
       sodipodi:start="6.1960712"
       sodipodi:end="12.474106"
       sodipodi:open="true"
       transform="matrix(0.82348205,0,0,0.88575929,-40.234155,116.03077)" />
    <path
       sodipodi:type="arc"
       style="fill:#ffffff;stroke:#000000;stroke-width:1;stroke-linecap:round;stroke-linejoin:round;stroke-miterlimit:4;stroke-opacity:1;stroke-dasharray:none"
       id="path4704-5"
       sodipodi:cx="127.02668"
       sodipodi:cy="862.70605"
       sodipodi:rx="22.475893"
       sodipodi:ry="21.465742"
       d="m 149.41734,860.83845 a 22.475893,21.465742 0 1 1 -0.0104,-0.11011"
       sodipodi:start="6.1960712"
       sodipodi:end="12.474106"
       sodipodi:open="true"
       transform="matrix(0.82348205,0,0,0.88575929,257.42165,119.86959)" />
    <path
       style="fill:#ffffff;stroke:#000000;stroke-width:1px;stroke-linecap:butt;stroke-linejoin:miter;stroke-opacity:1"
       d="m 89.876387,908.71747 -7.57614,-9.59645 -13.13198,3.53554 -8.5863,6.56599 45.456863,80.30712 7.07107,5.55584 9.09137,1.51523 7.57615,-6.06091 -0.50508,-13.63706 z"
       id="path4724"
       inkscape:connector-curvature="0" />
    <path
       style="fill:#ffffff;stroke:#000000;stroke-width:1px;stroke-linecap:butt;stroke-linejoin:miter;stroke-opacity:1"
       d="m 133.81803,967.81139 36.36549,-11.11167 10.6066,0 5.05076,8.08122 22.72844,52.52796 -1.51523,8.0812 -8.5863,6.566 -9.09137,-4.0406 -18.68782,-45.96197 -31.81981,10.6066 -6.56599,-6.06091 -5.05076,-12.62691 z"
       id="path4726"
       inkscape:connector-curvature="0" />
    <path
       style="fill:#ffffff;stroke:#000000;stroke-width:1px;stroke-linecap:butt;stroke-linejoin:miter;stroke-opacity:1"
       d="m 433.99921,968.61976 36.36549,-11.11167 10.6066,0 5.05076,8.08122 22.72844,52.52789 -1.51523,8.0813 -8.5863,6.566 -9.09137,-4.0406 -18.68782,-45.962 -31.81981,10.6066 -6.56599,-6.06091 -5.05076,-12.62691 z"
       id="path4726-0"
       inkscape:connector-curvature="0" />
    <path
       style="fill:#ffffff;stroke:#000000;stroke-width:1px;stroke-linecap:butt;stroke-linejoin:miter;stroke-opacity:1"
       d="m 389.04742,912.05123 -7.57614,-9.59645 -13.13198,3.53554 -8.5863,6.56599 45.45686,80.30712 7.07107,5.55584 9.09137,1.51523 7.57615,-6.06091 -0.50508,-13.63706 z"
       id="path4724-0"
       inkscape:connector-curvature="0" />
    <path
       style="fill:#ffffff;stroke:#000000;stroke-width:1px;stroke-linecap:butt;stroke-linejoin:miter;stroke-opacity:1"
       d="m 82.300247,913.76823 -3.53553,-9.59644 -10.10153,-3.53554 -10.606602,6.56599 -2.525381,6.06092 -6.060915,31.8198 4.545686,11.61676 7.071068,1.01015 50.002557,-18.68782 3.53553,-7.07107 -3.53553,-6.06092 -41.416263,13.13199 z"
       id="path4764"
       inkscape:connector-curvature="0" />
    <path
       style="fill:#4d4d4d;stroke:#000000;stroke-width:1px;stroke-linecap:butt;stroke-linejoin:miter;stroke-opacity:1"
       d="m 110.07944,791.0347 12.62691,-5.05076 19.1929,45.45686 1.51523,13.13199 -4.54569,12.12183 -48.487323,75.76144 -2.02031,12.6269 2.52539,11.11168 45.456863,73.23606 -11.11168,-1.0102 -43.941633,-69.70048 -4.04061,-13.63706 4.04061,-13.13198 54.043163,-82.83251 -0.50508,-9.59645 -4.04061,-12.12183 z"
       id="path4138"
       inkscape:connector-curvature="0"
       sodipodi:nodetypes="ccccccccccccccccc" />
    <path
       style="fill:#ffffff;stroke:#000000;stroke-width:1px;stroke-linecap:butt;stroke-linejoin:miter;stroke-opacity:1"
       d="m 452.4345,921.39514 -80.81221,-17.17259 -8.08122,1.01015 -5.55584,10.10153 2.52538,8.08122 104.04572,17.17259 11.61675,-2.52538 0.50508,-9.09138 z"
       id="path4766"
       inkscape:connector-curvature="0" />
    <path
       style="fill:#4d4d4d;stroke:#000000;stroke-width:1px;stroke-linecap:butt;stroke-linejoin:miter;stroke-opacity:1"
       d="m 408.24032,795.63114 12.62691,-5.05076 19.1929,45.45686 1.51523,13.13199 -4.54569,12.12183 -48.48732,75.76144 -2.02031,12.6269 2.52539,11.11168 45.45686,73.23602 -11.11168,-1.0102 -43.94163,-69.70044 -4.04061,-13.63706 4.04061,-13.13198 54.04316,-82.83251 -0.50508,-9.59645 -4.04061,-12.12183 z"
       id="path4138-5"
       inkscape:connector-curvature="0"
       sodipodi:nodetypes="ccccccccccccccccc" />
  </g>
</svg>
