<?xml version="1.0" encoding="UTF-8"?>
<svg xmlns="http://www.w3.org/2000/svg" width="650" height="270" id="svg2">
	<style type="text/css">
		.equipment {fill:#4d4d4d;stroke:#000000;stroke-opacity:1}
		.body { fill:#ffffff;stroke:#000000;stroke-opacity:1 }
		.arrow { fill:#ff0000;stroke:#000000;stroke-opacity:1 }
	</style>  
  <path id="path4560" class="equipment" d="m 170.74646,56.844579 -19.88198,56.633361 20.56756,4.66392 -29.48016,127.25857 -46.619799,-1.33258 -0.685579,14.65806 195.391768,6.66279 -13.02611,-11.32671 -124.7765,-3.33135 7.54143,-41.97538 10.28378,-6.66279 12.34053,-3.99763 11.65494,4.66392 100.09544,63.29614 8.91261,-5.99641 -76.09996,-49.97074 0,-21.32076 -4.11351,-7.99527 -10.96937,0.66629 -7.54143,16.65683 -19.19638,-9.99414 -10.28378,1.33258 -8.9126,5.33021 23.30989,-97.276144 -0.68558,-8.661579 -6.85586,-0.66627 7.54144,-27.317273 z" />
  <path id="path4562" class="equipment" d="m 151.55007,188.76699 -54.84682,-13.99177 2.056759,-23.98589 37.707181,7.32906 13.71171,9.99404 0.68558,9.99414 4.7991,3.33144 z" />
  <path id="path4560-5" class="equipment" d="m 436.75351,55.512049 -19.88197,56.633361 20.56756,4.66392 -29.48016,127.25852 -46.61979,-1.33257 -0.68559,14.65806 195.39177,6.66279 -13.02611,-11.32672 -124.7765,-3.33134 7.54143,-41.97538 10.28377,-6.6627 12.34055,-3.99764 11.65494,4.66393 100.09544,63.29604 8.9126,-5.99641 -76.09995,-49.97065 0,-21.32075 -4.11352,-7.99537 -10.96936,0.66629 -7.54143,16.65692 -19.19639,-9.99413 -10.28378,1.33248 -8.9126,5.33021 23.30989,-97.276094 -0.68558,-8.661579 -6.85585,-0.666269 7.54143,-27.317274 z" />
  <path id="path4562-6" class="equipment" d="m 416.87154,188.76699 -54.84681,-13.99177 2.05675,-23.98587 37.70719,7.32904 13.7117,9.99413 0.68558,9.99414 4.7991,3.33135 z" />
  <path id="path4612" class="body" d="m 184.38146,26.701857 a 20.224763,20.987657 0 1 1 -0.01,-0.107663" />
  <path id="path4612-5" class="body" d="m 445.24662,29.033828 a 20.224763,20.987657 0 1 1 -0.01,-0.107662" />
  <path id="path4632" class="body" d="m 135.7816,57.510839 9.5982,-6.662751 8.22702,0 13.02613,5.330203 4.11351,13.325492 -26.05224,77.287887 -8.22703,9.99412 -15.76846,-1.99882 -8.91261,-13.3255 20.56755,-77.954159 z" />
  <path id="path4632-1" class="body" d="m 398.36074,57.177704 9.5982,-6.662751 8.22701,0 13.02613,5.330203 4.11351,13.325493 -26.05224,77.287881 -8.22703,9.99413 -15.76846,-1.99883 -8.9126,-13.32549 20.56756,-77.954163 z" />
  <path id="path4670" class="body" d="m 144.69422,70.170062 2.74233,10.660396 7.54144,3.997645 102.83778,3.331376 10.96936,-5.330194 -0.68558,-13.325502 -16.45405,-4.663923 -97.35309,-4.663924 -6.17027,1.998827 z" />
  <path id="path4672" class="body" d="m 418.24271,65.506138 -8.91261,-7.995299 -11.65495,-0.666279 -22.62431,37.977673 4.11351,7.995297 8.91261,4.66393 59.64591,-24.652175 0.68559,-11.326674 -6.85586,-6.662751 -41.13511,17.989425 z" />
  <path id="path4676" class="body" d="m 155.66358,142.79402 -8.22703,1.33255 -8.9126,3.33138 -2.74235,7.32902 6.85586,7.32903 41.1351,13.99177 21.93874,41.30903 8.9126,3.33138 6.85586,-1.33255 4.1135,-5.3302 -22.62431,-49.30434 z" />
  <path id="path4678" class="body" d="m 420.29946,142.79402 -8.91261,-1.99883 -12.34053,1.99883 -4.11351,9.99413 13.02612,9.99412 41.13511,12.65922 21.25314,39.97649 8.22702,3.33137 13.02612,-1.99883 0.68558,-8.66156 -21.25313,-47.30552 z" />
  <path id="path4680" class="equipment" d="m 250.95991,92.823405 0,0 8.91262,-4.663926 7.54143,3.997657 -34.27925,89.280824 19.19638,21.98707 15.08287,15.32432 -8.9126,3.99766 -46.6198,-28.64983 -7.54143,-6.66275 -2.05676,-8.66157 z" />
  <path id="path4682" class="equipment" d="m 493.65708,177.44032 -41.8207,-87.282014 -9.59819,-3.331376 -4.7991,5.330206 32.90809,93.944744 8.91261,8.66158 59.64591,-1.99882 -3.42793,-16.65687 z" />
  <path id="path4684" class="equipment" d="m 295.41896,224.12175 a 27.423407,26.317855 0 1 1 -0.0127,-0.13501" />
  <path id="path4684-1" class="equipment" d="m 584.05034,180.48075 a 27.423407,26.317855 0 1 1 -0.0127,-0.13502" />
</svg>
