<?xml version="1.0" encoding="UTF-8" standalone="no"?>
<!-- Created with Inkscape (http://www.inkscape.org/) -->

<svg
   xmlns:dc="http://purl.org/dc/elements/1.1/"
   xmlns:cc="http://creativecommons.org/ns#"
   xmlns:rdf="http://www.w3.org/1999/02/22-rdf-syntax-ns#"
   xmlns:svg="http://www.w3.org/2000/svg"
   xmlns="http://www.w3.org/2000/svg"
   xmlns:sodipodi="http://sodipodi.sourceforge.net/DTD/sodipodi-0.dtd"
   xmlns:inkscape="http://www.inkscape.org/namespaces/inkscape"
   width="744.09448819"
   height="1052.3622047"
   id="svg2"
   version="1.1"
   inkscape:version="0.48.4 r9939"
   sodipodi:docname="eq.17.svg">
  <defs
     id="defs4" />
  <sodipodi:namedview
     id="base"
     pagecolor="#ffffff"
     bordercolor="#666666"
     borderopacity="1.0"
     inkscape:pageopacity="0.0"
     inkscape:pageshadow="2"
     inkscape:zoom="0.70000001"
     inkscape:cx="132.46205"
     inkscape:cy="-36.208421"
     inkscape:document-units="px"
     inkscape:current-layer="layer3"
     showgrid="false"
     inkscape:window-width="1240"
     inkscape:window-height="998"
     inkscape:window-x="2033"
     inkscape:window-y="19"
     inkscape:window-maximized="0" />
  <metadata
     id="metadata7">
    <rdf:RDF>
      <cc:Work
         rdf:about="">
        <dc:format>image/svg+xml</dc:format>
        <dc:type
           rdf:resource="http://purl.org/dc/dcmitype/StillImage" />
        <dc:title />
      </cc:Work>
    </rdf:RDF>
  </metadata>
  <g
     inkscape:groupmode="layer"
     id="layer3"
     inkscape:label="image">
    <path
       style="fill:#666666;stroke:#000000;stroke-width:1px;stroke-linecap:butt;stroke-linejoin:miter;stroke-opacity:1"
       d="m 15.268687,1020.2898 2.0203,17.6776 200.515273,-1.0101 -1.51523,-13.6371 z"
       id="path3069-7"
       inkscape:connector-curvature="0" />
    <path
       sodipodi:type="arc"
       style="fill:#ffffff;fill-opacity:1;stroke:#000000;stroke-width:1;stroke-linecap:round;stroke-linejoin:round;stroke-miterlimit:4;stroke-opacity:1;stroke-dasharray:none"
       id="path3102-3"
       sodipodi:cx="202.0305"
       sodipodi:cy="877.35327"
       sodipodi:rx="19.192898"
       sodipodi:ry="18.435284"
       d="m 221.15062,875.74933 a 19.192898,18.435284 0 1 1 -0.009,-0.0946"
       sodipodi:start="6.1960712"
       sodipodi:end="12.474106"
       sodipodi:open="true"
       transform="translate(286.7345,-6.4026927)" />
    <path
       style="fill:#ffffff;stroke:#000000;stroke-width:1px;stroke-linecap:butt;stroke-linejoin:miter;stroke-opacity:1"
       d="m 160.97051,899.23487 -3.03046,9.59644 2.52539,75.25637 9.09137,7.57614 12.62691,-1.01015 10.10153,-6.06092 0.50507,-81.82235 -10.6066,-7.07107 -16.66752,-1.01015 z"
       id="path3142"
       inkscape:connector-curvature="0" />
    <path
       style="fill:#ffffff;stroke:#000000;stroke-width:1px;stroke-linecap:butt;stroke-linejoin:miter;stroke-opacity:1"
       d="m 202.89185,970.45062 -7.57616,3.53553 -3.03045,5.05077 2.52539,11.61675 8.08122,2.02031 26.26396,-1.01016 5.55583,41.92128 6.56599,7.0711 9.59645,-1.5153 7.07108,-4.5456 -4.04061,-57.07361 -6.56599,-8.08122 z"
       id="path3144"
       inkscape:connector-curvature="0" />
    <path
       style="fill:#ffffff;stroke:#000000;stroke-width:1px;stroke-linecap:butt;stroke-linejoin:miter;stroke-opacity:1"
       d="m 160.97051,905.80086 23.73859,32.32488 7.57615,2.0203 8.58629,-4.04061 6.56599,-48.99239 -6.56599,-1.51523 -7.07106,1.01015 -8.5863,22.22335 -10.6066,-12.12183 -12.12183,0 z"
       id="path3146"
       inkscape:connector-curvature="0" />
    <path
       style="fill:#ffffff;stroke:#000000;stroke-width:1px;stroke-linecap:butt;stroke-linejoin:miter;stroke-opacity:1"
       d="m 503.41222,903.27548 -6.56599,-6.566 -12.62691,-2.52538 -13.13198,1.51523 -3.53554,6.06092 4.04061,79.80205 5.55584,5.05076 10.10153,5.55584 14.14213,-2.52538 4.54569,-10.10153 z"
       id="path3148"
       inkscape:connector-curvature="0" />
    <path
       style="fill:#ffffff;stroke:#000000;stroke-width:1px;stroke-linecap:butt;stroke-linejoin:miter;stroke-opacity:1"
       d="m 519.57466,968.43031 -9.59645,0.50508 -8.08122,9.59645 4.04061,9.59645 8.08123,4.54569 28.28427,-3.53554 5.05075,47.47716 7.57615,3.5355 14.14213,-2.0203 6.06092,-7.0711 -6.06092,-56.56847 -7.07106,-9.09137 z"
       id="path3150"
       inkscape:connector-curvature="0" />
    <path
       style="fill:#ffffff;stroke:#000000;stroke-width:1px;stroke-linecap:butt;stroke-linejoin:miter;stroke-opacity:1"
       d="m 513.51374,808.32114 8.08123,-1.51523 7.07106,4.04061 -0.50507,8.08122 -35.86042,85.86297 -11.61676,4.0406 -8.58629,-1.01014 -4.54569,-11.11169 34.85027,-69.19544 5.05076,-8.08122 z"
       id="path3152"
       inkscape:connector-curvature="0"
       sodipodi:nodetypes="ccccccccccc" />
    <path
       style="fill:#666666;stroke:#000000;stroke-width:1px;stroke-linecap:butt;stroke-linejoin:miter;stroke-opacity:1"
       d="m 443.81323,839.63587 8.08121,-0.50508 -0.50508,-7.07107 21.71828,-0.50507 1.51523,122.22845 -12.62691,0 0.50508,48.4873 9.09137,0 -1.51523,-13.63703 76.26652,-2.52539 1.51523,12.12183 -11.61675,9.59639 -73.23606,7.5761 1.01015,17.6777 -15.65737,-1.0101 z"
       id="path3065"
       inkscape:connector-curvature="0"
       sodipodi:nodetypes="cccccccccccccccc" />
    <path
       style="fill:#666666;stroke:#000000;stroke-width:1px;stroke-linecap:butt;stroke-linejoin:miter;stroke-opacity:1"
       d="m 335.72691,860.34399 -0.50509,-10.10152 3.03046,-0.50508 -0.50508,-10.10152 11.61676,-6.566 18.18274,13.13199 -1.51522,6.56599 71.21576,10.10152 12.62689,5.55584 12.62691,11.11168 2.02031,16.16244 -1.01015,11.61676 -7.07106,12.12183 -12.62691,9.59645 -37.88072,18.18274 -5.05077,9.09137 -1.51522,12.12183 3.53553,9.09138 31.81981,50.00251 -16.16244,1.5152 -30.80966,-52.02279 -3.53553,-12.62691 2.52537,-14.14213 5.05077,-5.55584 56.06347,-33.84011 5.05076,-8.5863 -1.51523,-19.1929 -12.6269,-7.07106 -8.5863,-2.52538 -91.92388,-12.62691 z"
       id="path3067"
       inkscape:connector-curvature="0" />
    <path
       style="fill:#666666;stroke:#000000;stroke-width:1px;stroke-linecap:butt;stroke-linejoin:miter;stroke-opacity:1"
       d="m 323.60508,1023.4836 2.0203,17.6776 200.51528,-1.0101 -1.51523,-13.6371 z"
       id="path3069"
       inkscape:connector-curvature="0" />
    <path
       style="fill:#666666;stroke:#000000;stroke-width:1px;stroke-linecap:butt;stroke-linejoin:miter;stroke-opacity:1"
       d="m 503.41222,818.42266 5.55584,-4.04061 -5.55584,-6.06091 -56.56854,-13.13199 -104.55079,41.41626 0,6.06091 2.0203,4.04061 103.54064,-31.8198 z"
       id="path3071"
       inkscape:connector-curvature="0" />
    <path
       style="fill:#666666;stroke:#000000;stroke-width:1px;stroke-linecap:butt;stroke-linejoin:miter;stroke-opacity:1"
       d="m 134.70655,839.38335 8.08122,-0.50508 -0.50508,-7.07107 21.71827,-0.50507 1.51523,122.22845 -12.6269,0 0.50507,48.48732 9.09137,0 -1.51523,-13.63705 76.26652,-2.52539 1.51523,12.12183 -11.61675,9.59631 -73.23606,7.5761 1.01015,17.6777 -15.65737,-1.0101 z"
       id="path3065-9"
       inkscape:connector-curvature="0"
       sodipodi:nodetypes="cccccccccccccccc" />
    <path
       style="fill:#666666;stroke:#000000;stroke-width:1px;stroke-linecap:butt;stroke-linejoin:miter;stroke-opacity:1"
       d="m 26.620235,860.09147 -0.50508,-10.10152 3.03046,-0.50508 -0.50508,-10.10152 11.61676,-6.566 18.18274,13.13199 -1.51523,6.56599 71.215755,10.10152 12.6269,5.55584 12.62691,11.11168 2.02031,16.16244 -1.01017,11.61676 -7.07105,12.12183 -12.62691,9.59645 -37.880718,18.18274 -5.05076,9.09137 -1.51523,12.12183 3.53553,9.09138 31.819798,50.00243 -16.16243,1.5152 -30.809656,-52.02271 -3.53553,-12.62691 2.52538,-14.14213 5.050758,-5.55584 56.063458,-33.84011 5.05076,-8.5863 -1.51523,-19.1929 -12.6269,-7.07106 -8.58629,-2.52538 -91.923875,-12.62691 z"
       id="path3067-5"
       inkscape:connector-curvature="0" />
    <path
       sodipodi:type="arc"
       style="fill:#ffffff;fill-opacity:1;stroke:#000000;stroke-width:1;stroke-linecap:round;stroke-linejoin:round;stroke-miterlimit:4;stroke-opacity:1;stroke-dasharray:none"
       id="path3102"
       sodipodi:cx="202.0305"
       sodipodi:cy="877.35327"
       sodipodi:rx="19.192898"
       sodipodi:ry="18.435284"
       d="m 221.15062,875.74933 a 19.192898,18.435284 0 1 1 -0.009,-0.0946"
       sodipodi:start="6.1960712"
       sodipodi:end="12.474106"
       sodipodi:open="true"
       transform="translate(-20.85694,-3.6247427)" />
    <path
       style="fill:#666666;stroke:#000000;stroke-width:1px;stroke-linecap:butt;stroke-linejoin:miter;stroke-opacity:1"
       d="m 186.22432,891.65872 -8.08122,-2.52538 -39.39595,-26.26397 -102.025394,-15.65736 -4.04061,-7.57614 1.515229,-5.55584 109.601535,9.09137 47.98225,40.91118 -1.51523,4.54568 z"
       id="path3100"
       inkscape:connector-curvature="0" />
    <path
       sodipodi:type="arc"
       style="fill:#666666;fill-opacity:1;stroke:#000000;stroke-width:1;stroke-linecap:round;stroke-linejoin:round;stroke-miterlimit:4;stroke-opacity:1;stroke-dasharray:none"
       id="path3104"
       sodipodi:cx="168.44293"
       sodipodi:cy="849.8266"
       sodipodi:rx="27.526657"
       sodipodi:ry="27.779194"
       d="m 195.86521,847.4097 a 27.526657,27.779194 0 1 1 -0.0127,-0.1425"
       sodipodi:start="6.1960712"
       sodipodi:end="12.474106"
       sodipodi:open="true"
       transform="translate(-28.938159,-0.08921274)" />
    <path
       sodipodi:type="arc"
       style="fill:#666666;fill-opacity:1;stroke:#000000;stroke-width:1;stroke-linecap:round;stroke-linejoin:round;stroke-miterlimit:4;stroke-opacity:1;stroke-dasharray:none"
       id="path3104-7"
       sodipodi:cx="168.44293"
       sodipodi:cy="849.8266"
       sodipodi:rx="27.526657"
       sodipodi:ry="27.779194"
       d="m 195.86521,847.4097 a 27.526657,27.779194 0 1 1 -0.0127,-0.1425"
       sodipodi:start="6.1960712"
       sodipodi:end="12.474106"
       sodipodi:open="true"
       transform="translate(276.38044,-45.041013)" />
  </g>
</svg>
