<?xml version="1.0" encoding="UTF-8"?>
<svg xmlns="http://www.w3.org/2000/svg" width="650" height="270" id="svg2">
	<style type="text/css">
		.equipment {fill:#4d4d4d;stroke:#000000;stroke-opacity:1}
		.body { fill:#ffffff;stroke:#000000;stroke-opacity:1 }
		.arrow { fill:#ff0000;stroke:#000000;stroke-opacity:1 }
	</style>  
  <path id="path4136" class="equipment" d="M 200.33937,6.9732676 90.737812,63.036728 94.273346,79.704248 203.8749,22.125558 z" />
  <path id="path4134" class="equipment" d="m 88.717507,50.409828 -12.626906,5.05076 6.060916,13.63706 -4.040611,7.57614 43.436564,73.236052 -26.769047,95.96448 -3.030458,6.0609 2.020305,8.0812 175.76655,5.5559 -4.54569,-13.132 -159.09903,-4.0406 -1.51523,-5.5558 21.21321,-77.78179 49.49748,83.33759 10.10152,-0.5051 -47.47717,-84.34772 11.11167,-13.13198 z" />
  <path id="path4140" class="equipment" d="m 189.73277,215.06468 47.47717,-15.65736 6.56599,19.19289 -6.56599,11.11171 -45.96194,18.6878 -13.13199,-3.5355 -3.53553,-8.0813 15.65736,-5.5558 z" />
  <path id="path4142" class="equipment" d="m 197.81399,3.9428076 37.37564,26.2639704 20.20305,22.72843 -0.50507,9.59645 -52.02286,100.005092 -11.11168,0.50508 -2.0203,-11.11168 43.94163,-91.418802 -37.88072,-45.96194 -2.0203,-7.5761404 z" />
  <path id="path4136-6" class="equipment" d="m 498.50025,11.569708 -109.60155,56.06346 3.53553,16.66752 109.60155,-57.57869 z" />
  <path id="path4134-6" class="equipment" d="m 386.87839,55.006268 -12.6269,5.05076 6.06091,13.63706 -4.04061,7.57614 43.43656,73.236052 -26.76904,95.96444 -3.03046,6.0609 2.0203,8.0812 175.76655,5.5559 -4.54569,-13.132 -159.09902,-4.0406 -1.51523,-5.5558 21.2132,-77.78175 49.49748,83.33755 10.10152,-0.5051 -47.47717,-84.34768 11.11168,-13.13198 z" />
  <path id="path4140-3" class="equipment" d="m 487.89365,219.66112 47.47717,-15.65736 6.56599,19.19286 -6.56599,11.1117 -45.96194,18.6878 -13.13199,-3.5355 -3.53553,-8.0812 15.65736,-5.5559 z" />
  <path id="path4174" class="equipment" d="m 505.31878,3.4884976 -10.10153,1.51523 -2.52538,5.5558304 1.01015,4.54569 59.09393,23.23351 -1.51523,111.621842 1.51523,5.05077 7.57614,1.51523 3.03046,-3.53554 12.62691,-127.279212 z" />
  <path id="path4176" class="equipment" d="m 279.01922,51.122114 a 29.546961,29.546961 0 1 1 -0.0136,-0.15157" />
  <path id="path4176-3" class="equipment" d="m 595.36285,29.202054 a 29.546961,29.546961 0 1 1 -0.0136,-0.15157" />
  <path id="path4704" class="body" d="m 154.88552,99.515748 a 18.508494,19.01348 0 1 1 -0.009,-0.09753" />
  <path id="path4704-5" class="body" d="m 452.54132,103.35457 a 18.508494,19.01348 0 1 1 -0.009,-0.0975" />
  <path id="path4724" class="body" d="m 161.95356,129.70679 -7.57614,-9.59645 -13.13198,3.53554 -8.5863,6.56599 45.45687,80.30712 7.07107,5.55584 9.09137,1.51523 7.57615,-6.06091 -0.50508,-13.63706 z" />
  <path id="path4726" class="body" d="m 205.89521,188.80071 36.36549,-11.11167 10.6066,0 5.05076,8.08122 22.72844,52.52796 -1.51523,8.0812 -8.5863,6.566 -9.09137,-4.0406 -18.68782,-45.96197 -31.81981,10.6066 -6.56599,-6.06091 -5.05076,-12.62691 z" />
  <path id="path4726-0" class="body" d="m 506.07639,189.60908 36.36549,-11.11167 10.6066,0 5.05076,8.08122 22.72844,52.52789 -1.51523,8.0813 -8.5863,6.566 -9.09137,-4.0406 -18.68782,-45.962 -31.81981,10.6066 -6.56599,-6.06091 L 499.5104,195.67 z" />
  <path id="path4724-0" class="body" d="m 461.1246,133.04055 -7.57614,-9.59645 -13.13198,3.53554 -8.5863,6.56599 45.45686,80.30712 7.07107,5.55584 9.09137,1.51523 7.57615,-6.06091 -0.50508,-13.63706 z" />
  <path id="path4764" class="body" d="m 154.37742,134.75755 -3.53553,-9.59644 -10.10153,-3.53554 -10.6066,6.56599 -2.52538,6.06092 -6.06091,31.8198 4.54568,11.61676 7.07107,1.01015 50.00256,-18.68782 3.53553,-7.07107 -3.53553,-6.06092 -41.41627,13.13199 z" />
  <path id="path4138" class="equipment" d="m 182.15662,12.024028 12.62691,-5.0507604 19.1929,45.4568604 1.51523,13.13199 -4.54569,12.12183 -48.48733,75.761432 -2.02031,12.6269 2.52539,11.11168 45.45687,73.23606 -11.11168,-1.0102 -43.94164,-69.70048 -4.04061,-13.63706 4.04061,-13.13198 54.04317,-82.832502 -0.50508,-9.59645 -4.04061,-12.12183 z" />
  <path id="path4766" class="body" d="m 524.51168,142.38446 -80.81221,-17.17259 -8.08122,1.01015 -5.55584,10.10153 2.52538,8.08122 104.04572,17.17259 11.61675,-2.52538 0.50508,-9.09138 z" />
  <path id="path4138-5" class="equipment" d="m 480.3175,16.620468 12.62691,-5.05076 19.1929,45.45686 1.51523,13.13199 -4.54569,12.12183 -48.48732,75.761432 -2.02031,12.6269 2.52539,11.11168 45.45686,73.23602 -11.11168,-1.0102 -43.94163,-69.70044 -4.04061,-13.63706 4.04061,-13.13198 54.04316,-82.832502 -0.50508,-9.59645 -4.04061,-12.12183 z" />
</svg>
