<?xml version="1.0" encoding="UTF-8"?>
<svg xmlns="http://www.w3.org/2000/svg" id="muscle-front" width="540" height="1000">
<path id="f-head" class="muscle-outline" muscle="head" d="m 256.41345,177.26987 13.15526,-0.17405 27.65889,-16.62832 13.66828,-8.65162 6.84623,-49.19492 L 316.42857,68.43361 297.85714,42.362181 273.57143,35.576467 231.42857,35.93361 213.57143,46.290752 200,71.647895 l -1.42857,28.928575 14.35834,51.08808 17.92979,12.27149" />
<path id="f-1-1-l" class="muscle-outline" muscle="1-1" d="m 289.44612,166.5798 -9.52633,30.67796 -9.63074,-17.84503 z" />
<path id="f-1-1-r" class="muscle-outline" muscle="1-1" d="m 236.38469,168.10522 19.28117,10.87016 -9.55812,17.56053 z" />
<path id="f-1-2" class="muscle-outline" muscle="1-2" d="m 257.29117,179.1479 11.28026,-0.35715 10.59775,20.78238 -7.02632,28.14619 -4.64286,0.35715 -4.29782,-17.31538 -3.13408,17.16707 -5.96701,0.32839 -7.17464,-29.50969 z" />
<path id="f-1-3-1-l" class="muscle-outline" muscle="1-3-1" d="m 291.42857,165.57647 -16.7615,61.56022 11.56477,-2.62409 13.41102,-64.29328 z" />
<path id="f-1-3-1-r" class="muscle-outline" muscle="1-3-1" d="m 226.09565,163.0568 8.47911,5.11652 17.556,58.58656 -6.82205,-0.30115 z" />
<path id="f-1-3-2-l" class="muscle-outline" muscle="1-3-2" d="m 310.25272,153.83464 -3.27027,66.92645 -18.46701,4.79116 0.60986,-5.49032 12.22307,-59.87892 z" />
<path id="f-1-3-2-r" class="muscle-outline" muscle="1-3-2" d="m 214.50667,154.63821 1.93401,16.46792 7.13075,49.25393 20.43281,6.88559 -19.70642,-65.26028 z" />
<path id="f-2-1-l" class="muscle-outline" muscle="2-1" d="m 261.42857,253.79075 0,0 5,33.92857 86.07143,6.42858 65.71429,2.14285 9.64285,-1.78571 -6.78571,-7.85714 -59.28572,-37.14286 -36.42857,-20 -47.14285,3.92857 z" />
<path id="f-2-1-r" class="muscle-outline" muscle="2-1" d="m 258.21429,254.50504 2.5,33.92857 -144.64286,11.42857 13.57143,-15.71428 18.21428,-22.5 25.71429,-26.07143 50,-3.57143 31.07143,9.28571 z" />
<path id="f-2-2-l" class="muscle-outline" muscle="2-2" d="m 264.64286,290.93361 -0.35715,2.85714 0,25 20.35715,15.71429 23.92857,3.21428 41.78571,-2.5 56.42857,-35.35714 z" />
<path id="f-2-2-r" class="muscle-outline" muscle="2-2" d="m 259.28571,292.00504 -141.42857,9.28571 26.42857,20.71429 55.71429,18.21428 32.85714,-1.78571 23.92857,-13.21429 z" />
<path id="f-3-1-l" class="muscle-outline" muscle="3-1" d="M 312.5,179.50504 328.21429,193.43361 360,203.79075 377.85714,215.93361 387.5,227.36218 325,221.6479 310.71429,202.71932 z" />
<path id="f-3-1-r" class="muscle-outline" muscle="3-1" d="m 215.35714,185.21932 1.07143,21.42858 -14.28571,20.35714 -65.71429,-0.71429 15.71429,-6.07143 11.78571,-12.14285 35.35714,-10 z" />
<path id="f-4-1-l" class="muscle-outline" muscle="4-1" d="m 350,227.00504 28.57143,2.14286 17.5,8.92857 22.85714,26.78571 5.71429,21.42857 -35.71429,-22.85714 -20.35714,-13.57143 -18.92857,-13.21428 z" />
<path id="f-4-1-r" class="muscle-outline" muscle="4-1" d="m 135.82627,229.8304 24.1132,0.32083 8.14164,7.41978 -17.36682,16.57689 -28.92858,34.64285 -22.142853,14.64286 4.285713,-25.35714 5.35714,-19.64286 z" />
<path id="f-4-2-l" class="muscle-outline" muscle="4-2" d="m 395,228.07647 -1.78571,2.14285 8.92857,10.71429 20,21.42857 5.71428,24.64286 19.64286,31.78571 5,-0.71428 11.78572,-28.92857 -3.92858,-22.5 L 447.5,244.86218 418.92857,228.43361 z" />
<path id="f-4-2-r" class="muscle-outline" muscle="4-2" d="m 133.92857,226.6479 -2.85714,0.35714 -19.28572,-2.5 L 90,234.86218 l -12.5,15.35714 -8.928571,17.85715 -0.714286,26.42857 10.714286,18.21428 8.214285,3.92858 9.642858,-9.28572 4.642858,-34.28571 5.35714,-14.64286 21.42857,-24.28571 z" />
<path id="f-5-1-l" class="muscle-outline" muscle="5-1" d="m 451.78572,321.29075 -3.21429,8.57143 6.78571,15.71429 3.21429,16.78571 -2.14286,19.64286 -7.14286,14.28571 2.50001,6.42857 10,-17.85714 8.57142,-15.71428 -3.92857,-30.71429 z" />
<path id="f-5-1-r" class="muscle-outline" muscle="5-1" d="m 79.285714,320.93361 -13.571428,20 -1.071429,26.78571 3.214286,13.57143 11.071429,16.07143 2.142857,-4.64286 -8.214286,-11.07142 -2.142857,-15.71429 3.928571,-21.42857 10,-22.14286 z" />
<path id="f-5-2-1-l" class="muscle-outline" muscle="5-2-1" d="m 410.71429,301.29075 21.07142,-1.42857 12.85715,30 10.35714,32.5 0,16.42857 -10.71429,18.21429 -26.42857,-27.85714 -8.94068,-30.88681 -7.48789,-28.04177 z" />
<path id="f-5-2-1-r" class="muscle-outline" muscle="5-2-1" d="m 109.64286,303.07647 15.71428,9.28571 L 120,329.1479 89.285714,396.29075 83.571429,392.71932 75.357143,380.93361 72.5,365.57647 l 3.928572,-20.35715 10,-21.78571 z" />
<path id="f-5-2-2-l" class="muscle-outline" muscle="5-2-2" d="m 396.07143,310.93361 -13.92857,11.78571 1.78571,27.14286 16.07143,35.71429 8.92857,12.5 17.5,7.85714 10,1.42857 10,14.64286 1.07143,-11.42857 -5.71429,-13.21429 -25.35714,-26.42857 -15.71428,-58.57143 z" />
<path id="f-5-2-2-r" class="muscle-outline" muscle="5-2-2" d="m 130.35714,315.21932 7.14286,12.85715 3.21429,23.57143 -10,25.35714 -11.42858,15.71428 -14.28571,1.78572 -10.714286,5 -3.928571,-3.21429 z" />
<path id="f-5-3-l" class="muscle-outline" muscle="5-3" d="m 422.67857,409.7729 2.5,12.85714 -1.07143,26.78571 17.85715,-16.07143 0.71428,-12.14285 -10.35714,-12.14286 z" />
<path id="f-5-3-r" class="muscle-outline" muscle="5-3" d="m 112.58928,397.67469 -15.714281,2.85714 -11.42857,-0.71429 0.71428,20.71429 8.57143,22.14286 9.642861,7.85714 1.42857,-23.21429 2.14286,-6.07142 -1.07143,-7.14286 6.42857,-7.5 z" />
<path id="f-5-5-1-l" class="muscle-outline" muscle="5-5-1" d="m 459.28572,310.21932 0,0 22.85714,22.14286 4.64286,9.28572 -0.71429,17.85714 0,19.64286 L 472.14286,367.71932 470,348.07647 l -2.85714,-12.5 -11.78572,-15.35715 z" />
<path id="f-5-5-1-r" class="muscle-outline" muscle="5-5-1" d="M 74.285714,311.29075 53.928572,334.1479 50,373.79075 l 12.142857,-6.42857 1.428572,-27.5 12.5,-20.35714 z" />
<path id="f-6-1-l" class="muscle-outline" muscle="6-1" d="m 473.03572,372.80861 14.28571,23.21429 13.21429,16.07142 4.28571,31.42858 -24.28571,48.21428 -8.21429,39.64286 -5,-6.78572 -1.78571,-45.71428 -15,-25.71429 2.85714,-47.5 z" />
<path id="f-6-1-r" class="muscle-outline" muscle="6-1" d="m 51.51786,378.03183 8.92857,-6.42857 3.92857,10.71428 16.428569,20.35715 1.07143,28.57143 -9.28571,23.21428 -11.785719,15.71429 -1.78571,51.07143 -4.64286,0.35714 -3.57143,-47.85714 -22.500001,-35 1.78572,-30.71429 16.42857,-21.07143 z" />
<path id="f-6-2-l" class="muscle-outline" muscle="6-2" d="m 443.75,435.13004 3.21429,7.14286 0.35714,10.35714 15.35714,26.78571 -0.35714,32.5 -8.57143,-16.07143 -0.71428,-15.35714 -14.64286,-14.64286 -4.28572,-20.71428 z" />
<path id="f-6-2-r" class="muscle-outline" muscle="6-2" d="m 84.017859,424.4604 0,0 0,8.57143 -9.28572,23.21429 -9.642849,12.85714 -1.42858,26.78571 0.71429,2.85715 26.428569,-39.28572 2.85714,-13.57143 z" />
<path id="f-6-5-l" class="muscle-outline" muscle="6-5" d="m 506.60714,444.05861 3.21429,11.07143 -6.42857,62.85714 -4.28572,-1.07143 -3.57142,-45.71428 z" />
<path id="f-6-5-r" class="muscle-outline" muscle="6-5" d="m 26.874999,447.31754 -3.92857,11.78572 0,32.5 9.64286,33.57143 2.5,-2.14286 1.78571,-50.71429 -2.85714,-21.07142 z" />
<path id="f-6-6-l" class="muscle-outline" muscle="6-6" d="m 423.75,453.70147 8.99667,-8.02966 4.91979,22.48789 13.52301,15.00756 -16.70551,-8.37469 z" />
<path id="f-6-6-r" class="muscle-outline" muscle="6-6" d="m 104.01785,453.38897 -16.071421,30.35715 0,0 -11.07143,8.57142 -5.71429,10.71429 -3.92857,-3.92857 25,-37.5 3.21429,-10.35714 z" />
<path id="f-6-7-l" class="muscle-outline" muscle="6-7" d="m 496.25,519.41575 -36.78571,36.42857 -0.35715,5 37.5,-32.14285 z" />
<path id="f-6-7-r" class="muscle-outline" muscle="6-7" d="m 36.160709,524.81754 -4.28571,5 37.5,24.64286 0.35714,-6.78571 z" />
<path id="f-6-8-l" class="muscle-outline" muscle="6-8" d="m 494.10714,505.84432 -13.57142,24.28572 15,-13.57143 z" />
<path id="f-6-8-r" class="muscle-outline" muscle="6-8" d="M 37.739129,500.41711 49.86096,529.08019 37.739129,522.26166 z" />
<path id="f-6-9-l" class="muscle-outline" muscle="6-9" d="m 492.67857,472.2729 -10,18.21428 -7.5,37.5 2.5,1.78572 16.78572,-30.71429 z" />
<path id="f-6-9-r" class="muscle-outline" muscle="6-9" d="m 52.23214,521.9604 -4.64285,-1.42857 -9.285721,-22.5 0,-36.07143 10.000001,12.14286 z" />
<path id="f-7-1" class="muscle-outline" muscle="7-1" d="m 257.67857,328.88004 -23.21428,11.07143 -28.92857,3.21428 10.35714,95 2.5,28.57143 18.92857,54.28572 13.57143,15.71428 7.85714,3.57143 9.64286,0 13.92857,-7.85714 22.5,-82.14286 1.07143,-38.21429 0,-8.92857 7.85714,-20 2.85714,-3.57143 -4.64285,-37.5 -30,-6.42857 -15.71429,-8.92857 z" />
<path id="f-7-3-l" class="muscle-outline" muscle="7-3" d="m 377.32143,325.30861 -5.71429,2.85714 -13.57142,5.71429 -5.35715,10.71428 3.92857,56.07143 16.42858,-15 8.92857,-35.35714 z" />
<path id="f-7-3-r" class="muscle-outline" muscle="7-3" d="m 140.89286,327.80861 6.07143,53.92857 20,22.5 2.85714,-69.64286 z" />
<path id="f-7-4-l" class="muscle-outline" muscle="7-4" d="m 173.125,335.97826 29.28571,8.92857 10.35715,91.42857 -43.92858,-29.64286 z" />
<path id="f-7-4-r" class="muscle-outline" muscle="7-4" d="m 318.48214,342.76397 31.78572,-3.21428 3.21428,65 -41.78571,35.71428 -3.21429,-30.71428 11.42857,-25 z" />
<path id="f-7-5-r" class="muscle-outline" muscle="7-5" d="m 165.625,408.47826 0,0 43.57143,31.78571 -1.42857,31.07143 -4.28572,6.42857 -38.57143,-27.14285 0.35715,-40.35715 z" />
<path id="f-7-5-l" class="muscle-outline" muscle="7-5" d="m 355.625,408.47826 -44.64286,35.35714 -0.71428,22.14286 4.64285,8.21428 10,-1.78571 6.78572,-7.5 12.5,0.71429 7.85714,-8.92858 3.21429,-16.78571 -0.35715,-14.28571 z" />
<path id="f-9-1-l" class="muscle-outline" muscle="9-1" d="m 355,463.79075 16.07143,16.42857 5.35714,16.78572 -2.14286,15.71428 -12.5,-17.14285 -10.35714,-18.21429 z" />
<path id="f-9-1-r" class="muscle-outline" muscle="9-1" d="m 170.71429,472.36218 5.71428,0.35714 -5.71428,32.85715 -14.28572,16.42857 -5,-11.42857 0.71429,-13.21429 L 160,483.43361 z" />
<path id="f-a-1-l" class="muscle-outline" muscle="a-1" d="m 263.92857,587.36218 21.78572,22.14286 -11.07143,43.57143 -6.78572,-1.78572 -1.07143,-11.78571 -3.57142,-44.28572 0.71428,-7.85714 z" />
<path id="f-a-1-r" class="muscle-outline" muscle="a-1" d="m 256.42857,587.36218 3.57143,8.92857 2.14286,55 -3.21429,6.78572 -16.42857,-50 z" />
<path id="f-a-2-l" class="muscle-outline" muscle="a-2" d="M 347.85714,474.1479 333.57143,477.36218 300,563.79075 l -11.07143,44.64286 -13.57143,49.28571 2.85715,9.28572 14.64285,-54.28572 12.85715,-23.57142 16.07142,-49.64286 27.5,-63.92857 z" />
<path id="f-a-2-r" class="muscle-outline" muscle="a-2" d="m 178.57143,484.86218 8.92857,-7.5 37.5,87.85714 32.85714,97.14286 0.71429,18.21429 -4.64286,-6.78572 -3.57143,-20 -33.57143,-70 -5.71428,-25.35714 -11.78572,-17.14286 -9.64285,-20.71428 z" />
<path id="f-a-3-l" class="muscle-outline" muscle="a-3" d="m 349.28571,480.21932 25,37.85715 5.71429,15.71428 5.35714,38.92857 -8.57143,-6.42857 -4.64285,-6.07143 -8.21429,-26.78571 L 342.5,498.79075 z" />
<path id="f-a-3-r" class="muscle-outline" muscle="a-3" d="m 180,500.21932 -6.78571,5.35715 -17.5,18.92857 -11.78572,17.14286 1.78572,42.5 6.78571,-15 6.07143,-7.5 22.5,-55.71429 z" />
<path id="f-a-4" class="muscle-outline" muscle="a-4" d="m 244.01785,535.17469 -16.78571,28.57143 8.57143,23.21428 22.14286,-33.21428 5.71428,-1.07143 22.85714,38.21428 9.64286,-28.21428 -13.92857,-27.14286 -13.57143,6.78571 -11.07143,1.42858 z" />
<path id="f-a-5-l" class="muscle-outline" muscle="a-5" d="m 266.07143,562.71932 21.78571,33.21429 -0.71428,9.64286 -22.5,-21.42857 z" />
<path id="f-a-5-r" class="muscle-outline" muscle="a-5" d="m 255.71429,562.71932 -18.92858,28.21429 4.28572,13.92857 14.28571,-22.85714 z" />
<path id="f-a-6-l" class="muscle-outline" muscle="a-6" d="m 340,508.43361 -11.07143,30.71429 -7.14286,9.64285 -13.92857,42.14286 -0.35714,6.78571 26.07143,48.92858 8.21428,35.35714 7.85715,0.35714 12.5,-26.78571 3.92857,-21.42857 5.71428,-28.57143 L 375,575.93361 372.85714,564.50504 361.42857,535.93361 z" />
<path id="f-a-6-r" class="muscle-outline" muscle="a-6" d="m 182.5,507.00504 14.64286,38.92857 11.07143,15.35714 6.42857,23.57143 -1.78572,40.71429 -11.78571,38.57143 -11.78572,29.64285 -6.07142,-0.71428 -19.28572,-41.78572 -8.57143,-36.07143 -2.14285,-40 7.5,-11.78571 z" />
<path id="f-a-7-l" class="muscle-outline" muscle="a-7" d="m 379.64286,572.36218 22.5,53.92857 3.57143,9.28572 -1.78572,45 -2.14286,10.35714 -8.21428,21.07143 -20.71429,21.78571 -15,-3.92857 -6.07143,-8.21428 -3.21428,-36.42858 3.57143,-1.78571 11.07143,-23.92857 13.57142,-86.78572 z" />
<path id="f-a-7-r" class="muscle-outline" muscle="a-7" d="m 148.92857,581.29075 -5,8.21429 -8.57143,17.85714 -7.85714,33.21429 3.57143,39.64285 5.71428,19.28572 19.28572,29.64286 16.07143,10 13.21428,-5.71429 -1.07143,-36.42857 L 162.5,654.1479 l -8.21429,-36.42858 -2.5,-35.71428 z" />
<path id="f-a-8-l" class="muscle-outline" muscle="a-8" d="m 306.07143,599.86218 25,47.85714 8.57143,36.07143 2.14285,4.28572 -0.35714,26.78571 -19.64286,38.21429 -32.14285,-19.28572 -10.71429,-25 -1.78571,-37.5 2.85714,-1.42857 15,-55.71428 7.14286,-13.57143 z" />
<path id="f-a-8-r" class="muscle-outline" muscle="a-8" d="m 190.66629,697.29356 7.07107,31.06219 10.85914,10.35407 14.89975,5.55584 15.15229,3.53553 13.13198,-7.07107 6.81853,-36.11295 0,-20.70813 -6.81853,-9.59645 -3.03046,-19.44543 -31.31472,-65.91246 -1.2627,0.50508 -1.76776,37.62818 -11.36422,39.14341 z" />
<path id="f-b-6-l" class="muscle-outline" muscle="b-6" d="m 306.5813,792.2479 -11.86929,21.71828 -3.03046,17.93021 -1.76777,17.93021 3.03046,16.92005 4.79822,17.93021 10.85914,9.34391 4.54569,-10.6066 0.75761,-12.37437 11.61676,-18.43528 1.26269,-24.24366 -4.79823,-15.15229 z" />
<path id="f-b-6-r" class="muscle-outline" muscle="b-6" d="m 234.60793,787.95475 3.03046,0 15.65736,27.02158 6.06092,14.64722 1.26269,9.84898 1.01015,21.97082 -3.53553,11.11168 -5.30331,10.85914 -7.57614,9.59645 -1.26269,-14.64721 -11.36422,-26.51651 -6.56599,-4.54568 -2.0203,-35.10281 z" />
<path id="f-b-7-l" class="muscle-outline" muscle="b-7" d="m 308.6016,897.80884 3.283,17.67767 7.3236,16.41498 5.55584,35.1028 1.26269,-2.27284 4.29315,-12.87945 -2.27284,-96.97464 -2.52538,1.01015 -9.34391,15.9099 -1.51523,13.38453 z" />
<path id="f-b-7-r" class="muscle-outline" muscle="b-7" d="m 224.25387,850.58421 0.25253,102.78302 5.80838,20.20305 4.29315,-1.01015 -0.25254,-32.57742 7.32361,-23.23351 1.76776,-22.98097 -1.26269,-13.63706 -11.11168,-24.74873 z" />
<path id="f-b-1-l" class="muscle-outline" muscle="b-1" d="m 356.83639,797.29866 6.81853,8.08123 2.27284,11.86929 0.50508,43.18402 -3.283,24.24366 -11.36422,30.30458 -5.3033,9.09137 -5.3033,45.45686 -3.53553,-2.27284 8.33376,-58.08377 -5.3033,-37.88072 0.25253,-34.34519 8.08122,-28.53681 z" />
<path id="f-b-1-r" class="muscle-outline" muscle="b-1" d="m 184.35284,792.2479 -6.81853,11.61676 2.27284,53.033 20.20305,54.04317 13.38453,58.58884 2.52538,-2.77792 -9.34391,-55.05331 2.52538,-17.67767 1.01015,-39.14341 -3.78807,-20.45559 -13.13199,-35.60788 z" />
<path id="f-b-3-l" class="muscle-outline" muscle="b-3" d="m 367.19045,777.09561 -2.52538,7.07107 10.6066,29.54696 1.26269,69.19545 -4.54568,11.8693 -15.40483,29.54696 -7.32361,48.73986 7.57615,-8.33376 10.35406,-51.26524 17.93021,-39.90103 3.28299,-11.86929 -0.75761,-33.84011 -4.79822,-22.72843 z" />
<path id="f-b-3-r" class="muscle-outline" muscle="b-3" d="m 176.01908,769.26693 1.51523,5.3033 -9.84899,27.7792 2.27285,59.34646 36.61803,113.64216 -5.80838,4.79823 -35.35534,-119.70308 -7.82868,-24.4962 1.51523,-32.82996 z" />
<path id="f-b-5-l" class="muscle-outline" muscle="b-5" d="m 363.65492,785.68191 -5.05077,9.84899 6.566,8.58629 2.77792,10.85914 0.75761,42.17387 -3.283,26.76905 -10.6066,26.5165 -6.06091,13.8896 -5.55584,46.46701 4.04061,2.02031 7.57614,-51.51778 15.65737,-28.03173 3.53553,-11.61676 -0.75761,-68.18529 z" />
<path id="f-b-5-r" class="muscle-outline" muscle="b-5" d="m 179.04954,776.84308 3.78807,13.13198 -7.57614,13.38452 1.76776,52.78047 11.61676,32.82996 10.35406,22.22335 13.8896,60.8617 -4.79823,2.0203 -12.6269,-50.00255 -16.41498,-47.22463 -7.82868,-17.93021 -1.51523,-55.55839 z" />
</svg> 
