<?xml version="1.0" encoding="UTF-8"?>
<svg xmlns="http://www.w3.org/2000/svg" width="650" height="270" id="svg2">
	<style type="text/css">
		.equipment {fill:#4d4d4d;stroke:#000000;stroke-opacity:1}
		.body { fill:#ffffff;stroke:#000000;stroke-opacity:1 }
		.arrow { fill:#ff0000;stroke:#000000;stroke-opacity:1 }
	</style>  
  <path id="path6718" class="equipment" d="m 259.88381,50.05737 13.2803,-2.097595 6.98962,5.593584 1.39793,9.788765 -113.232,200.669716 -14.67822,-0.69921 40.53985,-69.22057 -3.49482,-4.89438 -12.58133,-13.98396 -11.88237,0 -11.18341,-4.89438 -1.39792,-11.88635 6.29066,-4.19519 31.45334,-1.3984 6.98963,6.29278 4.89274,1.39839 -1.39793,-6.99197 z" />
  <path id="path7230" class="body" d="m 217.94604,59.146934 6.98962,-4.894383 9.78548,-4.195181 14.67822,4.894383 4.19379,16.081541 -42.63675,77.610926 -4.19378,5.59358 -13.97926,5.59358 -90.86518,15.38234 -9.086519,82.50531 -9.785481,4.19517 -10.484445,-2.79675 -2.096888,-11.8864 6.989629,-76.21252 11.88237,-16.08153 83.875554,-13.28476 z" />
  <path id="path6718-7" class="equipment" d="m 559.03995,50.057977 13.2803,-2.097595 6.98962,5.593584 1.39794,9.788765 -113.23201,200.669689 -14.67822,-0.69921 40.53985,-69.22052 -3.49481,-4.89438 -12.58134,-13.98403 -11.88237,0 -11.1834,-4.89439 -1.39793,-11.8863 6.29067,-4.19519 31.45333,-1.39839 6.98963,6.29278 4.89275,1.39839 -1.39794,-6.99197 z" />
  <path id="path6720-5" class="body" d="m 566.64904,24.779468 a 20.968889,21.325525 0 1 1 -0.01,-0.109389" />
  <path id="path7230-1" class="body" d="m 517.10218,59.147541 6.98962,-4.894383 9.78548,-4.195181 14.67822,4.894383 4.19379,16.081541 -42.63674,77.610929 -4.19379,5.59357 -13.97925,5.59359 -90.86519,15.38229 -9.08651,82.50534 -9.78548,4.19517 -10.48445,-2.79675 -2.09688,-11.8864 6.98962,-76.21253 11.88237,-16.08151 83.87555,-13.28475 z" />
  <path id="path7256" class="body" d="m 217.24707,68.236507 4.89274,-6.991978 9.08651,-3.495989 11.18342,3.495989 3.49481,11.88636 -19.57097,48.943821 -53.12118,46.84623 -8.38756,-2.09759 -10.48443,-11.18716 1.39792,-6.99197 51.02429,-34.95988 z" />
  <path id="path7258" class="body" d="m 525.48974,59.146934 9.08652,-2.097596 11.1834,6.991978 0.69896,7.69117 -31.45332,50.342224 -13.97927,5.59358 -12.58133,-5.59358 -11.18341,-60.830181 5.5917,-8.390371 11.88238,-0.699202 5.5917,9.089573 4.19378,30.764689 c 6.75664,-10.487967 20.81231,-33.378113 20.96889,-32.862284 z" />
  <path id="path7260" class="equipment" d="m 489.14366,58.447742 0,0 0,-7.69118 -27.25955,6.292776 -4.19378,5.593585 2.09688,3.495989 46.83053,40.553448 6.98962,-7.691166 -42.63674,-34.959878 z" />
  <path id="path7262" class="equipment" d="m 221.44084,109.48916 -34.94814,57.33419 -15.37719,5.59358 -5.5917,-11.18716 11.88237,-2.09759 31.45333,-53.83821 z" />
  <path id="path7264" class="equipment" d="m 246.50676,102.40481 a 25.512148,25.17111 0 1 1 -0.0117,-0.12913" />
  <path id="path7264-2" class="equipment" d="m 548.1093,99.60799 a 25.512148,25.17111 0 1 1 -0.0118,-0.129124" />
  <path id="path6720-5-4" class="body" d="m 270.28873,25.128438 a 20.968889,21.325525 0 1 1 -0.01,-0.10939" />
</svg>
