<?xml version="1.0" encoding="UTF-8"?>
<svg xmlns="http://www.w3.org/2000/svg" width="650" height="270" id="svg2">
	<style type="text/css">
		.equipment {fill:#4d4d4d;stroke:#000000;stroke-opacity:1}
		.body { fill:#ffffff;stroke:#000000;stroke-opacity:1 }
		.arrow { fill:#ff0000;stroke:#000000;stroke-opacity:1 }
	</style>  
  <path id="path3595" class="equipment" d="m 132.43492,116.95117 9.59645,-52.52793 6.56599,1.51523 3.03046,34.85026 14.14214,8.08122 11.61674,-5.05076 79.29698,25.25381 5.05076,-6.56599 20.70813,3.03046 4.54568,18.68782 -26.76904,118.1879 -32.32488,0 -1.51523,-8.5863 -78.79189,-1.5152 -2.52538,-11.6168 6.06092,-4.0406 80.30711,3.5355 24.24366,-95.9645 -83.33757,-18.18275 -8.08122,-9.09137 -14.14214,-4.04061 -9.59645,6.06092 z" />
  <path id="path3610" class="equipment" d="m 149.10244,259.88779 40.91117,-140.91631 -3.53554,-8.08122 -9.59645,-0.50508 -13.13197,55.55839 -64.144692,-13.63706 -4.545679,2.0203 1.51522,7.57615 7.576151,6.56599 20.70813,5.05076 23.23351,30.80965 -17.1726,55.05333 z" />
  <path id="path3595-9" class="equipment" d="m 436.9959,117.96132 9.59644,-52.52793 6.56599,1.51523 3.03046,34.85026 14.14214,8.08122 11.61675,-5.05076 79.29698,25.25381 5.05076,-6.56599 20.70813,3.03046 4.54568,18.68782 -26.76904,118.18785 -32.32488,0 -1.51523,-8.5863 -78.7919,-1.5152 -2.52538,-11.6168 6.06092,-4.0406 80.30712,3.5355 24.24366,-95.96445 -83.33758,-18.18275 -8.08122,-9.09137 -14.14214,-4.04061 -9.59644,6.06092 z" />
  <path id="path3610-6" class="equipment" d="m 452.14819,260.89789 40.91118,-140.91626 -3.53554,-8.08122 -9.59645,-0.50508 -13.13198,55.55839 -64.14468,-13.63706 -4.54569,2.0203 1.51523,7.57615 7.57614,6.56599 20.70813,5.05076 23.23351,30.80965 -17.17259,55.05328 z" />
  <path id="path3670" class="body" d="m 141.52629,149.27606 82.32743,21.71828 6.06091,9.09138 -14.64721,70.20557 -8.5863,7.0711 -13.63706,-1.0102 -3.53553,-8.0812 0,-8.0812 15.15229,-53.53808 -64.64976,-17.1726 -9.09137,-7.07106 2.52538,-7.07107 z" />
  <path id="path3642" class="equipment" d="m 257.69383,248.77609 -10e-6,-5.5558 -5.55583,-10.1016 -43.94164,-86.87308 -1.51523,-13.13199 34.85026,-17.67767 8.08123,-6.06091 0.50507,-7.57615 -2.0203,-5.55584 32.32488,-25.25381 -9.09138,-10.10152 -29.7995,26.76904 -9.59644,2.0203 -4.04061,14.64721 -2.02031,7.07107 -25.25381,13.13199 -4.54569,7.07106 -1.51523,12.62691 53.53809,104.55079 4.54568,3.0304 z" />
  <path id="path3646" class="body" d="m 160.64449,27.123524 a 19.697975,19.445436 0 1 1 -0.009,-0.0997" />
  <path id="path3646-6" class="body" d="m 457.62933,25.355764 a 19.697975,19.445436 0 1 1 -0.009,-0.0997" />
  <path id="path3666" class="body" d="m 116.27248,58.36233 6.06091,-6.06091 9.59645,-2.02031 9.59645,4.04061 3.03046,7.07107 2.0203,11.11168 -12.62691,78.28682 -11.11167,10.6066 -11.11168,1.01016 -7.07107,-5.55584 -5.555837,-6.56599 2.020307,-8.5863 z" />
  <path id="path3672" class="body" d="m 125.86892,63.4131 3.53554,12.12183 4.54568,2.52538 57.57869,15.15229 63.63961,0 7.07107,-8.08122 0.50508,-10.10153 -8.5863,-5.05076 -59.599,3.03046 -54.04315,-17.67767 -7.57615,3.03045 z" />
  <path id="path3674" class="body" d="m 414.26747,58.86741 6.56599,-7.57614 11.11168,-2.02031 11.61675,7.07107 3.53554,6.56599 -12.12183,85.86297 -10.10153,10.6066 -16.16244,3.03046 -5.55584,-5.05077 -7.57614,-9.59645 z" />
  <path id="path3678" class="body" d="m 521.34364,168.46896 7.07107,8.5863 0.50507,8.58629 -18.18274,66.67004 -10.10153,4.5457 -9.09137,0 -3.03046,-6.0609 0.50508,-9.0914 16.16244,-53.53805 -6.56599,-4.04061 -58.58885,-13.63706 -8.5863,-4.54569 -4.04061,-6.06092 2.52538,-10.6066 8.08122,-3.03045 z" />
  <path id="path3644" class="equipment" d="m 562.25482,244.73549 -3.53554,-8.0812 -109.60155,-52.02289 -5.05076,-6.56599 -1.51523,-7.07107 15.15229,-26.26396 2.52538,-5.05077 -2.02031,-7.07106 -6.56599,-9.59645 6.56599,-40.91118 -10.10152,-3.03046 -2.52538,50.50763 6.56599,11.61675 -15.65737,25.25382 -3.03045,9.59645 6.56599,11.11167 8.08122,5.05076 106.57109,52.52795 z" />
  <path id="path3676" class="body" d="m 420.32838,61.39279 11.61676,-5.05076 8.58629,6.56599 0.50508,12.12183 -24.74874,16.16244 33.84011,1.51523 4.54569,2.02031 1.01015,9.59645 -4.04061,5.05076 -69.19545,1.51523 -7.57614,-6.56599 -1.51523,-7.57615 z" />
</svg>
