<?xml version="1.0" encoding="UTF-8"?>
<svg xmlns="http://www.w3.org/2000/svg" width="650" height="270" id="svg2">
	<style type="text/css">
		.equipment {fill:#4d4d4d;stroke:#000000;stroke-opacity:1}
		.body { fill:#ffffff;stroke:#000000;stroke-opacity:1 }
		.arrow { fill:#ff0000;stroke:#000000;stroke-opacity:1 }
	</style>  
  <path id="path4883" class="equipment" d="M 151.50876,6.5879395 97.970681,18.70977 l 44.951789,232.84017 -81.31728,-1.5152 0,12.6269 189.4036,2.0203 -1.51523,-13.132 -95.96449,-1.0101 -5.05077,-22.2234 38.89088,2.5254 26.76904,-8.08125 0.50508,-18.18275 -64.14469,-0.50508 -5.05076,7.57615 -8.5863,-44.95179 15.65736,-8.5863 -23.2335,-116.67262 -18.68782,3.53554 -4.04061,-16.16244 41.92132,-7.57615 z" />
  <path id="path4885" class="body" d="m 168.10159,81.64572 a 19.697975,19.697975 0 1 1 -0.009,-0.10105" />
  <path id="path4887" class="body" d="m 152.51891,106.08797 -12.6269,3.03046 -5.05076,6.06091 16.16244,83.84266 4.54568,9.09137 8.5863,2.02031 14.14213,-3.53554 37.37565,0 3.03046,36.3655 6.56599,10.1015 11.61675,0.5051 10.10153,-8.0812 -5.05077,-51.5178 -8.08122,-10.10153 -55.05331,-1.01015 -13.63706,-69.70052 z" />
  <path id="path5478" class="body" d="m 155.54937,117.19965 -5.05076,-11.61676 -12.6269,-1.01015 -5.05077,7.57614 -11.61675,29.29443 -2.52538,6.06091 2.52538,5.05076 63.63961,-5.05076 2.52538,-6.06091 -1.01016,-5.55584 -42.93148,1.01015 z" />
  <path id="path4889" class="equipment" d="m 128.78033,8.6082495 1.01016,-4.54569 11.11167,-3.53553016 40.91118,101.01525066 2.52538,11.61676 -9.59645,41.92133 -2.52538,10.10152 3.53553,10.6066 37.88072,76.26655 -13.63706,-0.5051 -35.86041,-77.27668 0.50507,-20.70813 10.10153,-34.85025 -2.52539,-12.62691 L 167.6712,91.44076 130.80064,9.6183995 z" />
  <path id="path4891" class="equipment" d="m 184.33872,138.41285 3.03046,6.56599 5.05076,3.03046 9.09137,-8.5863 7.07107,-45.96194 -59.09392,-93.94419066 -7.57614,0 -4.04061,3.03046016 47.47716,93.4391105 z" />
  <path id="path4893" class="equipment" d="m 233.21907,93.43768 a 29.546961,29.294424 0 1 1 -0.0136,-0.15027" />
  <path id="path4883-7" class="equipment" d="m 480.06088,8.8607795 -53.53809,12.1218305 44.95179,232.84013 -81.31728,-1.5152 0,12.6269 189.4036,2.0203 -1.51523,-13.132 -95.96448,-1.0101 -5.05077,-22.2234 38.89087,2.5254 26.76904,-8.0812 0.50508,-18.18276 -64.14468,-0.50508 -5.05077,7.57615 -8.58629,-44.95179 15.65736,-8.5863 -23.23351,-116.67262 -18.68782,3.53554 -4.04061,-16.16244 41.92133,-7.57615 z" />
  <path id="path4885-1" class="body" d="m 496.6537,83.91856 a 19.697975,19.697975 0 1 1 -0.009,-0.10105" />
  <path id="path4887-0" class="body" d="m 481.07103,108.36081 -12.62691,3.03046 -5.05076,6.06091 16.16245,83.84266 4.54568,9.09137 8.58629,2.02031 14.14213,-3.53554 37.37565,0 3.03046,36.36546 6.56599,10.1015 11.61675,0.5051 10.10153,-8.0812 -5.05077,-51.51776 -8.08122,-10.10153 -55.05331,-1.01015 -13.63706,-69.70052 z" />
  <path id="path5480" class="body" d="m 470.21188,129.82655 -7.57614,-4.0406 2.52538,-10.10153 4.54569,-5.05077 115.66247,-8.58629 6.56599,6.56599 0.50507,7.57614 -11.11167,4.54569 -102.53049,11.11168 z" />
  <path id="path4889-3" class="equipment" d="m 457.33245,10.88109 1.01015,-4.5456905 11.11168,-3.53553 40.91117,101.0152505 2.52538,11.61676 -9.59645,41.92133 -2.52538,10.10152 3.53553,10.6066 37.88072,76.26651 -13.63706,-0.5051 -35.86041,-77.27664 0.50507,-20.70813 10.10153,-34.85025 -2.52539,-12.62691 -4.54568,-14.64721 -36.87056,-81.82236 z" />
  <path id="path4950" class="equipment" d="m 472.73727,7.5980895 -0.50508,-6.56599 6.56599,-0.50507016 109.09648,46.46701066 17.17259,55.55839 -5.05076,6.06092 -7.57615,-1.51523 -18.68782,-39.39595 -96.46957,-53.53808 z" />
  <path id="path4893-8" class="equipment" d="m 610.76358,56.56713 a 29.546961,29.294424 0 1 1 -0.0136,-0.15027" />
</svg>
