<?xml version="1.0" encoding="UTF-8"?>
<svg xmlns="http://www.w3.org/2000/svg" width="650" height="270" id="svg2">
	<style type="text/css">
		.equipment {fill:#4d4d4d;stroke:#000000;stroke-opacity:1}
		.body { fill:#ffffff;stroke:#000000;stroke-opacity:1 }
		.arrow { fill:#ff0000;stroke:#000000;stroke-opacity:1 }
	</style>  
  <path id="path3129" class="equipment" d="m 176.32298,18.843922 7.90634,-3.303625 49.13225,9.360267 5.6474,13.214487 -2.25896,143.156959 -4.51791,6.60724 -24.8485,11.01207 -60.42702,-23.12536 -0.56474,-8.80966 22.58954,-6.60723 8.47107,-7.15785 z" />
  <path id="path3129-7" class="equipment" d="m 438.92644,19.669823 7.90634,-3.303625 49.13226,9.360266 5.64739,13.214488 -2.25896,143.156958 -4.51791,6.60724 -24.8485,11.01207 -60.42703,-23.12536 -0.56474,-8.80966 22.58955,-6.60723 8.47107,-7.15785 z" />
  <path id="path3149" class="body" d="m 218.04726,48.396136 a 17.506897,17.894618 0 1 1 -0.008,-0.09179" />
  <path id="path3149-3" class="body" d="m 482.34494,49.772634 a 17.506897,17.894618 0 1 1 -0.008,-0.09179" />
  <path id="path3224" class="body" d="m 170.67559,90.973001 2.25895,-11.012078 4.51791,-3.854222 9.60056,1.651813 0,49.554326 -20.89533,43.4977 -17.50689,-2.20242 17.50689,-42.94709 z" />
  <path id="path3220" class="equipment" d="m 154.86292,147.68517 -15.81269,6.05665 -3.95317,11.01207 0.56474,32.48562 33.31956,-7.15784 -0.56473,-40.19408 z" />
  <path id="path3264" class="body" d="m 149.78026,237.98417 -3.95316,-4.95545 -1.12948,-61.11698 5.08266,-8.80966 27.67217,-13.76509 11.85951,3.30362 2.8237,10.46147 -3.95317,8.25905 -23.71902,8.80967 0.56474,49.55436 -2.25896,8.80964 z" />
  <path id="path3169" class="body" d="m 181.97036,83.264547 1.12947,-7.708453 6.21213,-4.955426 17.5069,0.550596 11.85951,8.809659 1.69422,83.141157 -9.60056,4.95543 -27.10745,-2.75302 -1.12948,-9.91086 -1e-5,-65.521844 z" />
  <path id="path3224-2" class="body" d="m 434.40854,88.770581 2.25895,-11.012078 4.51791,-3.854222 9.60056,1.651813 0,49.554326 -20.89533,43.4977 -17.5069,-2.20242 17.5069,-42.94709 z" />
  <path id="path3270" class="equipment" d="m 384.71153,144.38156 -6.77686,7.15785 -0.56474,31.38441 10.16529,8.25906 24.28376,-1.10121 4.51791,-6.05665 1.12948,-36.33983 -6.21212,-6.05665 z" />
  <path id="path3274" class="body" d="m 388.6647,230.27579 -0.56474,-72.67974 6.21213,-3.30363 55.90912,-1.1012 5.64739,9.36027 -1.12948,13.21448 -7.3416,3.30363 -35.57854,1.1012 -1.69421,8.80966 1.12947,44.59889 -11.29477,6.05671 -9.03581,-2.20252 z" />
  <path id="path3169-8" class="body" d="m 447.39751,85.742271 1.12948,-7.708453 6.21212,-4.955426 17.50691,0.550596 11.85951,8.809659 1.69421,83.141163 -9.60056,4.95542 -27.10745,-2.75301 -1.12948,-9.91087 -10e-6,-65.52184 z" />
  <path id="path3200" class="body" d="m 225.45524,81.612735 6.21213,6.607249 11.29478,44.048296 3.38842,52.85795 -5.64738,8.25906 -6.21213,1.1012 -5.64738,-4.95543 -4.51791,-58.36399 -10.73004,-37.991649 0,-6.607249 6.21213,-4.955437 z" />
  <path id="path3200-9" class="body" d="m 492.57662,78.584414 6.21213,6.60725 11.29478,44.048296 3.38842,52.85795 -5.64738,8.25906 -6.21213,1.1012 -5.64738,-4.95543 -4.51791,-58.36399 -10.73004,-37.991649 0,-6.60725 6.21213,-4.955437 z" />
  <path id="path3266" class="body" d="m 208.51308,153.74182 -29.3664,13.76509 -7.90634,14.8663 1.6942,51.75677 4.51791,6.60723 9.60056,-1.65178 3.38844,-5.50608 -0.56475,-44.04829 30.49589,-13.21449 3.38844,-4.95544 -2.25896,-16.5181 z" />
  <path id="path3268" class="equipment" d="m 194.46666,161.54552 -24.25812,8.7738 0.78251,36.19194 8.60772,1.64508 20.34555,-3.29017 -1.56506,-42.22393 z" />
  <path id="path3272" class="equipment" d="m 493.7061,153.74182 24.28376,6.05664 5.08264,9.36025 -4.51791,39.09287 -5.64738,2.20242 -25.41324,-7.15786 -1.69422,-5.50603 2.8237,-38.54226 z" />
  <path id="path3276" class="body" d="m 467.16338,174.11416 0.56473,9.91087 23.71903,9.36026 -13.55373,52.85799 1.12948,14.86624 9.60055,1.65178 9.60056,-7.15775 17.5069,-74.33154 -3.95318,-8.25905 -32.1901,-10.46147 -8.47108,2.20242 z" />
</svg>
