<?xml version="1.0" encoding="UTF-8"?>
<svg xmlns="http://www.w3.org/2000/svg" width="650" height="270" id="svg2">
	<style type="text/css">
		.equipment {fill:#4d4d4d;stroke:#000000;stroke-opacity:1}
		.body { fill:#ffffff;stroke:#000000;stroke-opacity:1 }
		.arrow { fill:#ff0000;stroke:#000000;stroke-opacity:1 }
	</style>  
  <path id="path5183" class="equipment" d="m 272.30126,55.913443 12.85714,-5.71429 9.28572,9.28571 3.57142,17.14286 -45,84.999997 -8.57142,7.85714 -2.14286,15 -43.57143,1.42858 -2.14286,59.28571 92.85715,-1.4285 0,17.8571 -131.42859,-2.8571 -18.57142,-17.8572 12.85714,-6.4285 7.14286,9.2857 20.00001,0 2.14285,-58.5715 -10.71428,-18.57143 7.85714,-11.42857 13.57143,0.71429 30,1.42857 z" />
  <path id="path5731" class="body" d="m 289.72947,26.347262 a 18.928572,19.642857 0 1 1 -0.009,-0.10076" />
  <path id="path5751" class="equipment" d="m 133.01553,70.199133 -21.42856,-3.57143 -5,12.14286 0,15 -9.285717,13.571427 0.714285,9.28571 5.714282,17.14286 2.85715,3.57143 -28.571432,53.57143 -2.857143,10.71428 27.142855,13.57143 7.14286,-22.85714 -12.857143,-5 22.142853,-39.28571 19.28571,-1.42858 16.42858,-11.42857 10.00001,-16.42857 3.57142,-21.428567 -5.71429,-14.28571 z" />
  <path id="path5753" class="body" d="m 252.30126,55.913423 6.42857,-5.71429 8.57143,0 10,2.14286 0.71428,9.28571 -1.42857,7.85715 -40,84.999997 -8.57143,4.28571 -9.28571,5 -9.28571,-2.85714 -18.57143,-2.85714 -47.14287,-8.57143 -7.14286,72.8571 -10.71428,5.7143 -10,0.7143 -5.71428,-11.42856 12.14285,-88.57143 7.14286,-5.71428 7.14285,-2.85715 69.28573,15 7.14285,1.42857 z" />
  <path id="path5755" class="body" d="m 250.1584,67.341993 7.85714,-9.28571 8.57143,2.14285 5,9.28572 -14.28571,56.428567 -42.14286,41.42857 -10,2.14286 -11.42857,-5 -3.57143,-9.28572 46.42857,-35.71428 z" />
  <path id="path5765" class="equipment" d="m 122.01014,203.07536 a 16.557387,16.20029 0 1 1 -0.003,-0.0366" />
  <path id="path5183-3" class="equipment" d="m 557.30126,58.770553 12.85714,-5.71429 9.28572,9.28571 3.57142,17.14286 -45,84.999997 -8.57142,7.85714 -2.14286,15 -43.57143,1.42858 -2.14286,59.2857 92.85715,-1.4285 0,17.8571 -131.42858,-2.8571 -18.57142,-17.8572 12.85714,-6.4285 7.14286,9.2857 20,0 2.14285,-58.57149 -10.71428,-18.57143 7.85714,-11.42857 13.57143,0.71429 30,1.42857 z" />
  <path id="path5731-5" class="body" d="m 578.30091,25.632982 a 18.928572,19.642857 0 1 1 -0.009,-0.10076" />
  <path id="path5814" class="equipment" d="m 403.01554,108.77056 1.42857,-9.285707 15.71429,-8.57143 8.57143,-1.42857 14.28571,1.42857 11.42857,7.85714 7.85715,7.142857 1.42857,12.85714 -1.42857,12.85715 -7.14286,13.57143 -10,11.42856 -13.57142,11.42858 -15.00001,-0.71429 -14.28571,-5 -2.14285,-37.14286 -42.14288,-7.14285 -3.57141,22.85714 -14.28572,-3.57143 5.71428,-34.28571 z" />
  <path id="path5818" class="body" d="m 534.44412,59.484853 7.85714,-8.57143 7.14286,-1.42857 14.28571,3.57143 5.71429,7.14285 -3.57143,8.57143 -47.85715,84.285717 -10,6.42857 -87.14285,-12.85715 -75.71429,32.14286 -12.14286,-7.14286 -2.85714,-10 4.28572,-6.42857 73.57142,-30 10.71429,-3.57143 76.42857,10.71429 z" />
  <path id="path5765-2" class="equipment" d="m 362.36729,140.21823 a 16.557387,16.20029 0 1 1 -0.003,-0.0366" />
  <path id="path5763-2" class="body" d="m 351.25738,140.44341 a 4.6881942,5.4021438 0 1 1 -9.4e-4,-0.0122" />
  <path id="path5856" class="body" d="m 537.30126,67.341993 3.57143,-5 12.14285,-5.71429 6.42858,7.14286 0,12.14286 -20,54.999997 -33.57143,27.85714 -13.57143,10 -10,-2.14286 -5,-7.14285 2.85714,-10 38.57143,-29.28572 z" />
  <path id="path5763" class="body" d="m 111.25738,204.72913 a 4.6881942,5.4021438 0 1 1 -9.5e-4,-0.0122" />
</svg>
