<?xml version="1.0" encoding="UTF-8"?>
<svg xmlns="http://www.w3.org/2000/svg" width="650" height="270" id="svg2">
	<style type="text/css">
		.equipment {fill:#4d4d4d;stroke:#000000;stroke-opacity:1}
		.body { fill:#ffffff;stroke:#000000;stroke-opacity:1 }
		.arrow { fill:#ff0000;stroke:#000000;stroke-opacity:1 }
	</style>  
  <path id="path4422" class="equipment" d="m 208.65622,36.859038 1.28128,14.194045 39.07898,-0.645187 8.96895,4.516285 6.4064,9.677759 -0.64065,4.516287 -7.68767,161.295903 -4.48447,7.74217 -8.32831,3.87109 -41.64154,-1.2903 30.75068,-81.29315 24.98492,7.74221 1.28129,-8.3874 -22.42238,-8.38738 30.11004,-70.325018 -4.48448,-5.161473 -10.25022,-3.225921 -4.48448,1.290367 -36.51642,89.035345 -3.84384,9.67776 -49.96983,-5.16147 -7.04702,2.58074 -3.20321,11.6133 5.12511,5.80666 23.06301,-0.64519 8.3283,1.93555 10.25023,10.32294 4.48447,12.2585 0.64064,10.96812 -7.68766,19.35551 -42.28218,-2.58079 -5.76575,14.83925 107.62735,2.5807 14.09407,-9.67768 11.53149,-14.19405 7.04703,-177.425517 -3.84383,-9.67776 -17.93789,-6.45183 -13.45342,-2.580741 z" />
  <path id="path4422-3" class="equipment" d="m 495.3422,44.923851 1.28127,14.194045 39.07899,-0.645188 8.96894,4.516286 6.4064,9.67776 -0.64064,4.516285 -7.68768,161.295911 -4.48447,7.74218 -8.32831,3.87108 -41.64153,-1.2903 30.75068,-81.29315 24.98491,7.7422 1.28129,-8.38739 -22.42237,-8.38738 30.11003,-70.325025 -4.48447,-5.161472 -10.25023,-3.225921 -4.48447,1.290367 -36.51642,89.035351 -3.84384,9.67776 -49.96985,-5.16148 -7.04702,2.58074 -3.2032,11.61331 5.12512,5.80665 23.063,-0.64519 8.32831,1.93556 10.25022,10.32293 4.48447,12.25849 0.64064,10.96811 -7.68766,19.35554 -42.28218,-2.58078 -5.76575,14.83924 107.62735,2.5807 14.09407,-9.67768 11.53149,-14.19405 7.04703,-177.425525 -3.84383,-9.677758 -17.93789,-6.451831 -13.45342,-2.580742 z" />
  <path id="path4442" class="equipment" d="m 234.92243,19.439073 0,0 7.68767,-3.871098 5.76575,4.516285 -10.25023,32.904367 -14.73469,-1.290366 -3.84384,-5.161473 3.2032,-4.516286 3.2032,-3.22592 -28.82876,-7.097018 -7.04703,6.451839 -11.53151,32.904368 3.84384,9.032572 21.14109,14.839224 3.84383,5.806643 -6.40639,32.2592 -10.25022,0 7.04702,-28.38808 -3.20318,-5.161478 -12.17215,-9.677759 -10.25023,-8.387382 -4.48447,-9.032574 16.65662,-45.808037 7.04703,-4.516286 8.96894,1.290366 28.82876,9.032572 z" />
  <path id="path4462" class="body" d="m 246.9412,68.549382 a 19.138352,17.661198 0 1 1 -0.009,-0.09059" />
  <path id="path4462-5" class="body" d="m 534.58811,77.904552 a 19.138352,17.661198 0 1 1 -0.009,-0.09059" />
  <path id="path4990" class="body" d="m 210.57814,96.86112 4.48448,-5.806652 11.5315,-2.580732 8.96895,1.935554 4.48446,3.871098 0,4.516288 -29.46939,77.422044 -8.96895,6.45183 -10.25021,-0.64517 -4.48448,-3.22592 -6.40639,-6.45184 0,-6.45185 z" />
  <path id="path4990-0" class="body" d="m 494.70155,104.60333 4.48448,-5.806654 11.5315,-2.580734 8.96895,1.935548 4.48446,3.87111 0,4.51628 -29.46939,77.42204 -8.96895,6.45183 -10.25021,-0.64517 -4.48448,-3.22592 -6.40639,-6.45184 0,-6.45184 z" />
  <path id="path5010" class="body" d="m 226.59412,130.41067 -12.81278,-23.2266 -1.28128,-7.742208 3.84383,-5.161474 10.89087,-1.290366 4.48448,0.645187 19.21916,49.679141 0,5.16147 -3.84383,5.80665 -4.48447,1.93555 -6.4064,-0.64519 -49.3292,-15.4844 -4.48447,-6.45184 1.28128,-7.7422 7.04703,-5.80665 5.12511,0.64519 39.71962,14.83922 z" />
  <path id="path5016" class="body" d="m 92.059925,176.21872 78.798605,-14.19405 6.40638,1.93556 5.12512,9.67775 -7.04703,7.7422 -69.18902,13.54886 -1.92191,3.87111 10.89086,53.55021 -5.1251,7.74226 -10.250232,1.93551 -7.687673,-9.03258 -8.968946,-65.16353 1.921917,-7.7422 z" />
  <path id="path5018" class="equipment" d="m 513.60041,38.149403 6.40639,-10.322937 5.12511,-3.22592 7.68767,2.580741 -1.92191,6.451831 -12.17215,23.226617 -9.60959,6.45184 -5.76575,-3.225921 0,-4.516285 6.40639,-9.67776 -86.48627,-32.259179 -26.90683,6.45183 -0.64065,6.45184 57.65752,2.580732 55.7356,21.936251 -0.64065,6.45184 -56.37623,-21.936251 -49.32921,-2.580733 -8.96895,59.356895 3.2032,3.225921 -0.64063,7.097025 -3.84384,0 -0.64064,4.51629 13.45343,-1.29038 -0.64065,5.16148 -7.04703,1.93554 -7.04704,4.5163 -14.09404,-0.64519 7.68767,-4.51629 0,-10.96812 -4.48447,-5.161468 1.92191,-5.161474 5.12511,-0.645178 7.04702,-58.711716 -8.32829,-0.645188 -2.56256,-10.968126 32.67259,-14.1940353 12.81277,-0.6451881 z" />
  <path id="path5020" class="body" d="m 445.69268,171.70243 11.5315,-0.64518 4.48447,7.74221 1.28127,8.38737 -14.09406,3.87112 -62.14198,11.61329 -1.92192,3.22592 10.25022,56.77616 -5.12511,3.22589 -12.81278,-1.2903 -5.12511,-4.51629 -9.60959,-65.80875 5.76575,-8.3874 z" />
  <path id="path5022" class="body" d="m 512.95977,105.24851 3.20319,7.09702 -3.84383,6.45184 -106.98671,0 -6.4064,-6.45184 1.28128,-7.7422 9.60959,-4.51629 96.09584,1.93556 z" />
</svg>
