<?xml version="1.0" encoding="UTF-8"?>
<svg xmlns="http://www.w3.org/2000/svg" width="650" height="270" id="svg2">
	<style type="text/css">
		.equipment {fill:#4d4d4d;stroke:#000000;stroke-opacity:1}
		.body { fill:#ffffff;stroke:#000000;stroke-opacity:1 }
		.arrow { fill:#ff0000;stroke:#000000;stroke-opacity:1 }
	</style>  
  <path id="path3069-7" class="equipment" d="m 51.964089,246.55418 2.0203,17.6776 200.515271,-1.0101 -1.51523,-13.6371 z" />
  <path id="path3102-3" class="body" d="m 544.58052,95.611018 a 19.192898,18.435284 0 1 1 -0.009,-0.0946" />
  <path id="path3142" class="body" d="m 197.66591,125.49925 -3.03046,9.59644 2.52539,75.25637 9.09137,7.57614 12.62691,-1.01015 10.10153,-6.06092 0.50507,-81.82235 -10.6066,-7.07107 -16.66752,-1.01015 z" />
  <path id="path3144" class="body" d="m 239.58725,196.715 -7.57616,3.53553 -3.03045,5.05077 2.52539,11.61675 8.08122,2.02031 26.26396,-1.01016 5.55583,41.92128 6.56599,7.0711 9.59645,-1.5153 7.07108,-4.5456 -4.04061,-57.07361 -6.56599,-8.08122 z" />
  <path id="path3146" class="body" d="m 197.66591,132.06524 23.73859,32.32488 7.57615,2.0203 8.58629,-4.04061 6.56599,-48.99239 -6.56599,-1.51523 -7.07106,1.01015 -8.5863,22.22335 -10.6066,-12.12183 -12.12183,0 z" />
  <path id="path3148" class="body" d="m 540.10762,129.53986 -6.56599,-6.566 -12.62691,-2.52538 -13.13198,1.51523 -3.53554,6.06092 4.04061,79.80205 5.55584,5.05076 10.10153,5.55584 14.14213,-2.52538 4.54569,-10.10153 z" />
  <path id="path3150" class="body" d="m 556.27006,194.69469 -9.59645,0.50508 -8.08122,9.59645 4.04061,9.59645 8.08123,4.54569 28.28427,-3.53554 5.05075,47.47716 7.57615,3.5355 14.14213,-2.0203 6.06092,-7.0711 -6.06092,-56.56847 -7.07106,-9.09137 z" />
  <path id="path3152" class="body" d="m 550.20914,34.585519 8.08123,-1.51523 7.07106,4.04061 -0.50507,8.08122 -35.86042,85.862971 -11.61676,4.0406 -8.58629,-1.01014 -4.54569,-11.11169 34.85027,-69.195441 5.05076,-8.08122 z" />
  <path id="path3065" class="equipment" d="m 480.50863,65.900249 8.08121,-0.50508 -0.50508,-7.07107 21.71828,-0.50507 1.51523,122.228451 -12.62691,0 0.50508,48.4873 9.09137,0 -1.51523,-13.63703 76.26652,-2.52539 1.51523,12.12183 -11.61675,9.59639 -73.23606,7.5761 1.01015,17.6777 -15.65737,-1.0101 z" />
  <path id="path3067" class="equipment" d="m 372.42231,86.608369 -0.50509,-10.10152 3.03046,-0.50508 -0.50508,-10.10152 11.61676,-6.566 18.18274,13.13199 -1.51522,6.56599 71.21576,10.10152 12.62689,5.55584 12.62691,11.111681 2.02031,16.16244 -1.01015,11.61676 -7.07106,12.12183 -12.62691,9.59645 -37.88072,18.18274 -5.05077,9.09137 -1.51522,12.12183 3.53553,9.09138 31.81981,50.00251 -16.16244,1.5152 -30.80966,-52.02279 -3.53553,-12.62691 2.52537,-14.14213 5.05077,-5.55584 56.06347,-33.84011 5.05076,-8.5863 -1.51523,-19.1929 -12.6269,-7.07106 -8.5863,-2.525382 -91.92388,-12.626909 z" />
  <path id="path3069" class="equipment" d="m 360.30048,249.74798 2.0203,17.6776 200.51528,-1.0101 -1.51523,-13.6371 z" />
  <path id="path3071" class="equipment" d="m 540.10762,44.687039 5.55584,-4.04061 -5.55584,-6.06091 -56.56854,-13.13199 -104.55079,41.41626 0,6.06091 2.0203,4.04061 103.54064,-31.8198 z" />
  <path id="path3065-9" class="equipment" d="m 171.40195,65.647729 8.08122,-0.50508 -0.50508,-7.07107 21.71827,-0.50507 1.51523,122.228451 -12.6269,0 0.50507,48.48732 9.09137,0 -1.51523,-13.63705 76.26652,-2.52539 1.51523,12.12183 -11.61675,9.59631 -73.23606,7.5761 1.01015,17.6777 -15.65737,-1.0101 z" />
  <path id="path3067-5" class="equipment" d="m 63.315637,86.355849 -0.50508,-10.10152 3.03046,-0.50508 -0.50508,-10.10152 11.61676,-6.566 18.18274,13.13199 -1.51523,6.56599 71.215753,10.10152 12.6269,5.55584 12.62691,11.111681 2.02031,16.16244 -1.01017,11.61676 -7.07105,12.12183 -12.62691,9.59645 -37.88072,18.18274 -5.05076,9.09137 -1.51523,12.12183 3.53553,9.09138 31.8198,50.00243 -16.16243,1.5152 -30.80965,-52.02271 -3.53553,-12.62691 2.52538,-14.14213 5.05075,-5.55584 56.06346,-33.84011 5.05076,-8.5863 -1.51523,-19.1929 -12.6269,-7.07106 -8.58629,-2.525382 -91.923873,-12.626909 z" />
  <path id="path3102" class="body" d="m 236.98908,98.388968 a 19.192898,18.435284 0 1 1 -0.009,-0.0946" />
  <path id="path3100" class="equipment" d="m 222.91972,117.9231 -8.08122,-2.52538 -39.39595,-26.263971 -102.025392,-15.65736 -4.04061,-7.57614 1.515229,-5.55584 109.601533,9.09137 47.98225,40.911181 -1.51523,4.54568 z" />
  <path id="path3104" class="equipment" d="m 203.62245,73.584868 a 27.526657,27.779194 0 1 1 -0.0127,-0.1425" />
  <path id="path3104-7" class="equipment" d="m 508.94105,28.633068 a 27.526657,27.779194 0 1 1 -0.0127,-0.1425" />
</svg>
