<?xml version="1.0" encoding="UTF-8"?>
<svg xmlns="http://www.w3.org/2000/svg" id="muscle-back"  width="540" height="1000">
<path id="b-aa" class="muscle-outline" muscle="aa" d="m 240.92138,124.03199 -12.17103,-33.078273 0.0492,-22.480114 10.10153,-15.152288 16.16244,-12.121831 31.31473,-5.555839 25.75889,7.576144 17.17259,15.152288 5.05076,14.142136 1.01016,16.667517 -6.06092,17.17259 -7.07107,18.18275 -22.035,-5.63503 -37.564,0.58427 z" />
<path id="b-1-3-l" class="muscle-outline" muscle="1-3" d="m 240.92138,126.55737 -2.52538,38.3858 12.97362,-8.82384 9.7848,-33.0183 z" />
<path id="b-1-3-r" class="muscle-outline" muscle="1-3" d="m 302.48071,123.10103 18.24272,2.95127 0.50508,39.39595 -8.5863,-13.13199 z" />
<path id="b-3-1-1-l" class="muscle-outline" muscle="3-1-1" d="m 264.5016,122.01169 17.33096,-0.50508 -1.01015,26.76904 -12.06187,32.16652 -10.66656,1.67359 -39.39595,7.07107 -30.80966,11.61676 -19.69797,13.13198 -4.54569,-4.54569 16.16244,-14.14213 57.5787,-27.27412 17.17259,-10.6066 9.59645,-32.82996 z" />
<path id="b-3-1-1-r" class="muscle-outline" muscle="3-1-1" d="m 284.86302,122.17006 -0.58426,25.14464 7.27862,21.48917 3.72389,11.7367 58.7772,9.15134 31.31473,20.70813 5.05076,-1.51523 -21.2132,-20.70813 -37.88072,-15.65736 -12.62691,-4.54569 -9.09137,-15.15229 -11.11168,-29.7995 z" />
<path id="b-3-1-2-l" class="muscle-outline" muscle="3-1-2" d="m 269.34481,182.93757 -5.53663,0.85179 -26.92741,4.38732 -16.16244,3.53553 -13.63706,5.05077 -18.68782,8.08122 -18.18275,11.11167 4.04061,5.05077 24.24367,-2.02031 13.63705,10.6066 2.52539,23.73859 21.2132,38.3858 24.24366,53.53808 6.56599,8.5863 9.59645,-13.63706 4.04061,-127.7843 -3.03046,-12.62691 z" />
<path id="b-3-1-2-r" class="muscle-outline" muscle="3-1-2" d="m 295.43963,183.72939 57.60868,8.99298 33.33504,20.20305 -2.52538,5.55584 -30.80966,4.04061 -9.09137,9.59645 3.53554,24.24366 -9.59645,24.74873 -13.13199,15.15229 -7.07106,18.18275 -25.75889,39.90102 -12.12183,-14.14213 4.38732,-127.23003 4.05982,-12.13027 z" />
<path id="b-3-2-l" class="muscle-outline" muscle="3-2" d="m 178.54024,243.86344 15.91413,-7.70451 14.96393,16.24162 -6.43761,22.30253 -5.49587,18.02439 -5.05076,-1.51523 -14.31971,-26.33237 z" />
<path id="b-3-2-r" class="muscle-outline" muscle="3-2" d="m 358.09908,242.72492 -6.06092,10.10152 8.5863,47.98225 21.2132,-23.23351 4.54569,-20.20305 z" />
<path id="b-3-3-l" class="muscle-outline" muscle="3-3" d="m 211.67616,254.39087 12.57771,27.22492 -5.05077,5.55584 -19.06452,5.98173 4.8924,-17.025 z" />
<path id="b-3-3-r" class="muscle-outline" muscle="3-3" d="m 335.37065,289.19193 21.71827,12.12183 -7.07106,-39.90102 -7.57615,17.67767 z" />
<path id="b-3-4-l" class="muscle-outline" muscle="3-4" d="m 141.07464,267.02855 1.32688,17.35861 3.21881,16.67829 14.99392,5.29908 25.25382,-8.08122 -22.72843,-28.78935 z" />
<path id="b-3-4-r" class="muscle-outline" muscle="3-4" d="m 417.193,271.00919 -25.25381,12.12183 -20.70813,21.2132 24.74874,11.61676 16.16244,0 8.5863,-5.55584 0,-29.7995 z" />
<path id="b-3-5-l" class="muscle-outline" muscle="3-5" d="m 145.38278,264.92906 -3.99141,-7.6853 34.65348,-12.02345 -1.04014,18.96613 14.39889,27.53088 -3.53553,2.52538 -21.71828,-27.27412 z" />
<path id="b-3-5-r" class="muscle-outline" muscle="3-5" d="m 389.41381,257.87721 27.77919,1.01015 -5.05076,11.61675 -23.23351,11.61676 -21.71828,21.71828 -3.53553,-3.03046 20.70812,-20.70813 z" />
<path id="b-3-6-l" class="muscle-outline" muscle="3-6" d="m 146.89801,304.94769 4.1198,31.72141 11.61675,27.27412 43.43656,33.84011 15.35985,20.38063 13.03359,-3.82228 0.53506,-21.79746 21.22164,-18.14199 8.51789,-18.96613 -36.94975,-71.29493 -6.56599,5.55584 -59.599,19.1929 z" />
<path id="b-3-6-r" class="muscle-outline" muscle="3-6" d="m 333.35034,291.21224 28.28427,13.63706 34.85026,13.63706 17.67767,1.01015 6.06092,-5.05076 1.51523,15.65736 -15.15229,24.24366 -37.88072,32.32488 -12.45778,9.26895 -7.38779,7.26786 -8.29956,16.31236 -16.04482,-3.32796 -0.84103,-22.24258 -20.12386,-17.38015 -9.59645,-20.70813 27.27412,-42.93148 5.05076,-12.62691 z" />
<path id="b-4-2-l" class="muscle-outline" muscle="4-2" d="m 160.10918,211.91526 5.05076,5.55584 -27.27412,4.54569 -19.1929,14.64721 -7.57614,25.25382 -1.01015,6.56599 -12.121833,18.68782 -7.071068,-8.5863 0,-20.70812 15.657361,-27.7792 22.22336,-18.68782 17.67767,-3.03046 z" />
<path id="b-4-2-r" class="muscle-outline" muscle="4-2" d="m 399.51533,208.37973 6.06092,7.07107 1.01015,2.0203 25.25381,15.65737 12.12183,28.78935 15.15229,16.16244 4.04061,-16.16244 -0.50507,-21.21321 -20.20305,-28.78935 -35.86042,-4.04061 z" />
<path id="b-4-3-l" class="muscle-outline" muscle="4-3" d="m 114.65231,262.92797 -0.50507,-2.52538 5.55584,-21.21321 18.68782,-15.65736 29.7995,-3.53554 26.26397,11.11168 -24.74874,12.62691 -26.26397,7.57614 -5.05076,4.04061 z" />
<path id="b-4-3-r" class="muscle-outline" muscle="4-3" d="m 376.7869,222.01679 -18.18275,16.16244 29.29443,17.17259 50.00255,2.52539 -8.5863,-23.23351 -26.76904,-16.66752 -17.67767,2.0203 z" />
<path id="b-5-2-l" class="muscle-outline" muscle="5-2" d="m 145.96704,338.68941 -7.07106,14.64721 -21.21321,26.26397 -8.5863,8.58629 -0.50507,9.59645 30.30458,-20.70812 12.6269,-29.7995 z" />
<path id="b-5-2-r" class="muscle-outline" muscle="5-2" d="m 405.57625,359.39754 5.55584,17.17259 14.14213,10.10152 11.11168,8.08123 5.55584,8.08122 4.54569,-7.07107 -9.09138,-8.5863 -10.6066,-11.61675 -7.57614,-11.11168 -5.55584,-13.63706 z" />
<path id="b-5-5-1-l" class="muscle-outline" muscle="5-5-1" d="m 63.63961,362.93307 9.65642,-21.49761 -2.091048,-13.76544 7.912084,-23.91849 16.639865,-13.71015 -5.318293,17.1042 -0.860229,27.3041 -10.112298,9.67562 -10.666571,25.75046 z" />
<path id="b-5-5-1-r" class="muscle-outline" muscle="5-5-1" d="m 459.61941,282.12087 7.07107,14.14213 3.18882,32.79997 5.88334,6.59598 8.10043,32.32488 5.55584,-5.05076 -6.56599,-23.73858 0,-30.30458 -9.59645,-17.67767 z" />
<path id="b-5-5-2-l" class="muscle-outline" muscle="5-5-2" d="m 93.392705,347.89488 -3.489128,15.03819 25.758893,-3.03046 23.73858,-15.15229 5.05076,-15.15228 -7.49695,-70.31477 -22.91679,6.83352 -15.469015,24.93709 -5.050762,17.00345 -0.977377,24.93125" />
<path id="b-5-5-2-r" class="muscle-outline" muscle="5-5-2" d="m 421.73869,262.92797 1.51523,15.65736 1.01015,51.51778 -7.07107,14.64721 17.42091,15.60817 14.90397,4.08981 14.64721,-0.50508 -1.51522,-29.7995 5.05076,-4.54568 -2.52538,-30.80966 -8.08122,-16.16244 -17.1726,-19.1929 z" />
<path id="b-5-5-3-l" class="muscle-outline" muscle="5-5-3" d="m 68.185297,395.25795 1.515229,-6.56599 19.747171,-23.23351 29.245223,-3.03046 19.1929,-12.12183 -17.67767,24.24366 -12.6269,12.62691 -25.758894,10.10153 z" />
<path id="b-5-5-3-r" class="muscle-outline" muscle="5-5-3" d="m 466.1854,367.47876 13.63706,31.8198 -15.65737,1.01015 -14.64721,-6.56599 -15.15229,-13.13198 -13.63705,-17.67767 -5.55584,-14.14214 5.55584,1.01016 12.12183,12.6269 15.65736,4.04061 z" />
<path id="b-6-1-l" class="muscle-outline" muscle="6-1" d="m 105.56094,392.73257 3.03046,19.1929 0.50507,18.68782 -2.52538,12.62691 -1.01015,7.57614 -18.182745,25.75889 -17.172593,40.4061 -6.565992,-1.51523 10.101526,-34.34518 2.525381,-19.1929 13.63706,-46.97209 -2.525382,-12.12183 z" />
<path id="b-6-1-r" class="muscle-outline" muscle="6-1" d="m 449.01281,399.29856 14.64721,10.6066 0.50507,42.93149 13.13199,32.82995 3.03046,23.23351 -1.51523,18.68783 -6.06092,-4.04062 -4.54568,-29.29442 -25.75889,-37.88072 -5.05077,-29.29442 3.03046,-20.20305 z" />
<path id="b-6-4-l" class="muscle-outline" muscle="6-4" d="m 67.175144,399.80364 -2.525381,1.51523 -8.08122,9.59645 -4.545687,12.6269 -6.060915,21.21321 -1.010153,15.15228 -2.525381,62.62946 1.515229,12.62691 9.091373,-10.6066 7.576144,-32.82996 17.677669,-38.89087 10.101526,-39.90103 -5.050763,-13.63706 z" />
<path id="b-6-4-r" class="muscle-outline" muscle="6-1" d="m 491.94429,409.40009 0,0 -20.70813,-0.50508 -3.53553,3.03046 0,39.39595 12.62691,32.82996 1.01015,10.6066 11.11168,42.4264 7.07106,-6.06091 1.51523,-71.72083 -4.54568,-36.36549 z" />
<path id="b-6-5-l" class="muscle-outline" muscle="6-5" d="m 51.012704,396.2681 2.020305,14.14214 -5.555839,16.16244 -4.545687,23.73859 -1.010152,38.89087 -7.071068,12.12183 0.505076,-38.3858 -4.545686,-16.66751 6.565991,-23.23351 z" />
<path id="b-6-5-r" class="muscle-outline" muscle="6-1" d="m 493.45952,409.40009 7.07107,18.68782 3.53553,29.29442 -0.50508,35.86042 5.55584,15.65736 0.50508,-34.85026 3.53553,-28.28427 -4.04061,-24.24366 -8.58629,-14.64721 z" />
<path id="b-7-5-l" class="muscle-outline" muscle="7-5" d="m 197.9899,395.76303 -6.17008,15.62737 -4.62487,16.74671 6.24926,16.11324 5.55584,-13.13198 13.18118,-7.7153 1.43604,-10.44824 z" />
<path id="b-7-5-r" class="muscle-outline" muscle="7-5" d="m 358.60415,397.78333 8.5863,31.31473 1.01015,12.62691 -10.10152,-7.07107 -12.62691,-3.53553 -2.0203,-11.11168 7.07106,-15.15229 z" />
<path id="b-8-1-r" class="muscle-outline" muscle="8-1" d="m 267.84879,357.16967 -10.27066,18.74779 -19.62724,17.60693 -0.56504,21.93661 18.68782,16.16244 c 3.55003,10.83225 7.5123,21.52919 10.60661,32.50246 l 10.84413,14.94472 10.63659,0.10918 9.32892,-17.25178 c 1.06061,-10.54203 5.45188,-19.65876 9.60489,-29.23446 l 14.49962,-13.56865 -0.60347,-23.31268 -20.47058,-18.23195 -9.59645,-20.70813 -12.79604,-11.59754 z" />
<path id="b-9-1-l" class="muscle-outline" muscle="9-1" d="m 201.52543,496.77828 1.01016,-2.52538 22.22335,-19.69797 14.64721,-5.55584 15.65737,1.01015 8.08122,-4.04061 11.61675,16.66752 6.06092,16.66751 1.51523,52.02286 -11.61676,17.67767 -50.50762,10.6066 -11.61676,-0.50508 -7.07107,3.03046 -5.55584,-12.6269 12.62691,-30.80966 1.01015,-31.8198 z" />
<path id="b-9-1-r" class="muscle-outline" muscle="9-1" d="m 310.0784,470.30676 -9.10214,-4.63565 -15.10309,23.53103 -2.0203,7.57614 3.53553,55.55839 13.13198,17.67767 40.91118,4.54569 14.80557,5.20912 5.46823,-11.20773 -12.06421,-33.41655 -0.12837,-20.18384 0.0492,-9.55569 5.55584,-12.29097 -22.90601,-12.96285 z" />
<path id="b-9-2-l" class="muscle-outline" muscle="9-2" d="m 235.36554,417.48131 -13.58786,3.17805 -21.2624,15.50977 -8.08122,15.65736 -8.08122,44.44672 12.62691,-1.51523 24.24366,-22.72843 17.67767,-6.566 11.61675,1.01016 12.12183,-5.55584 -7.57614,-26.26397 z" />
<path id="b-9-2-r" class="muscle-outline" muscle="9-2" d="m 339.11374,422.33295 -15.06233,-2.90208 -14.85478,14.03297 -7.6661,27.26569 10.98097,7.87365 18.33034,8.35718 42.9146,13.75701 -3.03046,-38.3858 -7.57614,-12.12183 -20.20305,-8.08122" />
<path id="b-a-1-l" class="muscle-outline" muscle="a-1" d="m 275.77165,681.6362 -4.54569,-1.01015 -23.23351,108.08632 2.02031,13.63706 12.12183,-31.31473 5.55583,-24.74874 7.57615,-20.70813 z" />
<path id="b-a-1-r" class="muscle-outline" muscle="a-1" d="m 286.37825,686.68696 4.54568,53.53809 12.12183,32.32488 11.85431,29.51275 2.49539,-21.1448 -13.84462,-43.72329 -7.57614,-35.86042 -6.06092,-16.16244 z" />
<path id="b-a-9-1-l" class="muscle-outline" muscle="a-9-1" d="m 183.34269,500.31382 13.63706,-2.52539 8.58629,9.59645 0,28.28428 -11.61675,34.85026 4.54569,13.13198 -18.18275,15.65737 -10.6066,27.77919 -2.02031,33.33503 6.06092,30.30458 -14.64721,-30.80965 1.51522,-60.60915 12.62691,-41.92133 9.09137,-31.81981 z" />
<path id="b-a-9-1-r" class="muscle-outline" muscle="a-9-1" d="m 361.63461,492.73767 -2.52538,1.01015 -5.63503,12.15181 1e-5,21.27318 -0.10917,9.03141 11.37078,33.2282 -5.81494,11.7428 23.42186,33.28583 3.03046,56.06347 9.09137,-26.26397 0,-47.47717 -9.09137,-31.31472 -8.37874,-42.48638 -4.78324,-29.23446 z" />
<path id="b-a-9-2-l" class="muscle-outline" muscle="a-9-2" d="m 234.35539,580.11587 0,0 -13.13198,2.52538 -17.67767,1.51523 -15.65737,15.65736 -2.0203,46.46702 1.01015,34.85026 6.56599,65.15484 0.50508,6.06092 9.09137,-15.15229 10.6066,-25.25382 9.59645,-39.90102 2.52538,-23.73859 3.53554,-45.45686 z" />
<path id="b-a-9-2-r" class="muscle-outline" muscle="a-9-2" d="m 330.31988,578.09556 1.51523,87.88327 12.62691,52.02286 14.64721,20.70813 3.03046,-1.01016 6.56599,1.51523 2.52538,-5.05076 3.53553,-70.2056 -2.52538,-58.08377 -17.67767,-23.23351 -24.24366,-4.54569" />
<path id="b-a-9-3-r" class="muscle-outline" muscle="a-9-3" d="m 299.67936,573.62906 -6.07168,32.18573 7.04108,58.2398 5.93254,35.76435 14.64721,3.53554 9.09137,-38.89088 -2.52538,-87.24981" />
<path id="b-a-9-3-l" class="muscle-outline" muscle="a-9-3" d="m 261.62951,573.54988 -24.74874,6.56599 -4.54568,20.20305 -7.07107,66.67007 20.20305,30.80965 6.56599,-2.02031 6.56599,-29.7995 6.56599,-65.15484 z" />
<path id="b-a-9-4-l" class="muscle-outline" muscle="a-9-4" d="m 225.26402,673.55498 0,0 -9.09138,39.90102 14.64722,23.73859 10.10152,-4.04061 2.02031,-1.01015 0.50507,-4.04061 -0.10916,-28.01675 z" />
<path id="b-a-9-4-r" class="muscle-outline" muscle="a-9-4" d="m 331.33004,672.54483 0,0 12.6269,53.53808 -8.1604,12.75528 -7.76449,0.50508 -7.30862,-5.17914 1.51523,-29.29442 z" />
<path id="b-a-9-5-l" class="muscle-outline" muscle="a-9-5" d="m 267.18535,605.36968 -5.05076,60.10408 -9.59645,52.52793 -7.07107,50.50763 3.03046,7.57614 8.58629,-40.4061 13.13199,-59.599 3.53553,-70.71068 z" />
<path id="b-a-9-5-r" class="muscle-outline" muscle="a-9-5" d="m 296.19303,645.34378 -5.08075,-39.02391 -6.59598,0.53505 0.85179,72.2559 5.55584,3.03045 7.07107,19.1929 21.18322,75.65228 4.92238,-27.56087 -21.55991,-57.68786 z" />
<path id="b-b-3-1-l" class="muscle-outline" muscle="b-3-1" d="m 208.5965,736.68951 -30.30458,49.49748 -13.13198,33.84011 4.54569,18.18274 28.28427,41.92133 20.70813,-9.59645 0,-118.69292 z" />
<path id="b-b-3-1-r" class="muscle-outline" muscle="b-3-1" d="m 354.56354,739.71997 8.5863,1.01015 7.07107,13.13199 23.73858,45.45686 5.3183,25.0055 -2.73295,16.23084 -14.2021,35.03018 -15.21226,4.8924 -11.82431,-13.03359 -0.15836,-10.42903 -3.61472,-94.56687 z" />
<path id="b-b-3-2-l" class="muscle-outline" muscle="b-3-2" d="m 226.27417,739.21489 -4.04061,12.12183 -0.50508,119.70308 8.5863,12.12183 12.12183,-0.50508 12.12183,-29.7995 2.52538,-23.73858 -9.09137,-22.72843 -2.02031,-6.06092 -5.55583,-52.52793 -5.55584,-9.09137 z" />
<path id="b-b-3-2-r" class="muscle-outline" muscle="b-3-2" d="m 309.78933,816.08722 -1.53444,6.76277 0.85179,18.89539 5.55584,15.15228 16.66752,18.18275 22.72843,-7.57614 -4.04061,-100.00511 -12.62691,-25.25381 c 1.31576,0.88459 -4.84389,-0.78619 -7.62534,0.0984 l -3.37718,6.8504 -10.37982,55.70222 z" />
<path id="b-b-4-l" class="muscle-outline" muscle="b-4" d="m 185.86807,906.90022 4.54568,2.0203 14.14214,28.78935 12.12183,56.56854 -7.07107,-0.50508 -22.72843,-84.34773 z" />
<path id="b-b-4-r" class="muscle-outline" muscle="b-4" d="m 367.69553,927.60834 -12.57771,67.37427 6.18929,0.62502 16.99502,-79.11096 z" />
<path id="b-b-7-1-l" class="muscle-outline" muscle="b-7-1" d="m 163.64471,830.12862 3.53554,11.61676 30.80965,43.94163 17.17259,54.04316 -7.57614,-5.05076 -34.34519,-66.16499 -5.05076,-11.61676 z" />
<path id="b-b-7-1-r" class="muscle-outline" muscle="b-7-1" d="m 401.34729,825.7413 -1.86194,14.68797 -11.06249,27.57163 -5.06997,10.61504 -9.59645,3.03046 -6.56599,3.03046 -9.09137,50.00255 8.58629,-9.09137 9.09138,-12.12183 12.6269,-31.81981 15.65737,-29.29442 z" />
<path id="b-b-7-2-l" class="muscle-outline" muscle="b-7-2" d="m 254.55844,857.90782 -10.10152,27.27412 -6.566,2.52538 -0.50507,33.84011 17.17259,-34.85026 z" />
<path id="b-b-7-2-r" class="muscle-outline" muscle="b-7-2" d="m 312.64221,861.44335 17.67767,16.66752 2.02031,43.43656 -8.08122,-7.57615 z" />
<path id="b-b-8-l" class="muscle-outline" muscle="b-8" d="m 208.5965,938.21494 7.07107,4.04062 6.56599,43.94163 -4.04061,6.06092 z" />
<path id="b-b-8-r" class="muscle-outline" muscle="b-8" d="m 356.07877,938.72002 0,0 -7.25942,48.86403 4.24817,5.83414 12.10263,-62.27431 z" />
</svg>
